<svg width="60" height="60" viewBox="0 0 60 60" fill="none" xmlns="http://www.w3.org/2000/svg">
<g clip-path="url(#clip0_1_270)">
<path d="M41.75 20C41.2524 18.5881 40.3436 17.3574 39.1407 16.4663C37.9377 15.5753 36.4956 15.0646 35 15H25C23.0109 15 21.1032 15.7902 19.6967 17.1967C18.2902 18.6032 17.5 20.5109 17.5 22.5C17.5 24.4891 18.2902 26.3968 19.6967 27.8033C21.1032 29.2098 23.0109 30 25 30H35C36.9891 30 38.8968 30.7902 40.3033 32.1967C41.7098 33.6032 42.5 35.5109 42.5 37.5C42.5 39.4891 41.7098 41.3968 40.3033 42.8033C38.8968 44.2098 36.9891 45 35 45H25C23.5044 44.9354 22.0623 44.4247 20.8593 43.5337C19.6564 42.6426 18.7476 41.4119 18.25 40" stroke="#6255A5" stroke-width="1.5" stroke-linecap="round" stroke-linejoin="round"/>
<path d="M30 7.5V15M30 45V52.5" stroke="#6255A5" stroke-width="1.5" stroke-linecap="round" stroke-linejoin="round"/>
</g>
<defs>
<clipPath id="clip0_1_270">
<rect width="60" height="60" fill="white"/>
</clipPath>
</defs>
</svg>
