<svg width="320" height="233" viewBox="0 0 320 233" fill="none" xmlns="http://www.w3.org/2000/svg">
<path d="M2.8267 21H0.497159L5.73153 6.45455H8.26705L13.5014 21H11.1719L7.05966 9.09659H6.94602L2.8267 21ZM3.21733 15.304H10.7741V17.1506H3.21733V15.304ZM19.3395 21.2131C18.4588 21.2131 17.6728 20.9882 16.9815 20.5384C16.295 20.0838 15.7552 19.4375 15.3622 18.5994C14.974 17.7566 14.7798 16.7457 14.7798 15.5668C14.7798 14.3878 14.9763 13.3793 15.3693 12.5412C15.767 11.7031 16.3116 11.0616 17.0028 10.6165C17.6941 10.1714 18.4777 9.94886 19.3537 9.94886C20.0308 9.94886 20.5753 10.0625 20.9872 10.2898C21.4039 10.5123 21.7259 10.7727 21.9531 11.071C22.1851 11.3693 22.3651 11.6321 22.4929 11.8594H22.6207V6.45455H24.7443V21H22.6705V19.3026H22.4929C22.3651 19.5346 22.1804 19.7997 21.9389 20.098C21.7022 20.3963 21.3755 20.6567 20.9588 20.8793C20.5421 21.1018 20.0024 21.2131 19.3395 21.2131ZM19.8082 19.402C20.419 19.402 20.9351 19.241 21.3565 18.919C21.7827 18.5923 22.1046 18.1402 22.3224 17.5625C22.545 16.9848 22.6562 16.3125 22.6562 15.5455C22.6562 14.7879 22.5473 14.125 22.3295 13.5568C22.1117 12.9886 21.7921 12.5459 21.3707 12.2287C20.9493 11.9115 20.4285 11.7528 19.8082 11.7528C19.169 11.7528 18.6364 11.9186 18.2102 12.25C17.7841 12.5814 17.4621 13.0336 17.2443 13.6065C17.0313 14.1795 16.9247 14.8258 16.9247 15.5455C16.9247 16.2746 17.0336 16.9304 17.2514 17.5128C17.4692 18.0952 17.7912 18.5568 18.2173 18.8977C18.6482 19.2339 19.1785 19.402 19.8082 19.402ZM37.1076 10.0909L33.1516 21H30.8789L26.9158 10.0909H29.1957L31.9585 18.4858H32.0721L34.8278 10.0909H37.1076ZM41.9656 21.2415C41.2743 21.2415 40.6493 21.1136 40.0906 20.858C39.5318 20.5975 39.0891 20.2211 38.7624 19.7287C38.4405 19.2363 38.2795 18.6326 38.2795 17.9176C38.2795 17.3021 38.3978 16.7955 38.6346 16.3977C38.8713 16 39.1909 15.6851 39.5934 15.4531C39.9959 15.2211 40.4457 15.0459 40.9428 14.9276C41.44 14.8092 41.9466 14.7192 42.4627 14.6577C43.1161 14.5819 43.6464 14.5204 44.0536 14.473C44.4608 14.4209 44.7567 14.3381 44.9414 14.2244C45.1261 14.1108 45.2184 13.9261 45.2184 13.6705V13.6207C45.2184 13.0005 45.0432 12.5199 44.6928 12.179C44.3472 11.8381 43.8311 11.6676 43.1445 11.6676C42.4296 11.6676 41.8661 11.8262 41.4542 12.1435C41.047 12.456 40.7653 12.804 40.609 13.1875L38.6133 12.733C38.85 12.0701 39.1957 11.535 39.6502 11.1278C40.1095 10.7159 40.6374 10.4176 41.234 10.233C41.8306 10.0436 42.458 9.94886 43.1161 9.94886C43.5517 9.94886 44.0134 10.0009 44.5011 10.1051C44.9935 10.2045 45.4528 10.3892 45.8789 10.6591C46.3098 10.929 46.6625 11.3149 46.9371 11.8168C47.2118 12.3139 47.3491 12.9602 47.3491 13.7557V21H45.2752V19.5085H45.19C45.0527 19.7831 44.8467 20.053 44.5721 20.3182C44.2975 20.5833 43.9447 20.8035 43.5138 20.9787C43.083 21.1539 42.5669 21.2415 41.9656 21.2415ZM42.4272 19.5369C43.0143 19.5369 43.5162 19.4209 43.9329 19.1889C44.3543 18.9569 44.6739 18.6539 44.8917 18.2798C45.1142 17.901 45.2255 17.4962 45.2255 17.0653V15.6591C45.1497 15.7348 45.003 15.8059 44.7852 15.8722C44.5721 15.9337 44.3282 15.9882 44.0536 16.0355C43.779 16.0781 43.5115 16.1184 43.2511 16.1562C42.9906 16.1894 42.7728 16.2178 42.5977 16.2415C42.1857 16.2936 41.8093 16.3812 41.4684 16.5043C41.1322 16.6274 40.8623 16.8049 40.6587 17.0369C40.4599 17.2642 40.3604 17.5672 40.3604 17.946C40.3604 18.4716 40.5546 18.8693 40.9428 19.1392C41.3311 19.4044 41.8259 19.5369 42.4272 19.5369ZM52.3011 14.5227V21H50.1776V10.0909H52.2159V11.8665H52.3509C52.6018 11.2888 52.9948 10.8248 53.5298 10.4744C54.0696 10.1241 54.7491 9.94886 55.5682 9.94886C56.3116 9.94886 56.9626 10.1051 57.5213 10.4176C58.08 10.7254 58.5133 11.1847 58.821 11.7955C59.1288 12.4062 59.2827 13.1615 59.2827 14.0611V21H57.1591V14.3168C57.1591 13.526 56.9531 12.9081 56.5412 12.4631C56.1293 12.0133 55.5634 11.7884 54.8438 11.7884C54.3513 11.7884 53.9134 11.8949 53.5298 12.108C53.151 12.321 52.8504 12.6335 52.6278 13.0455C52.41 13.4527 52.3011 13.9451 52.3011 14.5227ZM66.7259 21.2202C65.67 21.2202 64.7609 20.9811 63.9986 20.5028C63.241 20.0199 62.6586 19.3546 62.2514 18.5071C61.8442 17.6596 61.6406 16.6889 61.6406 15.5952C61.6406 14.4872 61.849 13.5095 62.2656 12.6619C62.6823 11.8097 63.2694 11.1444 64.027 10.6662C64.7846 10.188 65.6771 9.94886 66.7045 9.94886C67.5331 9.94886 68.2718 10.1027 68.9205 10.4105C69.5691 10.7135 70.0923 11.1397 70.4901 11.6889C70.8925 12.2382 71.1316 12.8797 71.2074 13.6136H69.1406C69.027 13.1023 68.7666 12.6619 68.3594 12.2926C67.9569 11.9233 67.4171 11.7386 66.7401 11.7386C66.1482 11.7386 65.6297 11.8949 65.1847 12.2074C64.7443 12.5152 64.401 12.9555 64.1548 13.5284C63.9086 14.0966 63.7855 14.7689 63.7855 15.5455C63.7855 16.3409 63.9063 17.0275 64.1477 17.6051C64.3892 18.1828 64.7301 18.6302 65.1705 18.9474C65.6155 19.2647 66.1387 19.4233 66.7401 19.4233C67.1425 19.4233 67.5071 19.3499 67.8338 19.2031C68.1652 19.0516 68.4422 18.8362 68.6648 18.5568C68.892 18.2775 69.0507 17.9413 69.1406 17.5483H71.2074C71.1316 18.2538 70.902 18.8835 70.5185 19.4375C70.1349 19.9915 69.6212 20.4271 68.9773 20.7443C68.3381 21.0616 67.5876 21.2202 66.7259 21.2202ZM78.18 21.2202C77.1052 21.2202 76.1796 20.9905 75.4031 20.5312C74.6313 20.0672 74.0347 19.4162 73.6133 18.5781C73.1966 17.7353 72.9883 16.7481 72.9883 15.6165C72.9883 14.4991 73.1966 13.5142 73.6133 12.6619C74.0347 11.8097 74.6218 11.1444 75.3746 10.6662C76.1322 10.188 77.0176 9.94886 78.0309 9.94886C78.6464 9.94886 79.243 10.0507 79.8207 10.2543C80.3983 10.4579 80.9168 10.7775 81.3761 11.2131C81.8353 11.6487 82.1976 12.2145 82.4627 12.9105C82.7279 13.6018 82.8604 14.4422 82.8604 15.4318V16.1847H74.1886V14.5938H80.7795C80.7795 14.035 80.6658 13.5402 80.4386 13.1094C80.2113 12.6738 79.8917 12.3305 79.4798 12.0795C79.0726 11.8286 78.5943 11.7031 78.0451 11.7031C77.4485 11.7031 76.9277 11.8499 76.4826 12.1435C76.0423 12.4323 75.7013 12.8111 75.4599 13.2798C75.2231 13.7438 75.1048 14.2481 75.1048 14.7926V16.0355C75.1048 16.7647 75.2326 17.3849 75.4883 17.8963C75.7487 18.4077 76.1109 18.7983 76.5749 19.0682C77.0389 19.3333 77.5811 19.4659 78.2013 19.4659C78.6038 19.4659 78.9708 19.4091 79.3022 19.2955C79.6336 19.1771 79.9201 19.0019 80.1616 18.7699C80.4031 18.5379 80.5877 18.2514 80.7156 17.9105L82.7255 18.2727C82.5645 18.8646 82.2757 19.383 81.859 19.8281C81.4471 20.2685 80.9286 20.6117 80.3036 20.858C79.6834 21.0994 78.9755 21.2202 78.18 21.2202ZM90.5096 21V10.0909H92.5479V11.8665H92.6829C92.9102 11.2652 93.2818 10.7964 93.7979 10.4602C94.314 10.1193 94.9319 9.94886 95.6516 9.94886C96.3808 9.94886 96.9916 10.1193 97.484 10.4602C97.9812 10.8011 98.3481 11.2699 98.5849 11.8665H98.6985C98.9589 11.2841 99.3732 10.8201 99.9414 10.4744C100.51 10.1241 101.187 9.94886 101.973 9.94886C102.962 9.94886 103.77 10.259 104.395 10.8793C105.024 11.4995 105.339 12.4347 105.339 13.6847V21H103.216V13.8835C103.216 13.1449 103.014 12.6098 102.612 12.2784C102.209 11.947 101.729 11.7812 101.17 11.7812C100.479 11.7812 99.9414 11.9943 99.5579 12.4205C99.1744 12.8419 98.9826 13.384 98.9826 14.0469V21H96.8661V13.7486C96.8661 13.1567 96.6815 12.6809 96.3121 12.321C95.9428 11.9612 95.4622 11.7812 94.8704 11.7812C94.4679 11.7812 94.0962 11.8878 93.7553 12.1009C93.4192 12.3092 93.1469 12.6004 92.9386 12.9744C92.735 13.3485 92.6332 13.7817 92.6332 14.2741V21H90.5096ZM111.36 21.2415C110.669 21.2415 110.044 21.1136 109.485 20.858C108.926 20.5975 108.484 20.2211 108.157 19.7287C107.835 19.2363 107.674 18.6326 107.674 17.9176C107.674 17.3021 107.792 16.7955 108.029 16.3977C108.266 16 108.585 15.6851 108.988 15.4531C109.39 15.2211 109.84 15.0459 110.337 14.9276C110.835 14.8092 111.341 14.7192 111.857 14.6577C112.511 14.5819 113.041 14.5204 113.448 14.473C113.855 14.4209 114.151 14.3381 114.336 14.2244C114.521 14.1108 114.613 13.9261 114.613 13.6705V13.6207C114.613 13.0005 114.438 12.5199 114.087 12.179C113.742 11.8381 113.226 11.6676 112.539 11.6676C111.824 11.6676 111.261 11.8262 110.849 12.1435C110.442 12.456 110.16 12.804 110.004 13.1875L108.008 12.733C108.245 12.0701 108.59 11.535 109.045 11.1278C109.504 10.7159 110.032 10.4176 110.629 10.233C111.225 10.0436 111.853 9.94886 112.511 9.94886C112.946 9.94886 113.408 10.0009 113.896 10.1051C114.388 10.2045 114.847 10.3892 115.273 10.6591C115.704 10.929 116.057 11.3149 116.332 11.8168C116.606 12.3139 116.744 12.9602 116.744 13.7557V21H114.67V19.5085H114.585C114.447 19.7831 114.241 20.053 113.967 20.3182C113.692 20.5833 113.339 20.8035 112.908 20.9787C112.478 21.1539 111.961 21.2415 111.36 21.2415ZM111.822 19.5369C112.409 19.5369 112.911 19.4209 113.327 19.1889C113.749 18.9569 114.068 18.6539 114.286 18.2798C114.509 17.901 114.62 17.4962 114.62 17.0653V15.6591C114.544 15.7348 114.397 15.8059 114.18 15.8722C113.967 15.9337 113.723 15.9882 113.448 16.0355C113.174 16.0781 112.906 16.1184 112.646 16.1562C112.385 16.1894 112.167 16.2178 111.992 16.2415C111.58 16.2936 111.204 16.3812 110.863 16.5043C110.527 16.6274 110.257 16.8049 110.053 17.0369C109.854 17.2642 109.755 17.5672 109.755 17.946C109.755 18.4716 109.949 18.8693 110.337 19.1392C110.726 19.4044 111.22 19.5369 111.822 19.5369ZM121.696 14.5227V21H119.572V10.0909H121.61V11.8665H121.745C121.996 11.2888 122.389 10.8248 122.924 10.4744C123.464 10.1241 124.144 9.94886 124.963 9.94886C125.706 9.94886 126.357 10.1051 126.916 10.4176C127.475 10.7254 127.908 11.1847 128.216 11.7955C128.523 12.4062 128.677 13.1615 128.677 14.0611V21H126.554V14.3168C126.554 13.526 126.348 12.9081 125.936 12.4631C125.524 12.0133 124.958 11.7884 124.238 11.7884C123.746 11.7884 123.308 11.8949 122.924 12.108C122.546 12.321 122.245 12.6335 122.022 13.0455C121.805 13.4527 121.696 13.9451 121.696 14.5227ZM134.7 21.2415C134.009 21.2415 133.384 21.1136 132.825 20.858C132.266 20.5975 131.824 20.2211 131.497 19.7287C131.175 19.2363 131.014 18.6326 131.014 17.9176C131.014 17.3021 131.132 16.7955 131.369 16.3977C131.606 16 131.925 15.6851 132.328 15.4531C132.73 15.2211 133.18 15.0459 133.677 14.9276C134.174 14.8092 134.681 14.7192 135.197 14.6577C135.85 14.5819 136.381 14.5204 136.788 14.473C137.195 14.4209 137.491 14.3381 137.676 14.2244C137.86 14.1108 137.953 13.9261 137.953 13.6705V13.6207C137.953 13.0005 137.778 12.5199 137.427 12.179C137.082 11.8381 136.565 11.6676 135.879 11.6676C135.164 11.6676 134.6 11.8262 134.189 12.1435C133.781 12.456 133.5 12.804 133.343 13.1875L131.348 12.733C131.584 12.0701 131.93 11.535 132.385 11.1278C132.844 10.7159 133.372 10.4176 133.968 10.233C134.565 10.0436 135.192 9.94886 135.85 9.94886C136.286 9.94886 136.748 10.0009 137.235 10.1051C137.728 10.2045 138.187 10.3892 138.613 10.6591C139.044 10.929 139.397 11.3149 139.672 11.8168C139.946 12.3139 140.083 12.9602 140.083 13.7557V21H138.01V19.5085H137.924C137.787 19.7831 137.581 20.053 137.306 20.3182C137.032 20.5833 136.679 20.8035 136.248 20.9787C135.817 21.1539 135.301 21.2415 134.7 21.2415ZM135.162 19.5369C135.749 19.5369 136.251 19.4209 136.667 19.1889C137.089 18.9569 137.408 18.6539 137.626 18.2798C137.849 17.901 137.96 17.4962 137.96 17.0653V15.6591C137.884 15.7348 137.737 15.8059 137.52 15.8722C137.306 15.9337 137.063 15.9882 136.788 16.0355C136.513 16.0781 136.246 16.1184 135.985 16.1562C135.725 16.1894 135.507 16.2178 135.332 16.2415C134.92 16.2936 134.544 16.3812 134.203 16.5043C133.867 16.6274 133.597 16.8049 133.393 17.0369C133.194 17.2642 133.095 17.5672 133.095 17.946C133.095 18.4716 133.289 18.8693 133.677 19.1392C134.065 19.4044 134.56 19.5369 135.162 19.5369ZM147.486 25.3182C146.619 25.3182 145.874 25.2045 145.249 24.9773C144.628 24.75 144.122 24.4493 143.729 24.0753C143.336 23.7012 143.042 23.2917 142.848 22.8466L144.673 22.0938C144.801 22.3021 144.972 22.5223 145.185 22.7543C145.402 22.991 145.696 23.1922 146.065 23.358C146.439 23.5237 146.92 23.6065 147.507 23.6065C148.312 23.6065 148.977 23.41 149.503 23.017C150.028 22.6288 150.291 22.0085 150.291 21.1562V19.0114H150.156C150.028 19.2434 149.844 19.5014 149.602 19.7855C149.366 20.0696 149.039 20.3158 148.622 20.5241C148.205 20.7325 147.663 20.8366 146.996 20.8366C146.134 20.8366 145.357 20.6354 144.666 20.233C143.98 19.8258 143.435 19.2268 143.033 18.4361C142.635 17.6406 142.436 16.6629 142.436 15.5028C142.436 14.3428 142.633 13.3485 143.026 12.5199C143.423 11.6913 143.968 11.0568 144.659 10.6165C145.35 10.1714 146.134 9.94886 147.01 9.94886C147.687 9.94886 148.234 10.0625 148.651 10.2898C149.067 10.5123 149.392 10.7727 149.624 11.071C149.86 11.3693 150.043 11.6321 150.17 11.8594H150.327V10.0909H152.408V21.2415C152.408 22.179 152.19 22.9484 151.754 23.5497C151.319 24.151 150.729 24.5961 149.986 24.8849C149.247 25.1738 148.414 25.3182 147.486 25.3182ZM147.464 19.0753C148.075 19.0753 148.591 18.9332 149.013 18.6491C149.439 18.3603 149.761 17.9484 149.979 17.4134C150.201 16.8736 150.312 16.2273 150.312 15.4744C150.312 14.7405 150.204 14.0942 149.986 13.5355C149.768 12.9768 149.448 12.5412 149.027 12.2287C148.606 11.9115 148.085 11.7528 147.464 11.7528C146.825 11.7528 146.293 11.9186 145.866 12.25C145.44 12.5767 145.118 13.0218 144.901 13.5852C144.688 14.1487 144.581 14.7784 144.581 15.4744C144.581 16.1894 144.69 16.8168 144.908 17.3565C145.125 17.8963 145.447 18.3177 145.874 18.6207C146.304 18.9238 146.835 19.0753 147.464 19.0753ZM159.957 21.2202C158.883 21.2202 157.957 20.9905 157.18 20.5312C156.409 20.0672 155.812 19.4162 155.391 18.5781C154.974 17.7353 154.766 16.7481 154.766 15.6165C154.766 14.4991 154.974 13.5142 155.391 12.6619C155.812 11.8097 156.399 11.1444 157.152 10.6662C157.91 10.188 158.795 9.94886 159.808 9.94886C160.424 9.94886 161.02 10.0507 161.598 10.2543C162.176 10.4579 162.694 10.7775 163.153 11.2131C163.613 11.6487 163.975 12.2145 164.24 12.9105C164.505 13.6018 164.638 14.4422 164.638 15.4318V16.1847H155.966V14.5938H162.557C162.557 14.035 162.443 13.5402 162.216 13.1094C161.989 12.6738 161.669 12.3305 161.257 12.0795C160.85 11.8286 160.372 11.7031 159.822 11.7031C159.226 11.7031 158.705 11.8499 158.26 12.1435C157.82 12.4323 157.479 12.8111 157.237 13.2798C157 13.7438 156.882 14.2481 156.882 14.7926V16.0355C156.882 16.7647 157.01 17.3849 157.266 17.8963C157.526 18.4077 157.888 18.7983 158.352 19.0682C158.816 19.3333 159.358 19.4659 159.979 19.4659C160.381 19.4659 160.748 19.4091 161.08 19.2955C161.411 19.1771 161.697 19.0019 161.939 18.7699C162.18 18.5379 162.365 18.2514 162.493 17.9105L164.503 18.2727C164.342 18.8646 164.053 19.383 163.636 19.8281C163.224 20.2685 162.706 20.6117 162.081 20.858C161.461 21.0994 160.753 21.2202 159.957 21.2202ZM166.994 21V10.0909H169.032V11.8665H169.167C169.395 11.2652 169.766 10.7964 170.282 10.4602C170.798 10.1193 171.416 9.94886 172.136 9.94886C172.865 9.94886 173.476 10.1193 173.968 10.4602C174.466 10.8011 174.833 11.2699 175.069 11.8665H175.183C175.443 11.2841 175.858 10.8201 176.426 10.4744C176.994 10.1241 177.671 9.94886 178.457 9.94886C179.447 9.94886 180.254 10.259 180.879 10.8793C181.509 11.4995 181.824 12.4347 181.824 13.6847V21H179.7V13.8835C179.7 13.1449 179.499 12.6098 179.096 12.2784C178.694 11.947 178.213 11.7812 177.654 11.7812C176.963 11.7812 176.426 11.9943 176.042 12.4205C175.659 12.8419 175.467 13.384 175.467 14.0469V21H173.35V13.7486C173.35 13.1567 173.166 12.6809 172.797 12.321C172.427 11.9612 171.947 11.7812 171.355 11.7812C170.952 11.7812 170.581 11.8878 170.24 12.1009C169.904 12.3092 169.631 12.6004 169.423 12.9744C169.219 13.3485 169.118 13.7817 169.118 14.2741V21H166.994ZM189.371 21.2202C188.297 21.2202 187.371 20.9905 186.594 20.5312C185.823 20.0672 185.226 19.4162 184.805 18.5781C184.388 17.7353 184.18 16.7481 184.18 15.6165C184.18 14.4991 184.388 13.5142 184.805 12.6619C185.226 11.8097 185.813 11.1444 186.566 10.6662C187.324 10.188 188.209 9.94886 189.222 9.94886C189.838 9.94886 190.434 10.0507 191.012 10.2543C191.59 10.4579 192.108 10.7775 192.567 11.2131C193.027 11.6487 193.389 12.2145 193.654 12.9105C193.919 13.6018 194.052 14.4422 194.052 15.4318V16.1847H185.38V14.5938H191.971C191.971 14.035 191.857 13.5402 191.63 13.1094C191.403 12.6738 191.083 12.3305 190.671 12.0795C190.264 11.8286 189.786 11.7031 189.237 11.7031C188.64 11.7031 188.119 11.8499 187.674 12.1435C187.234 12.4323 186.893 12.8111 186.651 13.2798C186.415 13.7438 186.296 14.2481 186.296 14.7926V16.0355C186.296 16.7647 186.424 17.3849 186.68 17.8963C186.94 18.4077 187.302 18.7983 187.766 19.0682C188.23 19.3333 188.772 19.4659 189.393 19.4659C189.795 19.4659 190.162 19.4091 190.494 19.2955C190.825 19.1771 191.112 19.0019 191.353 18.7699C191.594 18.5379 191.779 18.2514 191.907 17.9105L193.917 18.2727C193.756 18.8646 193.467 19.383 193.05 19.8281C192.638 20.2685 192.12 20.6117 191.495 20.858C190.875 21.0994 190.167 21.2202 189.371 21.2202ZM198.532 14.5227V21H196.408V10.0909H198.446V11.8665H198.581C198.832 11.2888 199.225 10.8248 199.76 10.4744C200.3 10.1241 200.98 9.94886 201.799 9.94886C202.542 9.94886 203.193 10.1051 203.752 10.4176C204.31 10.7254 204.744 11.1847 205.051 11.7955C205.359 12.4062 205.513 13.1615 205.513 14.0611V21H203.39V14.3168C203.39 13.526 203.184 12.9081 202.772 12.4631C202.36 12.0133 201.794 11.7884 201.074 11.7884C200.582 11.7884 200.144 11.8949 199.76 12.108C199.382 12.321 199.081 12.6335 198.858 13.0455C198.641 13.4527 198.532 13.9451 198.532 14.5227ZM213.453 10.0909V11.7955H207.495V10.0909H213.453ZM209.093 7.47727H211.216V17.7969C211.216 18.2088 211.278 18.5189 211.401 18.7273C211.524 18.9309 211.683 19.0705 211.877 19.1463C212.076 19.2173 212.291 19.2528 212.523 19.2528C212.694 19.2528 212.843 19.241 212.971 19.2173C213.098 19.1937 213.198 19.1747 213.269 19.1605L213.652 20.9148C213.529 20.9621 213.354 21.0095 213.127 21.0568C212.9 21.1089 212.615 21.1373 212.275 21.142C211.716 21.1515 211.195 21.0521 210.712 20.8438C210.229 20.6354 209.838 20.3134 209.54 19.8778C209.242 19.4422 209.093 18.8954 209.093 18.2372V7.47727ZM225.328 21.206C224.353 21.206 223.513 21.0284 222.807 20.6733C222.106 20.3182 221.567 19.8352 221.188 19.2244C220.809 18.6089 220.62 17.9129 220.62 17.1364C220.62 16.5445 220.743 16.0189 220.989 15.5597C221.235 15.0956 221.578 14.6671 222.019 14.2741C222.459 13.8812 222.968 13.4858 223.546 13.0881L225.89 11.4332C226.287 11.1728 226.597 10.8982 226.82 10.6094C227.042 10.3158 227.154 9.9536 227.154 9.52273C227.154 9.18182 227.007 8.85511 226.713 8.54261C226.42 8.23011 226.027 8.07386 225.534 8.07386C225.194 8.07386 224.893 8.15672 224.632 8.32244C224.377 8.48816 224.176 8.70123 224.029 8.96165C223.887 9.21733 223.816 9.48722 223.816 9.77131C223.816 10.1027 223.906 10.4366 224.086 10.7727C224.27 11.1089 224.507 11.4569 224.796 11.8168C225.085 12.1719 225.388 12.5412 225.705 12.9247L232.459 21H230.059L224.469 14.4304C224 13.8764 223.565 13.3556 223.162 12.8679C222.76 12.3755 222.433 11.8783 222.182 11.3764C221.936 10.8698 221.813 10.3229 221.813 9.7358C221.813 9.06818 221.964 8.47633 222.267 7.96023C222.575 7.43939 223.004 7.0322 223.553 6.73864C224.102 6.44508 224.746 6.2983 225.485 6.2983C226.233 6.2983 226.874 6.44508 227.409 6.73864C227.949 7.02746 228.364 7.41335 228.652 7.89631C228.946 8.37453 229.093 8.89773 229.093 9.46591C229.093 10.1572 228.92 10.768 228.574 11.2983C228.233 11.8239 227.762 12.3068 227.161 12.7472L224.242 14.8991C223.674 15.3158 223.278 15.7277 223.056 16.1349C222.838 16.5374 222.729 16.8523 222.729 17.0795C222.729 17.4962 222.836 17.8821 223.049 18.2372C223.266 18.5923 223.569 18.8764 223.958 19.0895C224.351 19.3026 224.81 19.4091 225.336 19.4091C225.875 19.4091 226.401 19.2931 226.912 19.0611C227.428 18.8243 227.895 18.4858 228.311 18.0455C228.733 17.6051 229.067 17.0772 229.313 16.4616C229.559 15.8461 229.682 15.1572 229.682 14.3949H231.6C231.6 15.3324 231.493 16.1255 231.28 16.7741C231.067 17.4181 230.809 17.9437 230.506 18.3509C230.208 18.7533 229.926 19.0682 229.661 19.2955C229.576 19.3712 229.495 19.447 229.419 19.5227C229.344 19.5985 229.263 19.6742 229.178 19.75C228.685 20.2472 228.089 20.6141 227.388 20.8509C226.692 21.0876 226.006 21.206 225.328 21.206ZM1.42756 53.0909V38.0909H3.50142V39.8594H3.67898C3.80208 39.6321 3.97964 39.3693 4.21165 39.071C4.44366 38.7727 4.76563 38.5123 5.17756 38.2898C5.58949 38.0625 6.134 37.9489 6.81108 37.9489C7.69176 37.9489 8.47775 38.1714 9.16903 38.6165C9.86032 39.0616 10.4025 39.7031 10.7955 40.5412C11.1932 41.3793 11.392 42.3878 11.392 43.5668C11.392 44.7457 11.1955 45.7566 10.8026 46.5994C10.4096 47.4375 9.86979 48.0838 9.18324 48.5384C8.49669 48.9882 7.71307 49.2131 6.83239 49.2131C6.16951 49.2131 5.62737 49.1018 5.20597 48.8793C4.7893 48.6567 4.46259 48.3963 4.22585 48.098C3.98911 47.7997 3.80682 47.5346 3.67898 47.3026H3.55114V53.0909H1.42756ZM3.50852 43.5455C3.50852 44.3125 3.61979 44.9848 3.84233 45.5625C4.06487 46.1402 4.38684 46.5923 4.80824 46.919C5.22964 47.241 5.74574 47.402 6.35653 47.402C6.991 47.402 7.52131 47.2339 7.94744 46.8977C8.37358 46.5568 8.69555 46.0952 8.91335 45.5128C9.13589 44.9304 9.24716 44.2746 9.24716 43.5455C9.24716 42.8258 9.13826 42.1795 8.92045 41.6065C8.70739 41.0336 8.38542 40.5814 7.95455 40.25C7.52841 39.9186 6.99574 39.7528 6.35653 39.7528C5.741 39.7528 5.22017 39.9115 4.79403 40.2287C4.37263 40.5459 4.05303 40.9886 3.83523 41.5568C3.61742 42.125 3.50852 42.7879 3.50852 43.5455ZM21.946 40.7543L20.0213 41.0952C19.9408 40.849 19.813 40.6146 19.6378 40.392C19.4673 40.1695 19.2353 39.9872 18.9418 39.8452C18.6482 39.7031 18.2813 39.6321 17.8409 39.6321C17.2396 39.6321 16.7377 39.767 16.3352 40.0369C15.9328 40.3021 15.7315 40.6454 15.7315 41.0668C15.7315 41.4313 15.8665 41.7249 16.1364 41.9474C16.4063 42.17 16.8419 42.3523 17.4432 42.4943L19.1761 42.892C20.1799 43.1241 20.928 43.4815 21.4205 43.9645C21.9129 44.4474 22.1591 45.0748 22.1591 45.8466C22.1591 46.5 21.9697 47.0824 21.5909 47.5938C21.2169 48.1004 20.6937 48.4981 20.0213 48.7869C19.3537 49.0758 18.5795 49.2202 17.6989 49.2202C16.4773 49.2202 15.4806 48.9598 14.7088 48.4389C13.937 47.9134 13.4635 47.1676 13.2884 46.2017L15.3409 45.8892C15.4688 46.4242 15.7315 46.8291 16.1293 47.1037C16.527 47.3736 17.0455 47.5085 17.6847 47.5085C18.3807 47.5085 18.937 47.3641 19.3537 47.0753C19.7704 46.7817 19.9787 46.4242 19.9787 46.0028C19.9787 45.6619 19.8509 45.3755 19.5952 45.1435C19.3442 44.9115 18.9583 44.7363 18.4375 44.6179L16.5909 44.2131C15.5729 43.9811 14.8201 43.6117 14.3324 43.1051C13.8494 42.5985 13.608 41.9569 13.608 41.1804C13.608 40.5365 13.7879 39.973 14.1477 39.4901C14.5076 39.0071 15.0047 38.6307 15.6392 38.3608C16.2737 38.0862 17.0005 37.9489 17.8196 37.9489C18.9986 37.9489 19.9266 38.2045 20.6037 38.7159C21.2808 39.2225 21.7282 39.902 21.946 40.7543ZM25.8363 53.0909C25.5191 53.0909 25.2302 53.0649 24.9698 53.0128C24.7094 52.9654 24.5153 52.9134 24.3874 52.8565L24.8988 51.1165C25.2871 51.2206 25.6327 51.2656 25.9357 51.2514C26.2388 51.2372 26.5063 51.1236 26.7383 50.9105C26.975 50.6974 27.1834 50.3494 27.3633 49.8665L27.6261 49.142L23.6346 38.0909H25.9073L28.6701 46.5568H28.7837L31.5465 38.0909H33.8263L29.3306 50.456C29.1223 51.0241 28.8571 51.5047 28.5352 51.8977C28.2132 52.2955 27.8297 52.5938 27.3846 52.7926C26.9395 52.9915 26.4234 53.0909 25.8363 53.0909ZM40.0462 49.2202C38.9903 49.2202 38.0812 48.9811 37.3189 48.5028C36.5613 48.0199 35.9789 47.3546 35.5717 46.5071C35.1645 45.6596 34.9609 44.6889 34.9609 43.5952C34.9609 42.4872 35.1693 41.5095 35.5859 40.6619C36.0026 39.8097 36.5897 39.1444 37.3473 38.6662C38.1049 38.188 38.9974 37.9489 40.0249 37.9489C40.8535 37.9489 41.5921 38.1027 42.2408 38.4105C42.8894 38.7135 43.4126 39.1397 43.8104 39.6889C44.2128 40.2382 44.4519 40.8797 44.5277 41.6136H42.4609C42.3473 41.1023 42.0869 40.6619 41.6797 40.2926C41.2772 39.9233 40.7375 39.7386 40.0604 39.7386C39.4685 39.7386 38.95 39.8949 38.505 40.2074C38.0646 40.5152 37.7214 40.9555 37.4751 41.5284C37.2289 42.0966 37.1058 42.7689 37.1058 43.5455C37.1058 44.3409 37.2266 45.0275 37.468 45.6051C37.7095 46.1828 38.0504 46.6302 38.4908 46.9474C38.9358 47.2647 39.459 47.4233 40.0604 47.4233C40.4628 47.4233 40.8274 47.3499 41.1541 47.2031C41.4856 47.0516 41.7625 46.8362 41.9851 46.5568C42.2124 46.2775 42.371 45.9413 42.4609 45.5483H44.5277C44.4519 46.2538 44.2223 46.8835 43.8388 47.4375C43.4553 47.9915 42.9415 48.4271 42.2976 48.7443C41.6584 49.0616 40.9079 49.2202 40.0462 49.2202ZM48.9222 42.5227V49H46.7987V34.4545H48.8938V39.8665H49.0288C49.2844 39.2794 49.6751 38.813 50.2006 38.4673C50.7262 38.1217 51.4128 37.9489 52.2603 37.9489C53.0084 37.9489 53.6618 38.1027 54.2205 38.4105C54.784 38.7183 55.2196 39.1776 55.5273 39.7884C55.8398 40.3944 55.9961 41.152 55.9961 42.0611V49H53.8725V42.3168C53.8725 41.5166 53.6665 40.8963 53.2546 40.456C52.8427 40.0109 52.2698 39.7884 51.5359 39.7884C51.034 39.7884 50.5842 39.8949 50.1864 40.108C49.7934 40.321 49.4833 40.6335 49.256 41.0455C49.0335 41.4527 48.9222 41.9451 48.9222 42.5227ZM63.4251 49.2202C62.4023 49.2202 61.5098 48.9858 60.7475 48.517C59.9852 48.0483 59.3933 47.3925 58.9719 46.5497C58.5505 45.7069 58.3398 44.7221 58.3398 43.5952C58.3398 42.4635 58.5505 41.474 58.9719 40.6264C59.3933 39.7789 59.9852 39.1207 60.7475 38.652C61.5098 38.1832 62.4023 37.9489 63.4251 37.9489C64.4478 37.9489 65.3403 38.1832 66.1026 38.652C66.8649 39.1207 67.4568 39.7789 67.8782 40.6264C68.2996 41.474 68.5103 42.4635 68.5103 43.5952C68.5103 44.7221 68.2996 45.7069 67.8782 46.5497C67.4568 47.3925 66.8649 48.0483 66.1026 48.517C65.3403 48.9858 64.4478 49.2202 63.4251 49.2202ZM63.4322 47.4375C64.0951 47.4375 64.6443 47.2623 65.0799 46.9119C65.5155 46.5616 65.8375 46.0952 66.0458 45.5128C66.2589 44.9304 66.3654 44.2888 66.3654 43.5881C66.3654 42.892 66.2589 42.2528 66.0458 41.6705C65.8375 41.0833 65.5155 40.6122 65.0799 40.2571C64.6443 39.902 64.0951 39.7244 63.4322 39.7244C62.7646 39.7244 62.2106 39.902 61.7702 40.2571C61.3346 40.6122 61.0103 41.0833 60.7972 41.6705C60.5889 42.2528 60.4847 42.892 60.4847 43.5881C60.4847 44.2888 60.5889 44.9304 60.7972 45.5128C61.0103 46.0952 61.3346 46.5616 61.7702 46.9119C62.2106 47.2623 62.7646 47.4375 63.4322 47.4375ZM73.0043 34.4545V49H70.8807V34.4545H73.0043ZM80.4563 49.2202C79.4336 49.2202 78.5411 48.9858 77.7788 48.517C77.0165 48.0483 76.4246 47.3925 76.0032 46.5497C75.5818 45.7069 75.3711 44.7221 75.3711 43.5952C75.3711 42.4635 75.5818 41.474 76.0032 40.6264C76.4246 39.7789 77.0165 39.1207 77.7788 38.652C78.5411 38.1832 79.4336 37.9489 80.4563 37.9489C81.479 37.9489 82.3716 38.1832 83.1339 38.652C83.8962 39.1207 84.488 39.7789 84.9094 40.6264C85.3308 41.474 85.5415 42.4635 85.5415 43.5952C85.5415 44.7221 85.3308 45.7069 84.9094 46.5497C84.488 47.3925 83.8962 48.0483 83.1339 48.517C82.3716 48.9858 81.479 49.2202 80.4563 49.2202ZM80.4634 47.4375C81.1263 47.4375 81.6755 47.2623 82.1112 46.9119C82.5468 46.5616 82.8687 46.0952 83.0771 45.5128C83.2901 44.9304 83.3967 44.2888 83.3967 43.5881C83.3967 42.892 83.2901 42.2528 83.0771 41.6705C82.8687 41.0833 82.5468 40.6122 82.1112 40.2571C81.6755 39.902 81.1263 39.7244 80.4634 39.7244C79.7958 39.7244 79.2418 39.902 78.8015 40.2571C78.3659 40.6122 78.0415 41.0833 77.8285 41.6705C77.6201 42.2528 77.516 42.892 77.516 43.5881C77.516 44.2888 77.6201 44.9304 77.8285 45.5128C78.0415 46.0952 78.3659 46.5616 78.8015 46.9119C79.2418 47.2623 79.7958 47.4375 80.4634 47.4375ZM92.4858 53.3182C91.6193 53.3182 90.8736 53.2045 90.2486 52.9773C89.6283 52.75 89.1217 52.4493 88.7287 52.0753C88.3357 51.7012 88.0421 51.2917 87.848 50.8466L89.6733 50.0938C89.8011 50.3021 89.9716 50.5223 90.1847 50.7543C90.4025 50.991 90.696 51.1922 91.0653 51.358C91.4394 51.5237 91.92 51.6065 92.5071 51.6065C93.312 51.6065 93.9773 51.41 94.5028 51.017C95.0284 50.6288 95.2912 50.0085 95.2912 49.1562V47.0114H95.1562C95.0284 47.2434 94.8438 47.5014 94.6023 47.7855C94.3655 48.0696 94.0388 48.3158 93.6222 48.5241C93.2055 48.7325 92.6634 48.8366 91.9957 48.8366C91.134 48.8366 90.3575 48.6354 89.6662 48.233C88.9796 47.8258 88.4351 47.2268 88.0327 46.4361C87.6349 45.6406 87.4361 44.6629 87.4361 43.5028C87.4361 42.3428 87.6326 41.3485 88.0256 40.5199C88.4233 39.6913 88.9678 39.0568 89.6591 38.6165C90.3504 38.1714 91.134 37.9489 92.0099 37.9489C92.687 37.9489 93.2339 38.0625 93.6506 38.2898C94.0672 38.5123 94.3916 38.7727 94.6236 39.071C94.8603 39.3693 95.0426 39.6321 95.1705 39.8594H95.3267V38.0909H97.4077V49.2415C97.4077 50.179 97.1899 50.9484 96.7543 51.5497C96.3187 52.151 95.7292 52.5961 94.9858 52.8849C94.2472 53.1738 93.4138 53.3182 92.4858 53.3182ZM92.4645 47.0753C93.0753 47.0753 93.5914 46.9332 94.0128 46.6491C94.4389 46.3603 94.7609 45.9484 94.9787 45.4134C95.2012 44.8736 95.3125 44.2273 95.3125 43.4744C95.3125 42.7405 95.2036 42.0942 94.9858 41.5355C94.768 40.9768 94.4484 40.5412 94.027 40.2287C93.6056 39.9115 93.0848 39.7528 92.4645 39.7528C91.8253 39.7528 91.2926 39.9186 90.8665 40.25C90.4403 40.5767 90.1184 41.0218 89.9006 41.5852C89.6875 42.1487 89.581 42.7784 89.581 43.4744C89.581 44.1894 89.6899 44.8168 89.9077 45.3565C90.1255 45.8963 90.4474 46.3177 90.8736 46.6207C91.3045 46.9238 91.8348 47.0753 92.4645 47.0753ZM101.598 53.0909C101.281 53.0909 100.992 53.0649 100.732 53.0128C100.471 52.9654 100.277 52.9134 100.149 52.8565L100.661 51.1165C101.049 51.2206 101.394 51.2656 101.697 51.2514C102 51.2372 102.268 51.1236 102.5 50.9105C102.737 50.6974 102.945 50.3494 103.125 49.8665L103.388 49.142L99.3963 38.0909H101.669L104.432 46.5568H104.545L107.308 38.0909H109.588L105.092 50.456C104.884 51.0241 104.619 51.5047 104.297 51.8977C103.975 52.2955 103.591 52.5938 103.146 52.7926C102.701 52.9915 102.185 53.0909 101.598 53.0909Z" fill="#312A53"/>
<path d="M9.42045 106.909V77.8182H11.2841V106.909H9.42045ZM15.25 86.8409C15.1288 85.7652 14.6288 84.9318 13.75 84.3409C12.8712 83.7424 11.7652 83.4432 10.4318 83.4432C9.47727 83.4432 8.65152 83.5947 7.95455 83.8977C7.25758 84.1932 6.71591 84.6023 6.32955 85.125C5.95076 85.6402 5.76136 86.2273 5.76136 86.8864C5.76136 87.4394 5.89015 87.9167 6.14773 88.3182C6.41288 88.7197 6.75758 89.0568 7.18182 89.3295C7.61364 89.5947 8.07576 89.8182 8.56818 90C9.06061 90.1742 9.53409 90.3182 9.98864 90.4318L12.2614 91.0227C13.0038 91.2045 13.7652 91.4508 14.5455 91.7614C15.3258 92.072 16.0492 92.4811 16.7159 92.9886C17.3826 93.4962 17.9205 94.125 18.3295 94.875C18.7462 95.625 18.9545 96.5227 18.9545 97.5682C18.9545 98.8864 18.6136 100.057 17.9318 101.08C17.2576 102.102 16.2765 102.909 14.9886 103.5C13.7083 104.091 12.1591 104.386 10.3409 104.386C8.59848 104.386 7.09091 104.11 5.81818 103.557C4.54545 103.004 3.54924 102.22 2.82955 101.205C2.10985 100.182 1.71212 98.9697 1.63636 97.5682H5.15909C5.22727 98.4091 5.5 99.1098 5.97727 99.6705C6.46212 100.223 7.07955 100.636 7.82955 100.909C8.58712 101.174 9.41667 101.307 10.3182 101.307C11.3106 101.307 12.1932 101.152 12.9659 100.841C13.7462 100.523 14.3598 100.083 14.8068 99.5227C15.2538 98.9545 15.4773 98.2917 15.4773 97.5341C15.4773 96.8447 15.2803 96.2803 14.8864 95.8409C14.5 95.4015 13.9735 95.0379 13.3068 94.75C12.6477 94.4621 11.9015 94.2083 11.0682 93.9886L8.31818 93.2386C6.45455 92.7311 4.97727 91.9848 3.88636 91C2.80303 90.0152 2.26136 88.7121 2.26136 87.0909C2.26136 85.75 2.625 84.5795 3.35227 83.5795C4.07955 82.5795 5.06439 81.803 6.30682 81.25C7.54924 80.6894 8.95076 80.4091 10.5114 80.4091C12.0871 80.4091 13.4773 80.6856 14.6818 81.2386C15.8939 81.7917 16.8485 82.553 17.5455 83.5227C18.2424 84.4848 18.6061 85.5909 18.6364 86.8409H15.25ZM31.6619 80.7273V104H28.1392V84.25H28.0028L22.4347 87.8864V84.5227L28.2415 80.7273H31.6619ZM46.0597 104.386C44.2642 104.379 42.7301 103.905 41.4574 102.966C40.1847 102.027 39.2112 100.659 38.5369 98.8636C37.8627 97.0682 37.5256 94.9053 37.5256 92.375C37.5256 89.8523 37.8627 87.697 38.5369 85.9091C39.2188 84.1212 40.196 82.7576 41.4688 81.8182C42.7491 80.8788 44.2794 80.4091 46.0597 80.4091C47.84 80.4091 49.3665 80.8826 50.6392 81.8295C51.9119 82.7689 52.8854 84.1326 53.5597 85.9205C54.2415 87.7008 54.5824 89.8523 54.5824 92.375C54.5824 94.9129 54.2453 97.0795 53.571 98.875C52.8968 100.663 51.9233 102.03 50.6506 102.977C49.3778 103.917 47.8475 104.386 46.0597 104.386ZM46.0597 101.352C47.6354 101.352 48.8665 100.583 49.7528 99.0455C50.6468 97.5076 51.0938 95.2841 51.0938 92.375C51.0938 90.4432 50.8892 88.8106 50.4801 87.4773C50.0786 86.1364 49.4991 85.1212 48.7415 84.4318C47.9915 83.7348 47.0975 83.3864 46.0597 83.3864C44.4915 83.3864 43.2604 84.1591 42.3665 85.7045C41.4725 87.25 41.0218 89.4735 41.0142 92.375C41.0142 94.3144 41.215 95.9545 41.6165 97.2955C42.0256 98.6288 42.6051 99.6402 43.3551 100.33C44.1051 101.011 45.0066 101.352 46.0597 101.352ZM66.7159 104.386C64.9205 104.379 63.3864 103.905 62.1136 102.966C60.8409 102.027 59.8674 100.659 59.1932 98.8636C58.5189 97.0682 58.1818 94.9053 58.1818 92.375C58.1818 89.8523 58.5189 87.697 59.1932 85.9091C59.875 84.1212 60.8523 82.7576 62.125 81.8182C63.4053 80.8788 64.9356 80.4091 66.7159 80.4091C68.4962 80.4091 70.0227 80.8826 71.2955 81.8295C72.5682 82.7689 73.5417 84.1326 74.2159 85.9205C74.8977 87.7008 75.2386 89.8523 75.2386 92.375C75.2386 94.9129 74.9015 97.0795 74.2273 98.875C73.553 100.663 72.5795 102.03 71.3068 102.977C70.0341 103.917 68.5038 104.386 66.7159 104.386ZM66.7159 101.352C68.2917 101.352 69.5227 100.583 70.4091 99.0455C71.303 97.5076 71.75 95.2841 71.75 92.375C71.75 90.4432 71.5455 88.8106 71.1364 87.4773C70.7348 86.1364 70.1553 85.1212 69.3977 84.4318C68.6477 83.7348 67.7538 83.3864 66.7159 83.3864C65.1477 83.3864 63.9167 84.1591 63.0227 85.7045C62.1288 87.25 61.678 89.4735 61.6705 92.375C61.6705 94.3144 61.8712 95.9545 62.2727 97.2955C62.6818 98.6288 63.2614 99.6402 64.0114 100.33C64.7614 101.011 65.6629 101.352 66.7159 101.352Z" fill="#85D1A0"/>
<line y1="126.5" x2="317.014" y2="126.5" stroke="#F1F0F0"/>
<g clip-path="url(#clip0_1_182)">
<path d="M12 166C16.9706 166 21 161.971 21 157C21 152.029 16.9706 148 12 148C7.02944 148 3 152.029 3 157C3 161.971 7.02944 166 12 166Z" stroke="#85D1A0" stroke-width="1.5" stroke-linecap="round" stroke-linejoin="round"/>
<path d="M12 152V157L15 160" stroke="#85D1A0" stroke-width="1.5" stroke-linecap="round" stroke-linejoin="round"/>
</g>
<path d="M31.054 162V161.105L34.4148 157.426C34.8092 156.995 35.134 156.621 35.3892 156.303C35.6444 155.981 35.8333 155.679 35.956 155.398C36.0819 155.113 36.1449 154.814 36.1449 154.503C36.1449 154.145 36.0587 153.835 35.8864 153.573C35.7173 153.311 35.4853 153.109 35.1903 152.967C34.8954 152.824 34.5639 152.753 34.196 152.753C33.8049 152.753 33.4635 152.834 33.1719 152.996C32.8835 153.156 32.6598 153.379 32.5007 153.668C32.3449 153.956 32.267 154.294 32.267 154.682H31.0938C31.0938 154.085 31.2313 153.562 31.5064 153.111C31.7815 152.66 32.156 152.309 32.63 152.057C33.1072 151.805 33.6425 151.679 34.2358 151.679C34.8324 151.679 35.361 151.805 35.8217 152.057C36.2824 152.309 36.6437 152.648 36.9055 153.076C37.1674 153.504 37.2983 153.979 37.2983 154.503C37.2983 154.877 37.2304 155.244 37.0945 155.602C36.9619 155.956 36.7299 156.352 36.3984 156.79C36.0703 157.224 35.6146 157.754 35.0312 158.381L32.7443 160.827V160.906H37.4773V162H31.054ZM42.8516 162.139C42.1025 162.139 41.4645 161.935 40.9375 161.528C40.4105 161.117 40.0078 160.522 39.7294 159.743C39.451 158.961 39.3118 158.016 39.3118 156.909C39.3118 155.809 39.451 154.869 39.7294 154.09C40.0111 153.308 40.4155 152.711 40.9425 152.3C41.4728 151.886 42.1091 151.679 42.8516 151.679C43.594 151.679 44.2287 151.886 44.7557 152.3C45.286 152.711 45.6903 153.308 45.9688 154.09C46.2505 154.869 46.3913 155.809 46.3913 156.909C46.3913 158.016 46.2521 158.961 45.9737 159.743C45.6953 160.522 45.2926 161.117 44.7656 161.528C44.2386 161.935 43.6006 162.139 42.8516 162.139ZM42.8516 161.045C43.594 161.045 44.1707 160.687 44.5817 159.972C44.9927 159.256 45.1982 158.235 45.1982 156.909C45.1982 156.027 45.1037 155.277 44.9148 154.657C44.7292 154.037 44.4607 153.565 44.1094 153.24C43.7614 152.915 43.3421 152.753 42.8516 152.753C42.1158 152.753 41.5407 153.116 41.1264 153.842C40.7121 154.564 40.505 155.587 40.505 156.909C40.505 157.791 40.5978 158.54 40.7834 159.156C40.969 159.773 41.2358 160.242 41.5838 160.563C41.9351 160.885 42.3577 161.045 42.8516 161.045ZM49.4737 157.406V162H48.3004V151.818H49.4737V155.557H49.5732C49.7521 155.162 50.0206 154.849 50.3786 154.617C50.7398 154.382 51.2204 154.264 51.8203 154.264C52.3407 154.264 52.7964 154.369 53.1875 154.577C53.5786 154.783 53.8819 155.099 54.0973 155.527C54.3161 155.951 54.4254 156.491 54.4254 157.148V162H53.2521V157.227C53.2521 156.621 53.0947 156.152 52.7798 155.82C52.4683 155.486 52.0357 155.318 51.4822 155.318C51.0978 155.318 50.7531 155.399 50.4482 155.562C50.1465 155.724 49.9079 155.961 49.7322 156.273C49.5599 156.584 49.4737 156.962 49.4737 157.406ZM56.5719 162V154.364H57.7054V155.517H57.785C57.9242 155.139 58.1761 154.833 58.5407 154.597C58.9052 154.362 59.3162 154.244 59.7736 154.244C59.8598 154.244 59.9675 154.246 60.0968 154.249C60.226 154.253 60.3238 154.258 60.3901 154.264V155.457C60.3503 155.447 60.2592 155.433 60.1167 155.413C59.9775 155.389 59.83 155.378 59.6742 155.378C59.303 155.378 58.9715 155.456 58.6799 155.612C58.3915 155.764 58.1628 155.976 57.9938 156.248C57.8281 156.516 57.7452 156.823 57.7452 157.168V162H56.5719ZM69.0195 162.139C68.2705 162.139 67.6325 161.935 67.1055 161.528C66.5785 161.117 66.1758 160.522 65.8974 159.743C65.619 158.961 65.4798 158.016 65.4798 156.909C65.4798 155.809 65.619 154.869 65.8974 154.09C66.1791 153.308 66.5835 152.711 67.1104 152.3C67.6407 151.886 68.2771 151.679 69.0195 151.679C69.762 151.679 70.3967 151.886 70.9237 152.3C71.454 152.711 71.8583 153.308 72.1367 154.09C72.4184 154.869 72.5593 155.809 72.5593 156.909C72.5593 158.016 72.4201 158.961 72.1417 159.743C71.8633 160.522 71.4606 161.117 70.9336 161.528C70.4066 161.935 69.7686 162.139 69.0195 162.139ZM69.0195 161.045C69.762 161.045 70.3387 160.687 70.7496 159.972C71.1606 159.256 71.3661 158.235 71.3661 156.909C71.3661 156.027 71.2717 155.277 71.0827 154.657C70.8971 154.037 70.6287 153.565 70.2773 153.24C69.9293 152.915 69.5101 152.753 69.0195 152.753C68.2837 152.753 67.7087 153.116 67.2944 153.842C66.8801 154.564 66.6729 155.587 66.6729 156.909C66.6729 157.791 66.7657 158.54 66.9513 159.156C67.137 159.773 67.4038 160.242 67.7518 160.563C68.1031 160.885 68.5257 161.045 69.0195 161.045ZM77.7695 162.139C77.0205 162.139 76.3825 161.935 75.8555 161.528C75.3285 161.117 74.9258 160.522 74.6474 159.743C74.369 158.961 74.2298 158.016 74.2298 156.909C74.2298 155.809 74.369 154.869 74.6474 154.09C74.9291 153.308 75.3335 152.711 75.8604 152.3C76.3907 151.886 77.0271 151.679 77.7695 151.679C78.512 151.679 79.1467 151.886 79.6737 152.3C80.204 152.711 80.6083 153.308 80.8867 154.09C81.1684 154.869 81.3093 155.809 81.3093 156.909C81.3093 158.016 81.1701 158.961 80.8917 159.743C80.6133 160.522 80.2106 161.117 79.6836 161.528C79.1566 161.935 78.5186 162.139 77.7695 162.139ZM77.7695 161.045C78.512 161.045 79.0887 160.687 79.4996 159.972C79.9106 159.256 80.1161 158.235 80.1161 156.909C80.1161 156.027 80.0217 155.277 79.8327 154.657C79.6471 154.037 79.3787 153.565 79.0273 153.24C78.6793 152.915 78.2601 152.753 77.7695 152.753C77.0337 152.753 76.4587 153.116 76.0444 153.842C75.6301 154.564 75.4229 155.587 75.4229 156.909C75.4229 157.791 75.5157 158.54 75.7013 159.156C75.887 159.773 76.1538 160.242 76.5018 160.563C76.8531 160.885 77.2757 161.045 77.7695 161.045ZM83.2184 162V154.364H84.3519V155.557H84.4513C84.6104 155.149 84.8673 154.833 85.2219 154.607C85.5766 154.379 86.0025 154.264 86.4996 154.264C87.0034 154.264 87.4227 154.379 87.7575 154.607C88.0955 154.833 88.359 155.149 88.5479 155.557H88.6275C88.823 155.162 89.1164 154.849 89.5075 154.617C89.8986 154.382 90.3675 154.264 90.9144 154.264C91.5972 154.264 92.1557 154.478 92.5898 154.906C93.024 155.33 93.2411 155.991 93.2411 156.889V162H92.0678V156.889C92.0678 156.326 91.9137 155.923 91.6055 155.681C91.2972 155.439 90.9343 155.318 90.5167 155.318C89.9798 155.318 89.5638 155.481 89.2688 155.805C88.9738 156.127 88.8263 156.535 88.8263 157.028V162H87.6332V156.77C87.6332 156.336 87.4923 155.986 87.2106 155.721C86.9289 155.452 86.5659 155.318 86.1218 155.318C85.8169 155.318 85.5318 155.399 85.2667 155.562C85.0049 155.724 84.7927 155.95 84.6303 156.238C84.4712 156.523 84.3917 156.853 84.3917 157.227V162H83.2184ZM95.3864 162V154.364H96.5597V162H95.3864ZM95.983 153.091C95.7543 153.091 95.5571 153.013 95.3913 152.857C95.2289 152.701 95.1477 152.514 95.1477 152.295C95.1477 152.077 95.2289 151.889 95.3913 151.734C95.5571 151.578 95.7543 151.5 95.983 151.5C96.2116 151.5 96.4072 151.578 96.5696 151.734C96.7353 151.889 96.8182 152.077 96.8182 152.295C96.8182 152.514 96.7353 152.701 96.5696 152.857C96.4072 153.013 96.2116 153.091 95.983 153.091ZM99.8819 157.406V162H98.7086V154.364H99.8422V155.557H99.9416C100.121 155.169 100.392 154.857 100.757 154.622C101.122 154.384 101.592 154.264 102.169 154.264C102.686 154.264 103.138 154.37 103.526 154.582C103.914 154.791 104.215 155.109 104.431 155.537C104.646 155.961 104.754 156.498 104.754 157.148V162H103.581V157.227C103.581 156.627 103.425 156.16 103.113 155.825C102.802 155.487 102.374 155.318 101.831 155.318C101.456 155.318 101.122 155.399 100.827 155.562C100.535 155.724 100.305 155.961 100.135 156.273C99.9664 156.584 99.8819 156.962 99.8819 157.406Z" fill="#312A53"/>
<path d="M150.233 162V151.818H151.466V160.906H156.199V162H150.233ZM157.949 162V154.364H159.122V162H157.949ZM158.545 153.091C158.317 153.091 158.12 153.013 157.954 152.857C157.791 152.701 157.71 152.514 157.71 152.295C157.71 152.077 157.791 151.889 157.954 151.734C158.12 151.578 158.317 151.5 158.545 151.5C158.774 151.5 158.97 151.578 159.132 151.734C159.298 151.889 159.381 152.077 159.381 152.295C159.381 152.514 159.298 152.701 159.132 152.857C158.97 153.013 158.774 153.091 158.545 153.091ZM167.515 154.364L164.692 162H163.498L160.675 154.364H161.947L164.055 160.449H164.135L166.243 154.364H167.515ZM171.992 162.159C171.257 162.159 170.622 161.997 170.088 161.672C169.558 161.344 169.149 160.886 168.86 160.3C168.575 159.71 168.433 159.024 168.433 158.241C168.433 157.459 168.575 156.77 168.86 156.173C169.149 155.573 169.55 155.106 170.063 154.771C170.58 154.433 171.184 154.264 171.873 154.264C172.271 154.264 172.664 154.33 173.051 154.463C173.439 154.596 173.792 154.811 174.11 155.109C174.428 155.404 174.682 155.795 174.871 156.283C175.06 156.77 175.154 157.37 175.154 158.082V158.58H169.268V157.565H173.961C173.961 157.134 173.875 156.75 173.703 156.412C173.534 156.074 173.292 155.807 172.977 155.612C172.665 155.416 172.297 155.318 171.873 155.318C171.406 155.318 171.001 155.434 170.66 155.666C170.322 155.895 170.062 156.193 169.879 156.561C169.697 156.929 169.606 157.323 169.606 157.744V158.42C169.606 158.997 169.705 159.486 169.904 159.887C170.106 160.285 170.387 160.588 170.744 160.797C171.102 161.002 171.518 161.105 171.992 161.105C172.301 161.105 172.579 161.062 172.828 160.976C173.079 160.886 173.297 160.754 173.479 160.578C173.661 160.399 173.802 160.177 173.901 159.912L175.035 160.23C174.916 160.615 174.715 160.953 174.433 161.244C174.152 161.533 173.804 161.758 173.389 161.92C172.975 162.08 172.509 162.159 171.992 162.159ZM189.229 155H187.996C187.923 154.645 187.795 154.334 187.613 154.065C187.434 153.797 187.215 153.571 186.957 153.389C186.702 153.204 186.418 153.064 186.107 152.972C185.795 152.879 185.47 152.832 185.132 152.832C184.516 152.832 183.957 152.988 183.457 153.3C182.96 153.611 182.564 154.07 182.269 154.677C181.977 155.283 181.831 156.027 181.831 156.909C181.831 157.791 181.977 158.535 182.269 159.141C182.564 159.748 182.96 160.207 183.457 160.518C183.957 160.83 184.516 160.986 185.132 160.986C185.47 160.986 185.795 160.939 186.107 160.847C186.418 160.754 186.702 160.616 186.957 160.434C187.215 160.248 187.434 160.021 187.613 159.753C187.795 159.481 187.923 159.17 187.996 158.818H189.229C189.136 159.339 188.967 159.804 188.722 160.215C188.477 160.626 188.172 160.976 187.807 161.264C187.442 161.549 187.033 161.766 186.579 161.915C186.128 162.065 185.646 162.139 185.132 162.139C184.264 162.139 183.492 161.927 182.816 161.503C182.139 161.079 181.607 160.475 181.22 159.693C180.832 158.911 180.638 157.983 180.638 156.909C180.638 155.835 180.832 154.907 181.22 154.125C181.607 153.343 182.139 152.74 182.816 152.315C183.492 151.891 184.264 151.679 185.132 151.679C185.646 151.679 186.128 151.754 186.579 151.903C187.033 152.052 187.442 152.271 187.807 152.559C188.172 152.844 188.477 153.192 188.722 153.603C188.967 154.011 189.136 154.476 189.229 155ZM192.235 151.818V162H191.062V151.818H192.235ZM196.632 162.179C196.148 162.179 195.709 162.088 195.314 161.906C194.92 161.72 194.606 161.453 194.374 161.105C194.142 160.754 194.026 160.33 194.026 159.832C194.026 159.395 194.113 159.04 194.285 158.768C194.457 158.493 194.688 158.278 194.976 158.122C195.264 157.966 195.583 157.85 195.931 157.774C196.282 157.695 196.635 157.632 196.99 157.585C197.454 157.526 197.83 157.481 198.118 157.451C198.41 157.418 198.622 157.363 198.754 157.287C198.89 157.211 198.958 157.078 198.958 156.889V156.849C198.958 156.359 198.824 155.978 198.556 155.706C198.29 155.434 197.888 155.298 197.347 155.298C196.787 155.298 196.348 155.421 196.03 155.666C195.712 155.911 195.488 156.173 195.359 156.452L194.245 156.054C194.444 155.59 194.709 155.229 195.041 154.97C195.375 154.708 195.74 154.526 196.134 154.423C196.532 154.317 196.923 154.264 197.308 154.264C197.553 154.264 197.835 154.294 198.153 154.354C198.474 154.41 198.784 154.528 199.083 154.707C199.384 154.886 199.634 155.156 199.833 155.517C200.032 155.878 200.132 156.362 200.132 156.969V162H198.958V160.966H198.899C198.819 161.132 198.686 161.309 198.501 161.498C198.315 161.687 198.068 161.848 197.76 161.98C197.452 162.113 197.076 162.179 196.632 162.179ZM196.811 161.125C197.275 161.125 197.666 161.034 197.984 160.852C198.305 160.669 198.547 160.434 198.71 160.146C198.875 159.857 198.958 159.554 198.958 159.236V158.162C198.909 158.222 198.799 158.276 198.63 158.326C198.464 158.372 198.272 158.414 198.053 158.45C197.838 158.483 197.628 158.513 197.422 158.54C197.22 158.563 197.056 158.583 196.93 158.599C196.625 158.639 196.34 158.704 196.075 158.793C195.813 158.879 195.601 159.01 195.438 159.186C195.279 159.358 195.2 159.594 195.2 159.892C195.2 160.3 195.351 160.608 195.652 160.817C195.957 161.022 196.343 161.125 196.811 161.125ZM207.682 156.074L206.628 156.372C206.562 156.196 206.464 156.026 206.335 155.86C206.209 155.691 206.037 155.552 205.818 155.442C205.599 155.333 205.319 155.278 204.978 155.278C204.51 155.278 204.121 155.386 203.809 155.602C203.501 155.814 203.347 156.084 203.347 156.412C203.347 156.704 203.453 156.934 203.665 157.103C203.877 157.272 204.209 157.413 204.659 157.526L205.793 157.804C206.476 157.97 206.984 158.223 207.319 158.565C207.654 158.903 207.821 159.339 207.821 159.872C207.821 160.31 207.695 160.701 207.444 161.045C207.195 161.39 206.847 161.662 206.4 161.861C205.952 162.06 205.432 162.159 204.838 162.159C204.06 162.159 203.415 161.99 202.904 161.652C202.394 161.314 202.071 160.82 201.935 160.17L203.049 159.892C203.155 160.303 203.355 160.611 203.65 160.817C203.949 161.022 204.338 161.125 204.819 161.125C205.365 161.125 205.8 161.009 206.121 160.777C206.446 160.542 206.608 160.26 206.608 159.932C206.608 159.667 206.516 159.445 206.33 159.266C206.144 159.083 205.859 158.947 205.475 158.858L204.202 158.56C203.503 158.394 202.989 158.137 202.661 157.789C202.336 157.438 202.174 156.999 202.174 156.472C202.174 156.041 202.295 155.66 202.537 155.328C202.782 154.997 203.115 154.737 203.536 154.548C203.96 154.359 204.441 154.264 204.978 154.264C205.733 154.264 206.327 154.43 206.757 154.761C207.192 155.093 207.5 155.53 207.682 156.074ZM214.997 156.074L213.943 156.372C213.876 156.196 213.779 156.026 213.649 155.86C213.523 155.691 213.351 155.552 213.132 155.442C212.914 155.333 212.633 155.278 212.292 155.278C211.825 155.278 211.435 155.386 211.124 155.602C210.816 155.814 210.661 156.084 210.661 156.412C210.661 156.704 210.767 156.934 210.98 157.103C211.192 157.272 211.523 157.413 211.974 157.526L213.107 157.804C213.79 157.97 214.299 158.223 214.634 158.565C214.968 158.903 215.136 159.339 215.136 159.872C215.136 160.31 215.01 160.701 214.758 161.045C214.509 161.39 214.161 161.662 213.714 161.861C213.267 162.06 212.746 162.159 212.153 162.159C211.374 162.159 210.729 161.99 210.219 161.652C209.709 161.314 209.385 160.82 209.249 160.17L210.363 159.892C210.469 160.303 210.67 160.611 210.965 160.817C211.263 161.022 211.652 161.125 212.133 161.125C212.68 161.125 213.114 161.009 213.436 160.777C213.76 160.542 213.923 160.26 213.923 159.932C213.923 159.667 213.83 159.445 213.644 159.266C213.459 159.083 213.174 158.947 212.789 158.858L211.517 158.56C210.817 158.394 210.303 158.137 209.975 157.789C209.651 157.438 209.488 156.999 209.488 156.472C209.488 156.041 209.609 155.66 209.851 155.328C210.096 154.997 210.429 154.737 210.85 154.548C211.275 154.359 211.755 154.264 212.292 154.264C213.048 154.264 213.641 154.43 214.072 154.761C214.506 155.093 214.814 155.53 214.997 156.074Z" fill="#312A53"/>
<path d="M264.634 151.818V162H263.401V153.111H263.341L260.855 154.761V153.509L263.401 151.818H264.634ZM271.141 151.818V162H269.908V153.111H269.849L267.363 154.761V153.509L269.908 151.818H271.141ZM274.07 162V161.105L277.43 157.426C277.825 156.995 278.15 156.621 278.405 156.303C278.66 155.981 278.849 155.679 278.972 155.398C279.098 155.113 279.161 154.814 279.161 154.503C279.161 154.145 279.074 153.835 278.902 153.573C278.733 153.311 278.501 153.109 278.206 152.967C277.911 152.824 277.58 152.753 277.212 152.753C276.821 152.753 276.479 152.834 276.188 152.996C275.899 153.156 275.675 153.379 275.516 153.668C275.361 153.956 275.283 154.294 275.283 154.682H274.109C274.109 154.085 274.247 153.562 274.522 153.111C274.797 152.66 275.172 152.309 275.646 152.057C276.123 151.805 276.658 151.679 277.251 151.679C277.848 151.679 278.377 151.805 278.837 152.057C279.298 152.309 279.659 152.648 279.921 153.076C280.183 153.504 280.314 153.979 280.314 154.503C280.314 154.877 280.246 155.244 280.11 155.602C279.978 155.956 279.746 156.352 279.414 156.79C279.086 157.224 278.63 157.754 278.047 158.381L275.76 160.827V160.906H280.493V162H274.07ZM291.913 156.074L290.859 156.372C290.792 156.196 290.695 156.026 290.565 155.86C290.439 155.691 290.267 155.552 290.048 155.442C289.83 155.333 289.549 155.278 289.208 155.278C288.741 155.278 288.351 155.386 288.04 155.602C287.732 155.814 287.577 156.084 287.577 156.412C287.577 156.704 287.683 156.934 287.896 157.103C288.108 157.272 288.439 157.413 288.89 157.526L290.023 157.804C290.706 157.97 291.215 158.223 291.55 158.565C291.884 158.903 292.052 159.339 292.052 159.872C292.052 160.31 291.926 160.701 291.674 161.045C291.425 161.39 291.077 161.662 290.63 161.861C290.183 162.06 289.662 162.159 289.069 162.159C288.29 162.159 287.645 161.99 287.135 161.652C286.625 161.314 286.301 160.82 286.165 160.17L287.279 159.892C287.385 160.303 287.586 160.611 287.881 160.817C288.179 161.022 288.568 161.125 289.049 161.125C289.596 161.125 290.03 161.009 290.352 160.777C290.676 160.542 290.839 160.26 290.839 159.932C290.839 159.667 290.746 159.445 290.56 159.266C290.375 159.083 290.09 158.947 289.705 158.858L288.433 158.56C287.733 158.394 287.219 158.137 286.891 157.789C286.567 157.438 286.404 156.999 286.404 156.472C286.404 156.041 286.525 155.66 286.767 155.328C287.012 154.997 287.345 154.737 287.766 154.548C288.191 154.359 288.671 154.264 289.208 154.264C289.964 154.264 290.557 154.43 290.988 154.761C291.422 155.093 291.73 155.53 291.913 156.074ZM296.065 162.179C295.581 162.179 295.142 162.088 294.748 161.906C294.353 161.72 294.04 161.453 293.808 161.105C293.576 160.754 293.46 160.33 293.46 159.832C293.46 159.395 293.546 159.04 293.719 158.768C293.891 158.493 294.121 158.278 294.41 158.122C294.698 157.966 295.016 157.85 295.364 157.774C295.715 157.695 296.068 157.632 296.423 157.585C296.887 157.526 297.263 157.481 297.552 157.451C297.843 157.418 298.055 157.363 298.188 157.287C298.324 157.211 298.392 157.078 298.392 156.889V156.849C298.392 156.359 298.258 155.978 297.989 155.706C297.724 155.434 297.321 155.298 296.781 155.298C296.221 155.298 295.782 155.421 295.464 155.666C295.145 155.911 294.922 156.173 294.792 156.452L293.679 156.054C293.878 155.59 294.143 155.229 294.474 154.97C294.809 154.708 295.174 154.526 295.568 154.423C295.966 154.317 296.357 154.264 296.741 154.264C296.987 154.264 297.268 154.294 297.586 154.354C297.908 154.41 298.218 154.528 298.516 154.707C298.818 154.886 299.068 155.156 299.267 155.517C299.466 155.878 299.565 156.362 299.565 156.969V162H298.392V160.966H298.332C298.253 161.132 298.12 161.309 297.934 161.498C297.749 161.687 297.502 161.848 297.194 161.98C296.885 162.113 296.509 162.179 296.065 162.179ZM296.244 161.125C296.708 161.125 297.099 161.034 297.417 160.852C297.739 160.669 297.981 160.434 298.143 160.146C298.309 159.857 298.392 159.554 298.392 159.236V158.162C298.342 158.222 298.233 158.276 298.064 158.326C297.898 158.372 297.706 158.414 297.487 158.45C297.272 158.483 297.061 158.513 296.856 158.54C296.653 158.563 296.489 158.583 296.363 158.599C296.059 158.639 295.773 158.704 295.508 158.793C295.247 158.879 295.034 159.01 294.872 159.186C294.713 159.358 294.633 159.594 294.633 159.892C294.633 160.3 294.784 160.608 295.086 160.817C295.391 161.022 295.777 161.125 296.244 161.125ZM302.88 151.818V162H301.707V151.818H302.88ZM308.231 162.159C307.495 162.159 306.86 161.997 306.327 161.672C305.796 161.344 305.387 160.886 305.099 160.3C304.814 159.71 304.671 159.024 304.671 158.241C304.671 157.459 304.814 156.77 305.099 156.173C305.387 155.573 305.788 155.106 306.302 154.771C306.819 154.433 307.422 154.264 308.111 154.264C308.509 154.264 308.902 154.33 309.29 154.463C309.677 154.596 310.03 154.811 310.349 155.109C310.667 155.404 310.92 155.795 311.109 156.283C311.298 156.77 311.393 157.37 311.393 158.082V158.58H305.506V157.565H310.199C310.199 157.134 310.113 156.75 309.941 156.412C309.772 156.074 309.53 155.807 309.215 155.612C308.903 155.416 308.536 155.318 308.111 155.318C307.644 155.318 307.24 155.434 306.898 155.666C306.56 155.895 306.3 156.193 306.118 156.561C305.935 156.929 305.844 157.323 305.844 157.744V158.42C305.844 158.997 305.944 159.486 306.143 159.887C306.345 160.285 306.625 160.588 306.983 160.797C307.341 161.002 307.757 161.105 308.231 161.105C308.539 161.105 308.817 161.062 309.066 160.976C309.318 160.886 309.535 160.754 309.717 160.578C309.899 160.399 310.04 160.177 310.14 159.912L311.273 160.23C311.154 160.615 310.953 160.953 310.672 161.244C310.39 161.533 310.042 161.758 309.628 161.92C309.213 162.08 308.748 162.159 308.231 162.159ZM318.586 156.074L317.532 156.372C317.466 156.196 317.368 156.026 317.239 155.86C317.113 155.691 316.941 155.552 316.722 155.442C316.503 155.333 316.223 155.278 315.882 155.278C315.415 155.278 315.025 155.386 314.714 155.602C314.405 155.814 314.251 156.084 314.251 156.412C314.251 156.704 314.357 156.934 314.569 157.103C314.782 157.272 315.113 157.413 315.564 157.526L316.697 157.804C317.38 157.97 317.889 158.223 318.224 158.565C318.558 158.903 318.726 159.339 318.726 159.872C318.726 160.31 318.6 160.701 318.348 161.045C318.099 161.39 317.751 161.662 317.304 161.861C316.856 162.06 316.336 162.159 315.743 162.159C314.964 162.159 314.319 161.99 313.809 161.652C313.298 161.314 312.975 160.82 312.839 160.17L313.953 159.892C314.059 160.303 314.26 160.611 314.555 160.817C314.853 161.022 315.242 161.125 315.723 161.125C316.27 161.125 316.704 161.009 317.025 160.777C317.35 160.542 317.513 160.26 317.513 159.932C317.513 159.667 317.42 159.445 317.234 159.266C317.049 159.083 316.764 158.947 316.379 158.858L315.106 158.56C314.407 158.394 313.893 158.137 313.565 157.789C313.24 157.438 313.078 156.999 313.078 156.472C313.078 156.041 313.199 155.66 313.441 155.328C313.686 154.997 314.019 154.737 314.44 154.548C314.864 154.359 315.345 154.264 315.882 154.264C316.638 154.264 317.231 154.43 317.662 154.761C318.096 155.093 318.404 155.53 318.586 156.074Z" fill="#312A53"/>
<g clip-path="url(#clip1_1_182)">
<path d="M136 155L140.553 152.724C140.705 152.648 140.875 152.612 141.045 152.62C141.215 152.627 141.381 152.678 141.526 152.768C141.671 152.857 141.79 152.982 141.873 153.131C141.956 153.28 142 153.448 142 153.618V160.382C142 160.552 141.956 160.72 141.873 160.869C141.79 161.018 141.671 161.143 141.526 161.232C141.381 161.322 141.215 161.373 141.045 161.38C140.875 161.388 140.705 161.352 140.553 161.276L136 159V155Z" stroke="#85D1A0" stroke-width="1.5" stroke-linecap="round" stroke-linejoin="round"/>
<path d="M134 151H126C124.895 151 124 151.895 124 153V161C124 162.105 124.895 163 126 163H134C135.105 163 136 162.105 136 161V153C136 151.895 135.105 151 134 151Z" stroke="#85D1A0" stroke-width="1.5" stroke-linecap="round" stroke-linejoin="round"/>
</g>
<g clip-path="url(#clip2_1_182)">
<path d="M251 163C251.928 163 252.818 162.631 253.475 161.975C254.131 161.318 254.5 160.428 254.5 159.5C254.5 158.572 254.131 157.682 253.475 157.025C252.818 156.369 251.928 156 251 156H250C250.146 155.35 250.148 154.68 250.007 154.03C249.865 153.379 249.582 152.759 249.175 152.207C248.767 151.654 248.243 151.18 247.631 150.809C247.02 150.439 246.333 150.181 245.611 150.05C244.889 149.919 244.145 149.917 243.422 150.044C242.699 150.172 242.01 150.426 241.397 150.793C240.157 151.533 239.295 152.687 239 154C237.934 153.957 236.886 154.27 236.034 154.886C235.183 155.501 234.582 156.38 234.334 157.373C234.086 158.365 234.206 159.41 234.674 160.327C235.142 161.244 235.929 161.977 236.9 162.4" stroke="#85D1A0" stroke-width="1.5" stroke-linecap="round" stroke-linejoin="round"/>
<path d="M244 158V167" stroke="#85D1A0" stroke-width="1.5" stroke-linecap="round" stroke-linejoin="round"/>
<path d="M241 164L244 167L247 164" stroke="#85D1A0" stroke-width="1.5" stroke-linecap="round" stroke-linejoin="round"/>
</g>
<rect x="0.5" y="192.5" width="96" height="40" rx="5.5" stroke="#312A53"/>
<path d="M20.4386 207.091H22.0792V214.825C22.0792 215.525 21.9407 216.123 21.6637 216.62C21.3903 217.118 21.005 217.498 20.5078 217.76C20.0107 218.02 19.4283 218.149 18.7607 218.149C18.1463 218.149 17.5941 218.037 17.104 217.814C16.6175 217.59 16.2322 217.265 15.9482 216.839C15.6676 216.409 15.5273 215.887 15.5273 215.273H17.1626C17.1626 215.575 17.2319 215.836 17.3704 216.056C17.5124 216.276 17.706 216.448 17.951 216.572C18.1996 216.693 18.4837 216.754 18.8033 216.754C19.1513 216.754 19.446 216.681 19.6875 216.535C19.9325 216.386 20.119 216.168 20.2468 215.88C20.3746 215.592 20.4386 215.241 20.4386 214.825V207.091ZM27.7934 218.165C27.0264 218.165 26.357 217.989 25.7852 217.638C25.2135 217.286 24.7696 216.794 24.4536 216.162C24.1375 215.53 23.9795 214.792 23.9795 213.946C23.9795 213.098 24.1375 212.355 24.4536 211.72C24.7696 211.084 25.2135 210.591 25.7852 210.239C26.357 209.887 27.0264 209.712 27.7934 209.712C28.5605 209.712 29.2298 209.887 29.8016 210.239C30.3733 210.591 30.8172 211.084 31.1333 211.72C31.4493 212.355 31.6073 213.098 31.6073 213.946C31.6073 214.792 31.4493 215.53 31.1333 216.162C30.8172 216.794 30.3733 217.286 29.8016 217.638C29.2298 217.989 28.5605 218.165 27.7934 218.165ZM27.7987 216.828C28.2959 216.828 28.7078 216.697 29.0345 216.434C29.3612 216.171 29.6027 215.821 29.759 215.385C29.9188 214.948 29.9987 214.467 29.9987 213.941C29.9987 213.419 29.9188 212.94 29.759 212.503C29.6027 212.062 29.3612 211.709 29.0345 211.443C28.7078 211.176 28.2959 211.043 27.7987 211.043C27.298 211.043 26.8825 211.176 26.5523 211.443C26.2256 211.709 25.9823 212.062 25.8225 212.503C25.6663 212.94 25.5882 213.419 25.5882 213.941C25.5882 214.467 25.6663 214.948 25.8225 215.385C25.9823 215.821 26.2256 216.171 26.5523 216.434C26.8825 216.697 27.298 216.828 27.7987 216.828ZM33.3851 218V209.818H34.9778V218H33.3851ZM34.1895 208.556C33.9125 208.556 33.6745 208.463 33.4757 208.279C33.2804 208.091 33.1827 207.867 33.1827 207.608C33.1827 207.345 33.2804 207.121 33.4757 206.936C33.6745 206.748 33.9125 206.654 34.1895 206.654C34.4664 206.654 34.7026 206.748 34.8979 206.936C35.0968 207.121 35.1962 207.345 35.1962 207.608C35.1962 207.867 35.0968 208.091 34.8979 208.279C34.7026 208.463 34.4664 208.556 34.1895 208.556ZM38.7132 213.142V218H37.1205V209.818H38.6492V211.15H38.7504C38.9387 210.717 39.2334 210.369 39.6347 210.106C40.0395 209.843 40.5491 209.712 41.1634 209.712C41.721 209.712 42.2093 209.829 42.6283 210.063C43.0473 210.294 43.3722 210.638 43.6031 211.097C43.8339 211.555 43.9493 212.121 43.9493 212.796V218H42.3566V212.988C42.3566 212.395 42.2021 211.931 41.8932 211.597C41.5843 211.26 41.1599 211.091 40.6201 211.091C40.2508 211.091 39.9223 211.171 39.6347 211.331C39.3506 211.491 39.1251 211.725 38.9582 212.034C38.7948 212.339 38.7132 212.709 38.7132 213.142ZM58.9879 207.091V218H57.4751L51.93 209.999H51.8288V218H50.1829V207.091H51.7063L57.2567 215.102H57.358V207.091H58.9879ZM64.7075 218.165C63.9404 218.165 63.271 217.989 62.6993 217.638C62.1276 217.286 61.6837 216.794 61.3676 216.162C61.0516 215.53 60.8936 214.792 60.8936 213.946C60.8936 213.098 61.0516 212.355 61.3676 211.72C61.6837 211.084 62.1276 210.591 62.6993 210.239C63.271 209.887 63.9404 209.712 64.7075 209.712C65.4745 209.712 66.1439 209.887 66.7156 210.239C67.2874 210.591 67.7313 211.084 68.0473 211.72C68.3634 212.355 68.5214 213.098 68.5214 213.946C68.5214 214.792 68.3634 215.53 68.0473 216.162C67.7313 216.794 67.2874 217.286 66.7156 217.638C66.1439 217.989 65.4745 218.165 64.7075 218.165ZM64.7128 216.828C65.21 216.828 65.6219 216.697 65.9486 216.434C66.2753 216.171 66.5168 215.821 66.673 215.385C66.8328 214.948 66.9127 214.467 66.9127 213.941C66.9127 213.419 66.8328 212.94 66.673 212.503C66.5168 212.062 66.2753 211.709 65.9486 211.443C65.6219 211.176 65.21 211.043 64.7128 211.043C64.2121 211.043 63.7966 211.176 63.4664 211.443C63.1396 211.709 62.8964 212.062 62.7366 212.503C62.5803 212.94 62.5022 213.419 62.5022 213.941C62.5022 214.467 62.5803 214.948 62.7366 215.385C62.8964 215.821 63.1396 216.171 63.4664 216.434C63.7966 216.697 64.2121 216.828 64.7128 216.828ZM71.824 218L69.4163 209.818H71.0622L72.6656 215.827H72.7455L74.3541 209.818H76.0001L77.5981 215.8H77.678L79.2707 209.818H80.9166L78.5143 218H76.8896L75.2277 212.093H75.1052L73.4433 218H71.824Z" fill="#312A53"/>
<defs>
<clipPath id="clip0_1_182">
<rect width="24" height="24" fill="white" transform="translate(0 145)"/>
</clipPath>
<clipPath id="clip1_1_182">
<rect width="24" height="24" fill="white" transform="translate(121 145)"/>
</clipPath>
<clipPath id="clip2_1_182">
<rect width="24" height="24" fill="white" transform="translate(232 145)"/>
</clipPath>
</defs>
</svg>
