<svg width="322" height="233" viewBox="0 0 322 233" fill="none" xmlns="http://www.w3.org/2000/svg">
<path d="M9.53125 10.2756C9.45549 9.60322 9.14299 9.08239 8.59375 8.71307C8.04451 8.33902 7.35322 8.15199 6.51989 8.15199C5.9233 8.15199 5.4072 8.24669 4.97159 8.43608C4.53598 8.62074 4.19744 8.87642 3.95597 9.20312C3.71922 9.52509 3.60085 9.89205 3.60085 10.304C3.60085 10.6496 3.68134 10.9479 3.84233 11.1989C4.00805 11.4498 4.22349 11.6605 4.48864 11.831C4.75852 11.9967 5.04735 12.1364 5.35511 12.25C5.66288 12.3589 5.95881 12.4489 6.2429 12.5199L7.66335 12.8892C8.12737 13.0028 8.60322 13.1567 9.09091 13.3509C9.5786 13.545 10.0308 13.8007 10.4474 14.1179C10.8641 14.4351 11.2003 14.8281 11.456 15.2969C11.7164 15.7656 11.8466 16.3267 11.8466 16.9801C11.8466 17.804 11.6335 18.5355 11.2074 19.1747C10.786 19.8139 10.1728 20.3182 9.3679 20.6875C8.56771 21.0568 7.59943 21.2415 6.46307 21.2415C5.37405 21.2415 4.43182 21.0687 3.63636 20.723C2.84091 20.3774 2.21828 19.8873 1.76847 19.2528C1.31866 18.6136 1.07008 17.8561 1.02273 16.9801H3.22443C3.26705 17.5057 3.4375 17.9437 3.7358 18.294C4.03883 18.6397 4.42472 18.8977 4.89347 19.0682C5.36695 19.2339 5.88542 19.3168 6.44886 19.3168C7.06913 19.3168 7.62074 19.2197 8.10369 19.0256C8.59138 18.8267 8.97491 18.5521 9.25426 18.2017C9.53362 17.8466 9.6733 17.4323 9.6733 16.9588C9.6733 16.5279 9.55019 16.1752 9.30398 15.9006C9.0625 15.6259 8.73343 15.3987 8.31676 15.2188C7.90483 15.0388 7.43845 14.8802 6.91761 14.7429L5.19886 14.2741C4.03409 13.9569 3.1108 13.4905 2.42898 12.875C1.75189 12.2595 1.41335 11.4451 1.41335 10.4318C1.41335 9.59375 1.64063 8.86222 2.09517 8.23722C2.54972 7.61222 3.16525 7.12689 3.94176 6.78125C4.71828 6.43087 5.59422 6.25568 6.5696 6.25568C7.55445 6.25568 8.4233 6.4285 9.17614 6.77415C9.93371 7.11979 10.5303 7.59564 10.9659 8.2017C11.4015 8.80303 11.6288 9.49432 11.6477 10.2756H9.53125ZM19.391 10.0909V11.7955H13.4322V10.0909H19.391ZM15.0302 7.47727H17.1538V17.7969C17.1538 18.2088 17.2153 18.5189 17.3384 18.7273C17.4615 18.9309 17.6201 19.0705 17.8143 19.1463C18.0131 19.2173 18.2286 19.2528 18.4606 19.2528C18.631 19.2528 18.7802 19.241 18.908 19.2173C19.0359 19.1937 19.1353 19.1747 19.2063 19.1605L19.5898 20.9148C19.4667 20.9621 19.2915 21.0095 19.0643 21.0568C18.837 21.1089 18.5529 21.1373 18.212 21.142C17.6533 21.1515 17.1325 21.0521 16.6495 20.8438C16.1665 20.6354 15.7759 20.3134 15.4776 19.8778C15.1793 19.4422 15.0302 18.8954 15.0302 18.2372V7.47727ZM24.9148 21.2415C24.2235 21.2415 23.5985 21.1136 23.0398 20.858C22.4811 20.5975 22.0384 20.2211 21.7116 19.7287C21.3897 19.2363 21.2287 18.6326 21.2287 17.9176C21.2287 17.3021 21.3471 16.7955 21.5838 16.3977C21.8205 16 22.1402 15.6851 22.5426 15.4531C22.9451 15.2211 23.3949 15.0459 23.892 14.9276C24.3892 14.8092 24.8958 14.7192 25.4119 14.6577C26.0653 14.5819 26.5956 14.5204 27.0028 14.473C27.41 14.4209 27.706 14.3381 27.8906 14.2244C28.0753 14.1108 28.1676 13.9261 28.1676 13.6705V13.6207C28.1676 13.0005 27.9924 12.5199 27.642 12.179C27.2964 11.8381 26.7803 11.6676 26.0938 11.6676C25.3788 11.6676 24.8153 11.8262 24.4034 12.1435C23.9962 12.456 23.7145 12.804 23.5582 13.1875L21.5625 12.733C21.7992 12.0701 22.1449 11.535 22.5994 11.1278C23.0587 10.7159 23.5866 10.4176 24.1832 10.233C24.7798 10.0436 25.4072 9.94886 26.0653 9.94886C26.5009 9.94886 26.9626 10.0009 27.4503 10.1051C27.9427 10.2045 28.402 10.3892 28.8281 10.6591C29.259 10.929 29.6117 11.3149 29.8864 11.8168C30.161 12.3139 30.2983 12.9602 30.2983 13.7557V21H28.2244V19.5085H28.1392C28.0019 19.7831 27.7959 20.053 27.5213 20.3182C27.2467 20.5833 26.8939 20.8035 26.4631 20.9787C26.0322 21.1539 25.5161 21.2415 24.9148 21.2415ZM25.3764 19.5369C25.9635 19.5369 26.4654 19.4209 26.8821 19.1889C27.3035 18.9569 27.6231 18.6539 27.8409 18.2798C28.0634 17.901 28.1747 17.4962 28.1747 17.0653V15.6591C28.099 15.7348 27.9522 15.8059 27.7344 15.8722C27.5213 15.9337 27.2775 15.9882 27.0028 16.0355C26.7282 16.0781 26.4607 16.1184 26.2003 16.1562C25.9399 16.1894 25.7221 16.2178 25.5469 16.2415C25.1349 16.2936 24.7585 16.3812 24.4176 16.5043C24.0814 16.6274 23.8116 16.8049 23.608 17.0369C23.4091 17.2642 23.3097 17.5672 23.3097 17.946C23.3097 18.4716 23.5038 18.8693 23.892 19.1392C24.2803 19.4044 24.7751 19.5369 25.3764 19.5369ZM33.1268 21V10.0909H35.1793V11.8239H35.293C35.4918 11.2367 35.8422 10.7751 36.3441 10.4389C36.8507 10.098 37.4237 9.92756 38.0629 9.92756C38.1954 9.92756 38.3517 9.93229 38.5316 9.94176C38.7163 9.95123 38.8607 9.96307 38.9648 9.97727V12.0085C38.8796 11.9848 38.7281 11.9588 38.5103 11.9304C38.2925 11.8973 38.0747 11.8807 37.8569 11.8807C37.355 11.8807 36.9076 11.9872 36.5146 12.2003C36.1263 12.4086 35.8185 12.6998 35.5913 13.0739C35.364 13.4432 35.2504 13.8646 35.2504 14.3381V21H33.1268ZM46.5394 10.0909V11.7955H40.5806V10.0909H46.5394ZM42.1786 7.47727H44.3022V17.7969C44.3022 18.2088 44.3638 18.5189 44.4869 18.7273C44.61 18.9309 44.7686 19.0705 44.9627 19.1463C45.1616 19.2173 45.377 19.2528 45.609 19.2528C45.7795 19.2528 45.9286 19.241 46.0565 19.2173C46.1843 19.1937 46.2837 19.1747 46.3548 19.1605L46.7383 20.9148C46.6152 20.9621 46.44 21.0095 46.2127 21.0568C45.9854 21.1089 45.7013 21.1373 45.3604 21.142C44.8017 21.1515 44.2809 21.0521 43.7979 20.8438C43.315 20.6354 42.9244 20.3134 42.6261 19.8778C42.3278 19.4422 42.1786 18.8954 42.1786 18.2372V7.47727ZM48.8885 21V10.0909H51.0121V21H48.8885ZM49.9609 8.40767C49.5916 8.40767 49.2744 8.28456 49.0092 8.03835C48.7488 7.7874 48.6186 7.48911 48.6186 7.14347C48.6186 6.79309 48.7488 6.49479 49.0092 6.24858C49.2744 5.99763 49.5916 5.87216 49.9609 5.87216C50.3303 5.87216 50.6451 5.99763 50.9055 6.24858C51.1707 6.49479 51.3033 6.79309 51.3033 7.14347C51.3033 7.48911 51.1707 7.7874 50.9055 8.03835C50.6451 8.28456 50.3303 8.40767 49.9609 8.40767ZM55.9925 14.5227V21H53.869V10.0909H55.9073V11.8665H56.0423C56.2932 11.2888 56.6862 10.8248 57.2212 10.4744C57.761 10.1241 58.4405 9.94886 59.2596 9.94886C60.003 9.94886 60.654 10.1051 61.2127 10.4176C61.7714 10.7254 62.2047 11.1847 62.5124 11.7955C62.8202 12.4062 62.9741 13.1615 62.9741 14.0611V21H60.8505V14.3168C60.8505 13.526 60.6445 12.9081 60.2326 12.4631C59.8207 12.0133 59.2549 11.7884 58.5352 11.7884C58.0427 11.7884 57.6048 11.8949 57.2212 12.108C56.8424 12.321 56.5418 12.6335 56.3192 13.0455C56.1014 13.4527 55.9925 13.9451 55.9925 14.5227ZM70.396 25.3182C69.5295 25.3182 68.7837 25.2045 68.1587 24.9773C67.5385 24.75 67.0318 24.4493 66.6388 24.0753C66.2459 23.7012 65.9523 23.2917 65.7582 22.8466L67.5835 22.0938C67.7113 22.3021 67.8817 22.5223 68.0948 22.7543C68.3126 22.991 68.6062 23.1922 68.9755 23.358C69.3496 23.5237 69.8301 23.6065 70.4173 23.6065C71.2222 23.6065 71.8874 23.41 72.413 23.017C72.9386 22.6288 73.2013 22.0085 73.2013 21.1562V19.0114H73.0664C72.9386 19.2434 72.7539 19.5014 72.5124 19.7855C72.2757 20.0696 71.949 20.3158 71.5323 20.5241C71.1156 20.7325 70.5735 20.8366 69.9059 20.8366C69.0442 20.8366 68.2676 20.6354 67.5763 20.233C66.8898 19.8258 66.3453 19.2268 65.9428 18.4361C65.5451 17.6406 65.3462 16.6629 65.3462 15.5028C65.3462 14.3428 65.5427 13.3485 65.9357 12.5199C66.3335 11.6913 66.878 11.0568 67.5692 10.6165C68.2605 10.1714 69.0442 9.94886 69.9201 9.94886C70.5972 9.94886 71.1441 10.0625 71.5607 10.2898C71.9774 10.5123 72.3017 10.7727 72.5337 11.071C72.7705 11.3693 72.9528 11.6321 73.0806 11.8594H73.2369V10.0909H75.3178V21.2415C75.3178 22.179 75.1 22.9484 74.6644 23.5497C74.2288 24.151 73.6393 24.5961 72.896 24.8849C72.1573 25.1738 71.324 25.3182 70.396 25.3182ZM70.3746 19.0753C70.9854 19.0753 71.5015 18.9332 71.9229 18.6491C72.3491 18.3603 72.671 17.9484 72.8888 17.4134C73.1114 16.8736 73.2227 16.2273 73.2227 15.4744C73.2227 14.7405 73.1138 14.0942 72.896 13.5355C72.6781 12.9768 72.3585 12.5412 71.9371 12.2287C71.5157 11.9115 70.9949 11.7528 70.3746 11.7528C69.7354 11.7528 69.2028 11.9186 68.7766 12.25C68.3505 12.5767 68.0285 13.0218 67.8107 13.5852C67.5977 14.1487 67.4911 14.7784 67.4911 15.4744C67.4911 16.1894 67.6 16.8168 67.8178 17.3565C68.0356 17.8963 68.3576 18.3177 68.7837 18.6207C69.2146 18.9238 69.7449 19.0753 70.3746 19.0753ZM88.6506 10.0909V11.7955H82.4858V10.0909H88.6506ZM84.1761 21V8.8267C84.1761 8.14489 84.3253 7.57907 84.6236 7.12926C84.9219 6.67472 85.3172 6.33617 85.8097 6.11364C86.3021 5.88636 86.8371 5.77273 87.4148 5.77273C87.8409 5.77273 88.2055 5.80824 88.5085 5.87926C88.8116 5.94555 89.0365 6.0071 89.1832 6.06392L88.6861 7.78267C88.5866 7.75426 88.4588 7.72112 88.3026 7.68324C88.1463 7.64062 87.9569 7.61932 87.7344 7.61932C87.2183 7.61932 86.849 7.74716 86.6264 8.00284C86.4086 8.25852 86.2997 8.62784 86.2997 9.1108V21H84.1761ZM90.8416 21V10.0909H92.9652V21H90.8416ZM91.9141 8.40767C91.5447 8.40767 91.2275 8.28456 90.9624 8.03835C90.7019 7.7874 90.5717 7.48911 90.5717 7.14347C90.5717 6.79309 90.7019 6.49479 90.9624 6.24858C91.2275 5.99763 91.5447 5.87216 91.9141 5.87216C92.2834 5.87216 92.5982 5.99763 92.8587 6.24858C93.1238 6.49479 93.2564 6.79309 93.2564 7.14347C93.2564 7.48911 93.1238 7.7874 92.8587 8.03835C92.5982 8.28456 92.2834 8.40767 91.9141 8.40767ZM97.9457 14.5227V21H95.8221V10.0909H97.8604V11.8665H97.9954C98.2463 11.2888 98.6393 10.8248 99.1744 10.4744C99.7141 10.1241 100.394 9.94886 101.213 9.94886C101.956 9.94886 102.607 10.1051 103.166 10.4176C103.725 10.7254 104.158 11.1847 104.466 11.7955C104.773 12.4062 104.927 13.1615 104.927 14.0611V21H102.804V14.3168C102.804 13.526 102.598 12.9081 102.186 12.4631C101.774 12.0133 101.208 11.7884 100.488 11.7884C99.9959 11.7884 99.5579 11.8949 99.1744 12.108C98.7956 12.321 98.4949 12.6335 98.2724 13.0455C98.0546 13.4527 97.9457 13.9451 97.9457 14.5227ZM110.95 21.2415C110.259 21.2415 109.634 21.1136 109.075 20.858C108.516 20.5975 108.074 20.2211 107.747 19.7287C107.425 19.2363 107.264 18.6326 107.264 17.9176C107.264 17.3021 107.382 16.7955 107.619 16.3977C107.856 16 108.175 15.6851 108.578 15.4531C108.98 15.2211 109.43 15.0459 109.927 14.9276C110.424 14.8092 110.931 14.7192 111.447 14.6577C112.1 14.5819 112.631 14.5204 113.038 14.473C113.445 14.4209 113.741 14.3381 113.926 14.2244C114.11 14.1108 114.203 13.9261 114.203 13.6705V13.6207C114.203 13.0005 114.028 12.5199 113.677 12.179C113.332 11.8381 112.815 11.6676 112.129 11.6676C111.414 11.6676 110.85 11.8262 110.439 12.1435C110.031 12.456 109.75 12.804 109.593 13.1875L107.598 12.733C107.834 12.0701 108.18 11.535 108.635 11.1278C109.094 10.7159 109.622 10.4176 110.218 10.233C110.815 10.0436 111.442 9.94886 112.1 9.94886C112.536 9.94886 112.998 10.0009 113.485 10.1051C113.978 10.2045 114.437 10.3892 114.863 10.6591C115.294 10.929 115.647 11.3149 115.922 11.8168C116.196 12.3139 116.333 12.9602 116.333 13.7557V21H114.26V19.5085H114.174C114.037 19.7831 113.831 20.053 113.556 20.3182C113.282 20.5833 112.929 20.8035 112.498 20.9787C112.067 21.1539 111.551 21.2415 110.95 21.2415ZM111.412 19.5369C111.999 19.5369 112.501 19.4209 112.917 19.1889C113.339 18.9569 113.658 18.6539 113.876 18.2798C114.099 17.901 114.21 17.4962 114.21 17.0653V15.6591C114.134 15.7348 113.987 15.8059 113.77 15.8722C113.556 15.9337 113.313 15.9882 113.038 16.0355C112.763 16.0781 112.496 16.1184 112.235 16.1562C111.975 16.1894 111.757 16.2178 111.582 16.2415C111.17 16.2936 110.794 16.3812 110.453 16.5043C110.117 16.6274 109.847 16.8049 109.643 17.0369C109.444 17.2642 109.345 17.5672 109.345 17.946C109.345 18.4716 109.539 18.8693 109.927 19.1392C110.315 19.4044 110.81 19.5369 111.412 19.5369ZM121.286 14.5227V21H119.162V10.0909H121.2V11.8665H121.335C121.586 11.2888 121.979 10.8248 122.514 10.4744C123.054 10.1241 123.733 9.94886 124.553 9.94886C125.296 9.94886 125.947 10.1051 126.506 10.4176C127.064 10.7254 127.498 11.1847 127.805 11.7955C128.113 12.4062 128.267 13.1615 128.267 14.0611V21H126.143V14.3168C126.143 13.526 125.938 12.9081 125.526 12.4631C125.114 12.0133 124.548 11.7884 123.828 11.7884C123.336 11.7884 122.898 11.8949 122.514 12.108C122.135 12.321 121.835 12.6335 121.612 13.0455C121.394 13.4527 121.286 13.9451 121.286 14.5227ZM135.71 21.2202C134.654 21.2202 133.745 20.9811 132.983 20.5028C132.225 20.0199 131.643 19.3546 131.236 18.5071C130.829 17.6596 130.625 16.6889 130.625 15.5952C130.625 14.4872 130.833 13.5095 131.25 12.6619C131.667 11.8097 132.254 11.1444 133.011 10.6662C133.769 10.188 134.661 9.94886 135.689 9.94886C136.518 9.94886 137.256 10.1027 137.905 10.4105C138.554 10.7135 139.077 11.1397 139.474 11.6889C139.877 12.2382 140.116 12.8797 140.192 13.6136H138.125C138.011 13.1023 137.751 12.6619 137.344 12.2926C136.941 11.9233 136.402 11.7386 135.724 11.7386C135.133 11.7386 134.614 11.8949 134.169 12.2074C133.729 12.5152 133.385 12.9555 133.139 13.5284C132.893 14.0966 132.77 14.7689 132.77 15.5455C132.77 16.3409 132.891 17.0275 133.132 17.6051C133.374 18.1828 133.714 18.6302 134.155 18.9474C134.6 19.2647 135.123 19.4233 135.724 19.4233C136.127 19.4233 136.491 19.3499 136.818 19.2031C137.15 19.0516 137.427 18.8362 137.649 18.5568C137.876 18.2775 138.035 17.9413 138.125 17.5483H140.192C140.116 18.2538 139.886 18.8835 139.503 19.4375C139.119 19.9915 138.606 20.4271 137.962 20.7443C137.322 21.0616 136.572 21.2202 135.71 21.2202ZM147.164 21.2202C146.09 21.2202 145.164 20.9905 144.387 20.5312C143.616 20.0672 143.019 19.4162 142.598 18.5781C142.181 17.7353 141.973 16.7481 141.973 15.6165C141.973 14.4991 142.181 13.5142 142.598 12.6619C143.019 11.8097 143.606 11.1444 144.359 10.6662C145.117 10.188 146.002 9.94886 147.015 9.94886C147.631 9.94886 148.227 10.0507 148.805 10.2543C149.383 10.4579 149.901 10.7775 150.36 11.2131C150.82 11.6487 151.182 12.2145 151.447 12.9105C151.712 13.6018 151.845 14.4422 151.845 15.4318V16.1847H143.173V14.5938H149.764C149.764 14.035 149.65 13.5402 149.423 13.1094C149.196 12.6738 148.876 12.3305 148.464 12.0795C148.057 11.8286 147.579 11.7031 147.029 11.7031C146.433 11.7031 145.912 11.8499 145.467 12.1435C145.027 12.4323 144.686 12.8111 144.444 13.2798C144.208 13.7438 144.089 14.2481 144.089 14.7926V16.0355C144.089 16.7647 144.217 17.3849 144.473 17.8963C144.733 18.4077 145.095 18.7983 145.559 19.0682C146.023 19.3333 146.565 19.4659 147.186 19.4659C147.588 19.4659 147.955 19.4091 148.287 19.2955C148.618 19.1771 148.904 19.0019 149.146 18.7699C149.387 18.5379 149.572 18.2514 149.7 17.9105L151.71 18.2727C151.549 18.8646 151.26 19.383 150.843 19.8281C150.431 20.2685 149.913 20.6117 149.288 20.858C148.668 21.0994 147.96 21.2202 147.164 21.2202ZM164.686 10.0909V11.7955H158.521V10.0909H164.686ZM160.211 21V8.8267C160.211 8.14489 160.36 7.57907 160.659 7.12926C160.957 6.67472 161.352 6.33617 161.845 6.11364C162.337 5.88636 162.872 5.77273 163.45 5.77273C163.876 5.77273 164.241 5.80824 164.544 5.87926C164.847 5.94555 165.072 6.0071 165.218 6.06392L164.721 7.78267C164.622 7.75426 164.494 7.72112 164.338 7.68324C164.181 7.64062 163.992 7.61932 163.77 7.61932C163.253 7.61932 162.884 7.74716 162.662 8.00284C162.444 8.25852 162.335 8.62784 162.335 9.1108V21H160.211ZM171.042 21.2202C170.02 21.2202 169.127 20.9858 168.365 20.517C167.602 20.0483 167.011 19.3925 166.589 18.5497C166.168 17.7069 165.957 16.7221 165.957 15.5952C165.957 14.4635 166.168 13.474 166.589 12.6264C167.011 11.7789 167.602 11.1207 168.365 10.652C169.127 10.1832 170.02 9.94886 171.042 9.94886C172.065 9.94886 172.958 10.1832 173.72 10.652C174.482 11.1207 175.074 11.7789 175.495 12.6264C175.917 13.474 176.127 14.4635 176.127 15.5952C176.127 16.7221 175.917 17.7069 175.495 18.5497C175.074 19.3925 174.482 20.0483 173.72 20.517C172.958 20.9858 172.065 21.2202 171.042 21.2202ZM171.049 19.4375C171.712 19.4375 172.261 19.2623 172.697 18.9119C173.133 18.5616 173.455 18.0952 173.663 17.5128C173.876 16.9304 173.983 16.2888 173.983 15.5881C173.983 14.892 173.876 14.2528 173.663 13.6705C173.455 13.0833 173.133 12.6122 172.697 12.2571C172.261 11.902 171.712 11.7244 171.049 11.7244C170.382 11.7244 169.828 11.902 169.387 12.2571C168.952 12.6122 168.627 13.0833 168.414 13.6705C168.206 14.2528 168.102 14.892 168.102 15.5881C168.102 16.2888 168.206 16.9304 168.414 17.5128C168.627 18.0952 168.952 18.5616 169.387 18.9119C169.828 19.2623 170.382 19.4375 171.049 19.4375ZM178.498 21V10.0909H180.55V11.8239H180.664C180.863 11.2367 181.213 10.7751 181.715 10.4389C182.222 10.098 182.795 9.92756 183.434 9.92756C183.567 9.92756 183.723 9.93229 183.903 9.94176C184.087 9.95123 184.232 9.96307 184.336 9.97727V12.0085C184.251 11.9848 184.099 11.9588 183.881 11.9304C183.664 11.8973 183.446 11.8807 183.228 11.8807C182.726 11.8807 182.279 11.9872 181.886 12.2003C181.497 12.4086 181.19 12.6998 180.962 13.0739C180.735 13.4432 180.621 13.8646 180.621 14.3381V21H178.498ZM1.59801 49V34.4545H3.72159V39.8594H3.84943C3.97254 39.6321 4.15009 39.3693 4.3821 39.071C4.61411 38.7727 4.93608 38.5123 5.34801 38.2898C5.75994 38.0625 6.30445 37.9489 6.98153 37.9489C7.86222 37.9489 8.6482 38.1714 9.33949 38.6165C10.0308 39.0616 10.5729 39.7031 10.9659 40.5412C11.3636 41.3793 11.5625 42.3878 11.5625 43.5668C11.5625 44.7457 11.366 45.7566 10.973 46.5994C10.58 47.4375 10.0402 48.0838 9.35369 48.5384C8.66714 48.9882 7.88352 49.2131 7.00284 49.2131C6.33996 49.2131 5.79782 49.1018 5.37642 48.8793C4.95975 48.6567 4.63305 48.3963 4.39631 48.098C4.15956 47.7997 3.97727 47.5346 3.84943 47.3026H3.67188V49H1.59801ZM3.67898 43.5455C3.67898 44.3125 3.79025 44.9848 4.01278 45.5625C4.23532 46.1402 4.55729 46.5923 4.97869 46.919C5.40009 47.241 5.91619 47.402 6.52699 47.402C7.16146 47.402 7.69176 47.2339 8.1179 46.8977C8.54403 46.5568 8.866 46.0952 9.08381 45.5128C9.30634 44.9304 9.41761 44.2746 9.41761 43.5455C9.41761 42.8258 9.30871 42.1795 9.09091 41.6065C8.87784 41.0336 8.55587 40.5814 8.125 40.25C7.69886 39.9186 7.16619 39.7528 6.52699 39.7528C5.91146 39.7528 5.39062 39.9115 4.96449 40.2287C4.54309 40.5459 4.22348 40.9886 4.00568 41.5568C3.78788 42.125 3.67898 42.7879 3.67898 43.5455ZM18.6488 49.2202C17.574 49.2202 16.6483 48.9905 15.8718 48.5312C15.1 48.0672 14.5034 47.4162 14.082 46.5781C13.6654 45.7353 13.457 44.7481 13.457 43.6165C13.457 42.4991 13.6654 41.5142 14.082 40.6619C14.5034 39.8097 15.0906 39.1444 15.8434 38.6662C16.601 38.188 17.4864 37.9489 18.4996 37.9489C19.1152 37.9489 19.7118 38.0507 20.2894 38.2543C20.8671 38.4579 21.3855 38.7775 21.8448 39.2131C22.3041 39.6487 22.6663 40.2145 22.9315 40.9105C23.1966 41.6018 23.3292 42.4422 23.3292 43.4318V44.1847H14.6573V42.5938H21.2482C21.2482 42.035 21.1346 41.5402 20.9073 41.1094C20.68 40.6738 20.3604 40.3305 19.9485 40.0795C19.5413 39.8286 19.0631 39.7031 18.5138 39.7031C17.9173 39.7031 17.3964 39.8499 16.9513 40.1435C16.511 40.4323 16.1701 40.8111 15.9286 41.2798C15.6919 41.7438 15.5735 42.2481 15.5735 42.7926V44.0355C15.5735 44.7647 15.7013 45.3849 15.957 45.8963C16.2174 46.4077 16.5797 46.7983 17.0437 47.0682C17.5077 47.3333 18.0498 47.4659 18.6701 47.4659C19.0726 47.4659 19.4395 47.4091 19.771 47.2955C20.1024 47.1771 20.3888 47.0019 20.6303 46.7699C20.8718 46.5379 21.0565 46.2514 21.1843 45.9105L23.1942 46.2727C23.0333 46.8646 22.7444 47.383 22.3278 47.8281C21.9158 48.2685 21.3974 48.6117 20.7724 48.858C20.1521 49.0994 19.4442 49.2202 18.6488 49.2202ZM30.2592 53.3182C29.3928 53.3182 28.647 53.2045 28.022 52.9773C27.4018 52.75 26.8951 52.4493 26.5021 52.0753C26.1091 51.7012 25.8156 51.2917 25.6214 50.8466L27.4467 50.0938C27.5746 50.3021 27.745 50.5223 27.9581 50.7543C28.1759 50.991 28.4695 51.1922 28.8388 51.358C29.2128 51.5237 29.6934 51.6065 30.2805 51.6065C31.0855 51.6065 31.7507 51.41 32.2763 51.017C32.8018 50.6288 33.0646 50.0085 33.0646 49.1562V47.0114H32.9297C32.8018 47.2434 32.6172 47.5014 32.3757 47.7855C32.139 48.0696 31.8123 48.3158 31.3956 48.5241C30.9789 48.7325 30.4368 48.8366 29.7692 48.8366C28.9074 48.8366 28.1309 48.6354 27.4396 48.233C26.7531 47.8258 26.2086 47.2268 25.8061 46.4361C25.4084 45.6406 25.2095 44.6629 25.2095 43.5028C25.2095 42.3428 25.406 41.3485 25.799 40.5199C26.1967 39.6913 26.7412 39.0568 27.4325 38.6165C28.1238 38.1714 28.9074 37.9489 29.7834 37.9489C30.4605 37.9489 31.0073 38.0625 31.424 38.2898C31.8407 38.5123 32.165 38.7727 32.397 39.071C32.6338 39.3693 32.8161 39.6321 32.9439 39.8594H33.1001V38.0909H35.1811V49.2415C35.1811 50.179 34.9633 50.9484 34.5277 51.5497C34.0921 52.151 33.5026 52.5961 32.7592 52.8849C32.0206 53.1738 31.1873 53.3182 30.2592 53.3182ZM30.2379 47.0753C30.8487 47.0753 31.3648 46.9332 31.7862 46.6491C32.2124 46.3603 32.5343 45.9484 32.7521 45.4134C32.9747 44.8736 33.0859 44.2273 33.0859 43.4744C33.0859 42.7405 32.977 42.0942 32.7592 41.5355C32.5414 40.9768 32.2218 40.5412 31.8004 40.2287C31.379 39.9115 30.8582 39.7528 30.2379 39.7528C29.5987 39.7528 29.0661 39.9186 28.6399 40.25C28.2138 40.5767 27.8918 41.0218 27.674 41.5852C27.4609 42.1487 27.3544 42.7784 27.3544 43.4744C27.3544 44.1894 27.4633 44.8168 27.6811 45.3565C27.8989 45.8963 28.2209 46.3177 28.647 46.6207C29.0779 46.9238 29.6082 47.0753 30.2379 47.0753ZM38.0291 49V38.0909H40.1527V49H38.0291ZM39.1016 36.4077C38.7322 36.4077 38.415 36.2846 38.1499 36.0384C37.8894 35.7874 37.7592 35.4891 37.7592 35.1435C37.7592 34.7931 37.8894 34.4948 38.1499 34.2486C38.415 33.9976 38.7322 33.8722 39.1016 33.8722C39.4709 33.8722 39.7857 33.9976 40.0462 34.2486C40.3113 34.4948 40.4439 34.7931 40.4439 35.1435C40.4439 35.4891 40.3113 35.7874 40.0462 36.0384C39.7857 36.2846 39.4709 36.4077 39.1016 36.4077ZM45.1332 42.5227V49H43.0096V38.0909H45.0479V39.8665H45.1829C45.4338 39.2888 45.8268 38.8248 46.3619 38.4744C46.9016 38.1241 47.5811 37.9489 48.4002 37.9489C49.1436 37.9489 49.7946 38.1051 50.3533 38.4176C50.9121 38.7254 51.3453 39.1847 51.6531 39.7955C51.9608 40.4062 52.1147 41.1615 52.1147 42.0611V49H49.9911V42.3168C49.9911 41.526 49.7852 40.9081 49.3732 40.4631C48.9613 40.0133 48.3955 39.7884 47.6758 39.7884C47.1834 39.7884 46.7454 39.8949 46.3619 40.108C45.9831 40.321 45.6824 40.6335 45.4599 41.0455C45.2421 41.4527 45.1332 41.9451 45.1332 42.5227ZM57.0863 42.5227V49H54.9627V38.0909H57.0011V39.8665H57.136C57.387 39.2888 57.7799 38.8248 58.315 38.4744C58.8548 38.1241 59.5342 37.9489 60.3533 37.9489C61.0967 37.9489 61.7478 38.1051 62.3065 38.4176C62.8652 38.7254 63.2984 39.1847 63.6062 39.7955C63.9139 40.4062 64.0678 41.1615 64.0678 42.0611V49H61.9442V42.3168C61.9442 41.526 61.7383 40.9081 61.3263 40.4631C60.9144 40.0133 60.3486 39.7884 59.6289 39.7884C59.1365 39.7884 58.6985 39.8949 58.315 40.108C57.9362 40.321 57.6355 40.6335 57.413 41.0455C57.1952 41.4527 57.0863 41.9451 57.0863 42.5227ZM71.6175 49.2202C70.5427 49.2202 69.6171 48.9905 68.8406 48.5312C68.0688 48.0672 67.4722 47.4162 67.0508 46.5781C66.6341 45.7353 66.4258 44.7481 66.4258 43.6165C66.4258 42.4991 66.6341 41.5142 67.0508 40.6619C67.4722 39.8097 68.0593 39.1444 68.8121 38.6662C69.5697 38.188 70.4551 37.9489 71.4684 37.9489C72.0839 37.9489 72.6805 38.0507 73.2582 38.2543C73.8358 38.4579 74.3543 38.7775 74.8136 39.2131C75.2728 39.6487 75.6351 40.2145 75.9002 40.9105C76.1654 41.6018 76.2979 42.4422 76.2979 43.4318V44.1847H67.6261V42.5938H74.217C74.217 42.035 74.1033 41.5402 73.8761 41.1094C73.6488 40.6738 73.3292 40.3305 72.9173 40.0795C72.5101 39.8286 72.0318 39.7031 71.4826 39.7031C70.886 39.7031 70.3652 39.8499 69.9201 40.1435C69.4798 40.4323 69.1388 40.8111 68.8974 41.2798C68.6606 41.7438 68.5423 42.2481 68.5423 42.7926V44.0355C68.5423 44.7647 68.6701 45.3849 68.9258 45.8963C69.1862 46.4077 69.5484 46.7983 70.0124 47.0682C70.4764 47.3333 71.0186 47.4659 71.6388 47.4659C72.0413 47.4659 72.4083 47.4091 72.7397 47.2955C73.0711 47.1771 73.3576 47.0019 73.5991 46.7699C73.8406 46.5379 74.0252 46.2514 74.1531 45.9105L76.163 46.2727C76.002 46.8646 75.7132 47.383 75.2965 47.8281C74.8846 48.2685 74.3661 48.6117 73.7411 48.858C73.1209 49.0994 72.413 49.2202 71.6175 49.2202ZM78.6541 49V38.0909H80.7067V39.8239H80.8203C81.0192 39.2367 81.3696 38.7751 81.8714 38.4389C82.3781 38.098 82.951 37.9276 83.5902 37.9276C83.7228 37.9276 83.879 37.9323 84.0589 37.9418C84.2436 37.9512 84.388 37.9631 84.4922 37.9773V40.0085C84.407 39.9848 84.2554 39.9588 84.0376 39.9304C83.8198 39.8973 83.602 39.8807 83.3842 39.8807C82.8823 39.8807 82.4349 39.9872 82.0419 40.2003C81.6536 40.4086 81.3459 40.6998 81.1186 41.0739C80.8913 41.4432 80.7777 41.8646 80.7777 42.3381V49H78.6541ZM94.5046 40.7543L92.5799 41.0952C92.4994 40.849 92.3716 40.6146 92.1964 40.392C92.0259 40.1695 91.7939 39.9872 91.5004 39.8452C91.2068 39.7031 90.8398 39.6321 90.3995 39.6321C89.7982 39.6321 89.2963 39.767 88.8938 40.0369C88.4914 40.3021 88.2901 40.6454 88.2901 41.0668C88.2901 41.4313 88.4251 41.7249 88.695 41.9474C88.9648 42.17 89.4004 42.3523 90.0018 42.4943L91.7347 42.892C92.7385 43.1241 93.4866 43.4815 93.979 43.9645C94.4715 44.4474 94.7177 45.0748 94.7177 45.8466C94.7177 46.5 94.5283 47.0824 94.1495 47.5938C93.7755 48.1004 93.2522 48.4981 92.5799 48.7869C91.9123 49.0758 91.1381 49.2202 90.2575 49.2202C89.0359 49.2202 88.0392 48.9598 87.2674 48.4389C86.4956 47.9134 86.0221 47.1676 85.8469 46.2017L87.8995 45.8892C88.0273 46.4242 88.2901 46.8291 88.6879 47.1037C89.0856 47.3736 89.604 47.5085 90.2433 47.5085C90.9393 47.5085 91.4956 47.3641 91.9123 47.0753C92.329 46.7817 92.5373 46.4242 92.5373 46.0028C92.5373 45.6619 92.4094 45.3755 92.1538 45.1435C91.9028 44.9115 91.5169 44.7363 90.9961 44.6179L89.1495 44.2131C88.1315 43.9811 87.3787 43.6117 86.891 43.1051C86.408 42.5985 86.1665 41.9569 86.1665 41.1804C86.1665 40.5365 86.3465 39.973 86.7063 39.4901C87.0662 39.0071 87.5633 38.6307 88.1978 38.3608C88.8323 38.0862 89.5591 37.9489 90.3782 37.9489C91.5572 37.9489 92.4852 38.2045 93.1623 38.7159C93.8394 39.2225 94.2868 39.902 94.5046 40.7543Z" fill="#312A53"/>
<path d="M9.42045 106.909V77.8182H11.2841V106.909H9.42045ZM15.25 86.8409C15.1288 85.7652 14.6288 84.9318 13.75 84.3409C12.8712 83.7424 11.7652 83.4432 10.4318 83.4432C9.47727 83.4432 8.65152 83.5947 7.95455 83.8977C7.25758 84.1932 6.71591 84.6023 6.32955 85.125C5.95076 85.6402 5.76136 86.2273 5.76136 86.8864C5.76136 87.4394 5.89015 87.9167 6.14773 88.3182C6.41288 88.7197 6.75758 89.0568 7.18182 89.3295C7.61364 89.5947 8.07576 89.8182 8.56818 90C9.06061 90.1742 9.53409 90.3182 9.98864 90.4318L12.2614 91.0227C13.0038 91.2045 13.7652 91.4508 14.5455 91.7614C15.3258 92.072 16.0492 92.4811 16.7159 92.9886C17.3826 93.4962 17.9205 94.125 18.3295 94.875C18.7462 95.625 18.9545 96.5227 18.9545 97.5682C18.9545 98.8864 18.6136 100.057 17.9318 101.08C17.2576 102.102 16.2765 102.909 14.9886 103.5C13.7083 104.091 12.1591 104.386 10.3409 104.386C8.59848 104.386 7.09091 104.11 5.81818 103.557C4.54545 103.004 3.54924 102.22 2.82955 101.205C2.10985 100.182 1.71212 98.9697 1.63636 97.5682H5.15909C5.22727 98.4091 5.5 99.1098 5.97727 99.6705C6.46212 100.223 7.07955 100.636 7.82955 100.909C8.58712 101.174 9.41667 101.307 10.3182 101.307C11.3106 101.307 12.1932 101.152 12.9659 100.841C13.7462 100.523 14.3598 100.083 14.8068 99.5227C15.2538 98.9545 15.4773 98.2917 15.4773 97.5341C15.4773 96.8447 15.2803 96.2803 14.8864 95.8409C14.5 95.4015 13.9735 95.0379 13.3068 94.75C12.6477 94.4621 11.9015 94.2083 11.0682 93.9886L8.31818 93.2386C6.45455 92.7311 4.97727 91.9848 3.88636 91C2.80303 90.0152 2.26136 88.7121 2.26136 87.0909C2.26136 85.75 2.625 84.5795 3.35227 83.5795C4.07955 82.5795 5.06439 81.803 6.30682 81.25C7.54924 80.6894 8.95076 80.4091 10.5114 80.4091C12.0871 80.4091 13.4773 80.6856 14.6818 81.2386C15.8939 81.7917 16.8485 82.553 17.5455 83.5227C18.2424 84.4848 18.6061 85.5909 18.6364 86.8409H15.25ZM30.9347 104.318C29.3741 104.318 27.9801 104.049 26.7528 103.511C25.5331 102.973 24.5672 102.227 23.8551 101.273C23.1506 100.311 22.7718 99.197 22.7188 97.9318H26.2869C26.3324 98.6212 26.5634 99.2197 26.9801 99.7273C27.4044 100.227 27.9574 100.614 28.6392 100.886C29.321 101.159 30.0786 101.295 30.9119 101.295C31.8286 101.295 32.6392 101.136 33.3438 100.818C34.0559 100.5 34.6127 100.057 35.0142 99.4886C35.4157 98.9129 35.6165 98.25 35.6165 97.5C35.6165 96.7197 35.4157 96.0341 35.0142 95.4432C34.6203 94.8447 34.0407 94.375 33.2756 94.0341C32.518 93.6932 31.6013 93.5227 30.5256 93.5227H28.5597V90.6591H30.5256C31.3892 90.6591 32.1468 90.5038 32.7983 90.1932C33.4574 89.8826 33.9725 89.4508 34.3438 88.8977C34.715 88.3371 34.9006 87.6818 34.9006 86.9318C34.9006 86.2121 34.7377 85.5871 34.4119 85.0568C34.0938 84.5189 33.6392 84.0985 33.0483 83.7955C32.465 83.4924 31.7756 83.3409 30.9801 83.3409C30.2225 83.3409 29.5142 83.4811 28.8551 83.7614C28.2036 84.0341 27.6733 84.428 27.2642 84.9432C26.8551 85.4508 26.6354 86.0606 26.6051 86.7727H23.2074C23.2453 85.5152 23.6165 84.4091 24.321 83.4545C25.0331 82.5 25.9725 81.7538 27.1392 81.2159C28.3059 80.678 29.6013 80.4091 31.0256 80.4091C32.518 80.4091 33.8059 80.7008 34.8892 81.2841C35.9801 81.8598 36.821 82.6288 37.4119 83.5909C38.0104 84.553 38.3059 85.6061 38.2983 86.75C38.3059 88.053 37.9422 89.1591 37.2074 90.0682C36.4801 90.9773 35.5104 91.5871 34.2983 91.8977V92.0795C35.8438 92.3144 37.0407 92.928 37.8892 93.9205C38.7453 94.9129 39.1695 96.1439 39.1619 97.6136C39.1695 98.8939 38.8134 100.042 38.0938 101.057C37.3816 102.072 36.4081 102.871 35.1733 103.455C33.9384 104.03 32.5256 104.318 30.9347 104.318ZM51.5824 104.318C50.5445 104.303 49.5218 104.114 48.5142 103.75C47.5142 103.386 46.6051 102.78 45.7869 101.932C44.9688 101.083 44.3134 99.9432 43.821 98.5114C43.3362 97.0795 43.0938 95.2917 43.0938 93.1477C43.0938 91.1174 43.2945 89.3144 43.696 87.7386C44.1051 86.1629 44.6922 84.8333 45.4574 83.75C46.2225 82.6591 47.1468 81.8295 48.2301 81.2614C49.3134 80.6932 50.5294 80.4091 51.8778 80.4091C53.2642 80.4091 54.4953 80.6818 55.571 81.2273C56.6468 81.7727 57.518 82.5265 58.1847 83.4886C58.8589 84.4508 59.2869 85.5455 59.4688 86.7727H56.0028C55.768 85.803 55.3021 85.0114 54.6051 84.3977C53.9081 83.7841 52.9991 83.4773 51.8778 83.4773C50.1733 83.4773 48.8438 84.2197 47.8892 85.7045C46.9422 87.1894 46.465 89.2538 46.4574 91.8977H46.6278C47.0294 91.2386 47.5218 90.678 48.1051 90.2159C48.696 89.7462 49.3551 89.3864 50.0824 89.1364C50.8172 88.8788 51.59 88.75 52.4006 88.75C53.7491 88.75 54.9688 89.0795 56.0597 89.7386C57.1581 90.3902 58.0331 91.2917 58.6847 92.4432C59.3362 93.5947 59.6619 94.9129 59.6619 96.3977C59.6619 97.8826 59.3248 99.2273 58.6506 100.432C57.9839 101.636 57.0445 102.591 55.8324 103.295C54.6203 103.992 53.2036 104.333 51.5824 104.318ZM51.571 101.364C52.465 101.364 53.2642 101.144 53.9688 100.705C54.6733 100.265 55.2301 99.6742 55.6392 98.9318C56.0483 98.1894 56.2528 97.3598 56.2528 96.4432C56.2528 95.5492 56.0521 94.7348 55.6506 94C55.2566 93.2652 54.7112 92.6818 54.0142 92.25C53.3248 91.8182 52.5369 91.6023 51.6506 91.6023C50.9763 91.6023 50.3513 91.7311 49.7756 91.9886C49.2074 92.2462 48.7074 92.6023 48.2756 93.0568C47.8438 93.5114 47.5028 94.0341 47.2528 94.625C47.0104 95.2083 46.8892 95.8258 46.8892 96.4773C46.8892 97.3485 47.09 98.1553 47.4915 98.8977C47.9006 99.6402 48.4574 100.239 49.1619 100.693C49.8741 101.14 50.6771 101.364 51.571 101.364ZM71.9034 104.386C70.108 104.379 68.5739 103.905 67.3011 102.966C66.0284 102.027 65.0549 100.659 64.3807 98.8636C63.7064 97.0682 63.3693 94.9053 63.3693 92.375C63.3693 89.8523 63.7064 87.697 64.3807 85.9091C65.0625 84.1212 66.0398 82.7576 67.3125 81.8182C68.5928 80.8788 70.1231 80.4091 71.9034 80.4091C73.6837 80.4091 75.2102 80.8826 76.483 81.8295C77.7557 82.7689 78.7292 84.1326 79.4034 85.9205C80.0852 87.7008 80.4261 89.8523 80.4261 92.375C80.4261 94.9129 80.089 97.0795 79.4148 98.875C78.7405 100.663 77.767 102.03 76.4943 102.977C75.2216 103.917 73.6913 104.386 71.9034 104.386ZM71.9034 101.352C73.4792 101.352 74.7102 100.583 75.5966 99.0455C76.4905 97.5076 76.9375 95.2841 76.9375 92.375C76.9375 90.4432 76.733 88.8106 76.3239 87.4773C75.9223 86.1364 75.3428 85.1212 74.5852 84.4318C73.8352 83.7348 72.9413 83.3864 71.9034 83.3864C70.3352 83.3864 69.1042 84.1591 68.2102 85.7045C67.3163 87.25 66.8655 89.4735 66.858 92.375C66.858 94.3144 67.0587 95.9545 67.4602 97.2955C67.8693 98.6288 68.4489 99.6402 69.1989 100.33C69.9489 101.011 70.8504 101.352 71.9034 101.352Z" fill="#85D1A0"/>
<line y1="126.5" x2="317.014" y2="126.5" stroke="#F1F0F0"/>
<g clip-path="url(#clip0_1_160)">
<path d="M12 166C16.9706 166 21 161.971 21 157C21 152.029 16.9706 148 12 148C7.02944 148 3 152.029 3 157C3 161.971 7.02944 166 12 166Z" stroke="#85D1A0" stroke-width="1.5" stroke-linecap="round" stroke-linejoin="round"/>
<path d="M12 152V157L15 160" stroke="#85D1A0" stroke-width="1.5" stroke-linecap="round" stroke-linejoin="round"/>
</g>
<path d="M30.8153 159.912V158.898L35.2898 151.818H36.0256V153.389H35.5284L32.1477 158.739V158.818H38.1733V159.912H30.8153ZM35.608 162V159.604V159.131V151.818H36.7812V162H35.608ZM43.3574 162.139C42.6084 162.139 41.9703 161.935 41.4434 161.528C40.9164 161.117 40.5137 160.522 40.2353 159.743C39.9569 158.961 39.8176 158.016 39.8176 156.909C39.8176 155.809 39.9569 154.869 40.2353 154.09C40.517 153.308 40.9213 152.711 41.4483 152.3C41.9786 151.886 42.615 151.679 43.3574 151.679C44.0998 151.679 44.7346 151.886 45.2615 152.3C45.7918 152.711 46.1962 153.308 46.4746 154.09C46.7563 154.869 46.8972 155.809 46.8972 156.909C46.8972 158.016 46.758 158.961 46.4796 159.743C46.2012 160.522 45.7985 161.117 45.2715 161.528C44.7445 161.935 44.1065 162.139 43.3574 162.139ZM43.3574 161.045C44.0998 161.045 44.6766 160.687 45.0875 159.972C45.4985 159.256 45.704 158.235 45.704 156.909C45.704 156.027 45.6096 155.277 45.4206 154.657C45.235 154.037 44.9666 153.565 44.6152 153.24C44.2672 152.915 43.848 152.753 43.3574 152.753C42.6216 152.753 42.0466 153.116 41.6323 153.842C41.218 154.564 41.0108 155.587 41.0108 156.909C41.0108 157.791 41.1036 158.54 41.2892 159.156C41.4748 159.773 41.7417 160.242 42.0897 160.563C42.441 160.885 42.8636 161.045 43.3574 161.045ZM49.9796 157.406V162H48.8063V151.818H49.9796V155.557H50.079C50.258 155.162 50.5265 154.849 50.8844 154.617C51.2457 154.382 51.7263 154.264 52.3262 154.264C52.8465 154.264 53.3023 154.369 53.6934 154.577C54.0845 154.783 54.3877 155.099 54.6032 155.527C54.8219 155.951 54.9313 156.491 54.9313 157.148V162H53.758V157.227C53.758 156.621 53.6006 156.152 53.2857 155.82C52.9741 155.486 52.5416 155.318 51.9881 155.318C51.6036 155.318 51.2589 155.399 50.954 155.562C50.6524 155.724 50.4138 155.961 50.2381 156.273C50.0658 156.584 49.9796 156.962 49.9796 157.406ZM57.0778 162V154.364H58.2113V155.517H58.2908C58.43 155.139 58.6819 154.833 59.0465 154.597C59.4111 154.362 59.8221 154.244 60.2795 154.244C60.3656 154.244 60.4734 154.246 60.6026 154.249C60.7319 154.253 60.8297 154.258 60.896 154.264V155.457C60.8562 155.447 60.765 155.433 60.6225 155.413C60.4833 155.389 60.3358 155.378 60.18 155.378C59.8088 155.378 59.4774 155.456 59.1857 155.612C58.8974 155.764 58.6687 155.976 58.4996 156.248C58.3339 156.516 58.2511 156.823 58.2511 157.168V162H57.0778ZM65.9657 159.912V158.898L70.4402 151.818H71.176V153.389H70.6788L67.2981 158.739V158.818H73.3237V159.912H65.9657ZM70.7583 162V159.604V159.131V151.818H71.9316V162H70.7583ZM78.5078 162.139C77.7588 162.139 77.1207 161.935 76.5938 161.528C76.0668 161.117 75.6641 160.522 75.3857 159.743C75.1072 158.961 74.968 158.016 74.968 156.909C74.968 155.809 75.1072 154.869 75.3857 154.09C75.6674 153.308 76.0717 152.711 76.5987 152.3C77.129 151.886 77.7654 151.679 78.5078 151.679C79.2502 151.679 79.8849 151.886 80.4119 152.3C80.9422 152.711 81.3466 153.308 81.625 154.09C81.9067 154.869 82.0476 155.809 82.0476 156.909C82.0476 158.016 81.9084 158.961 81.63 159.743C81.3516 160.522 80.9489 161.117 80.4219 161.528C79.8949 161.935 79.2569 162.139 78.5078 162.139ZM78.5078 161.045C79.2502 161.045 79.8269 160.687 80.2379 159.972C80.6489 159.256 80.8544 158.235 80.8544 156.909C80.8544 156.027 80.7599 155.277 80.571 154.657C80.3854 154.037 80.117 153.565 79.7656 153.24C79.4176 152.915 78.9983 152.753 78.5078 152.753C77.772 152.753 77.197 153.116 76.7827 153.842C76.3684 154.564 76.1612 155.587 76.1612 156.909C76.1612 157.791 76.254 158.54 76.4396 159.156C76.6252 159.773 76.892 160.242 77.2401 160.563C77.5914 160.885 78.014 161.045 78.5078 161.045ZM83.9567 162V154.364H85.0902V155.557H85.1896C85.3487 155.149 85.6056 154.833 85.9602 154.607C86.3149 154.379 86.7408 154.264 87.2379 154.264C87.7417 154.264 88.161 154.379 88.4957 154.607C88.8338 154.833 89.0973 155.149 89.2862 155.557H89.3658C89.5613 155.162 89.8546 154.849 90.2457 154.617C90.6368 154.382 91.1058 154.264 91.6527 154.264C92.3355 154.264 92.8939 154.478 93.3281 154.906C93.7623 155.33 93.9794 155.991 93.9794 156.889V162H92.8061V156.889C92.8061 156.326 92.652 155.923 92.3438 155.681C92.0355 155.439 91.6726 155.318 91.255 155.318C90.718 155.318 90.3021 155.481 90.0071 155.805C89.7121 156.127 89.5646 156.535 89.5646 157.028V162H88.3714V156.77C88.3714 156.336 88.2306 155.986 87.9489 155.721C87.6671 155.452 87.3042 155.318 86.8601 155.318C86.5552 155.318 86.2701 155.399 86.005 155.562C85.7431 155.724 85.531 155.95 85.3686 156.238C85.2095 156.523 85.13 156.853 85.13 157.227V162H83.9567ZM96.1246 162V154.364H97.2979V162H96.1246ZM96.7212 153.091C96.4925 153.091 96.2953 153.013 96.1296 152.857C95.9672 152.701 95.886 152.514 95.886 152.295C95.886 152.077 95.9672 151.889 96.1296 151.734C96.2953 151.578 96.4925 151.5 96.7212 151.5C96.9499 151.5 97.1455 151.578 97.3079 151.734C97.4736 151.889 97.5565 152.077 97.5565 152.295C97.5565 152.514 97.4736 152.701 97.3079 152.857C97.1455 153.013 96.9499 153.091 96.7212 153.091ZM100.62 157.406V162H99.4469V154.364H100.58V155.557H100.68C100.859 155.169 101.131 154.857 101.495 154.622C101.86 154.384 102.33 154.264 102.907 154.264C103.424 154.264 103.877 154.37 104.264 154.582C104.652 154.791 104.954 155.109 105.169 155.537C105.385 155.961 105.492 156.498 105.492 157.148V162H104.319V157.227C104.319 156.627 104.163 156.16 103.852 155.825C103.54 155.487 103.113 155.318 102.569 155.318C102.195 155.318 101.86 155.399 101.565 155.562C101.273 155.724 101.043 155.961 100.874 156.273C100.705 156.584 100.62 156.962 100.62 157.406Z" fill="#312A53"/>
<path d="M150.233 162V151.818H151.466V160.906H156.199V162H150.233ZM157.949 162V154.364H159.122V162H157.949ZM158.545 153.091C158.317 153.091 158.12 153.013 157.954 152.857C157.791 152.701 157.71 152.514 157.71 152.295C157.71 152.077 157.791 151.889 157.954 151.734C158.12 151.578 158.317 151.5 158.545 151.5C158.774 151.5 158.97 151.578 159.132 151.734C159.298 151.889 159.381 152.077 159.381 152.295C159.381 152.514 159.298 152.701 159.132 152.857C158.97 153.013 158.774 153.091 158.545 153.091ZM167.515 154.364L164.692 162H163.498L160.675 154.364H161.947L164.055 160.449H164.135L166.243 154.364H167.515ZM171.992 162.159C171.257 162.159 170.622 161.997 170.088 161.672C169.558 161.344 169.149 160.886 168.86 160.3C168.575 159.71 168.433 159.024 168.433 158.241C168.433 157.459 168.575 156.77 168.86 156.173C169.149 155.573 169.55 155.106 170.063 154.771C170.58 154.433 171.184 154.264 171.873 154.264C172.271 154.264 172.664 154.33 173.051 154.463C173.439 154.596 173.792 154.811 174.11 155.109C174.428 155.404 174.682 155.795 174.871 156.283C175.06 156.77 175.154 157.37 175.154 158.082V158.58H169.268V157.565H173.961C173.961 157.134 173.875 156.75 173.703 156.412C173.534 156.074 173.292 155.807 172.977 155.612C172.665 155.416 172.297 155.318 171.873 155.318C171.406 155.318 171.001 155.434 170.66 155.666C170.322 155.895 170.062 156.193 169.879 156.561C169.697 156.929 169.606 157.323 169.606 157.744V158.42C169.606 158.997 169.705 159.486 169.904 159.887C170.106 160.285 170.387 160.588 170.744 160.797C171.102 161.002 171.518 161.105 171.992 161.105C172.301 161.105 172.579 161.062 172.828 160.976C173.079 160.886 173.297 160.754 173.479 160.578C173.661 160.399 173.802 160.177 173.901 159.912L175.035 160.23C174.916 160.615 174.715 160.953 174.433 161.244C174.152 161.533 173.804 161.758 173.389 161.92C172.975 162.08 172.509 162.159 171.992 162.159ZM189.229 155H187.996C187.923 154.645 187.795 154.334 187.613 154.065C187.434 153.797 187.215 153.571 186.957 153.389C186.702 153.204 186.418 153.064 186.107 152.972C185.795 152.879 185.47 152.832 185.132 152.832C184.516 152.832 183.957 152.988 183.457 153.3C182.96 153.611 182.564 154.07 182.269 154.677C181.977 155.283 181.831 156.027 181.831 156.909C181.831 157.791 181.977 158.535 182.269 159.141C182.564 159.748 182.96 160.207 183.457 160.518C183.957 160.83 184.516 160.986 185.132 160.986C185.47 160.986 185.795 160.939 186.107 160.847C186.418 160.754 186.702 160.616 186.957 160.434C187.215 160.248 187.434 160.021 187.613 159.753C187.795 159.481 187.923 159.17 187.996 158.818H189.229C189.136 159.339 188.967 159.804 188.722 160.215C188.477 160.626 188.172 160.976 187.807 161.264C187.442 161.549 187.033 161.766 186.579 161.915C186.128 162.065 185.646 162.139 185.132 162.139C184.264 162.139 183.492 161.927 182.816 161.503C182.139 161.079 181.607 160.475 181.22 159.693C180.832 158.911 180.638 157.983 180.638 156.909C180.638 155.835 180.832 154.907 181.22 154.125C181.607 153.343 182.139 152.74 182.816 152.315C183.492 151.891 184.264 151.679 185.132 151.679C185.646 151.679 186.128 151.754 186.579 151.903C187.033 152.052 187.442 152.271 187.807 152.559C188.172 152.844 188.477 153.192 188.722 153.603C188.967 154.011 189.136 154.476 189.229 155ZM192.235 151.818V162H191.062V151.818H192.235ZM196.632 162.179C196.148 162.179 195.709 162.088 195.314 161.906C194.92 161.72 194.606 161.453 194.374 161.105C194.142 160.754 194.026 160.33 194.026 159.832C194.026 159.395 194.113 159.04 194.285 158.768C194.457 158.493 194.688 158.278 194.976 158.122C195.264 157.966 195.583 157.85 195.931 157.774C196.282 157.695 196.635 157.632 196.99 157.585C197.454 157.526 197.83 157.481 198.118 157.451C198.41 157.418 198.622 157.363 198.754 157.287C198.89 157.211 198.958 157.078 198.958 156.889V156.849C198.958 156.359 198.824 155.978 198.556 155.706C198.29 155.434 197.888 155.298 197.347 155.298C196.787 155.298 196.348 155.421 196.03 155.666C195.712 155.911 195.488 156.173 195.359 156.452L194.245 156.054C194.444 155.59 194.709 155.229 195.041 154.97C195.375 154.708 195.74 154.526 196.134 154.423C196.532 154.317 196.923 154.264 197.308 154.264C197.553 154.264 197.835 154.294 198.153 154.354C198.474 154.41 198.784 154.528 199.083 154.707C199.384 154.886 199.634 155.156 199.833 155.517C200.032 155.878 200.132 156.362 200.132 156.969V162H198.958V160.966H198.899C198.819 161.132 198.686 161.309 198.501 161.498C198.315 161.687 198.068 161.848 197.76 161.98C197.452 162.113 197.076 162.179 196.632 162.179ZM196.811 161.125C197.275 161.125 197.666 161.034 197.984 160.852C198.305 160.669 198.547 160.434 198.71 160.146C198.875 159.857 198.958 159.554 198.958 159.236V158.162C198.909 158.222 198.799 158.276 198.63 158.326C198.464 158.372 198.272 158.414 198.053 158.45C197.838 158.483 197.628 158.513 197.422 158.54C197.22 158.563 197.056 158.583 196.93 158.599C196.625 158.639 196.34 158.704 196.075 158.793C195.813 158.879 195.601 159.01 195.438 159.186C195.279 159.358 195.2 159.594 195.2 159.892C195.2 160.3 195.351 160.608 195.652 160.817C195.957 161.022 196.343 161.125 196.811 161.125ZM207.682 156.074L206.628 156.372C206.562 156.196 206.464 156.026 206.335 155.86C206.209 155.691 206.037 155.552 205.818 155.442C205.599 155.333 205.319 155.278 204.978 155.278C204.51 155.278 204.121 155.386 203.809 155.602C203.501 155.814 203.347 156.084 203.347 156.412C203.347 156.704 203.453 156.934 203.665 157.103C203.877 157.272 204.209 157.413 204.659 157.526L205.793 157.804C206.476 157.97 206.984 158.223 207.319 158.565C207.654 158.903 207.821 159.339 207.821 159.872C207.821 160.31 207.695 160.701 207.444 161.045C207.195 161.39 206.847 161.662 206.4 161.861C205.952 162.06 205.432 162.159 204.838 162.159C204.06 162.159 203.415 161.99 202.904 161.652C202.394 161.314 202.071 160.82 201.935 160.17L203.049 159.892C203.155 160.303 203.355 160.611 203.65 160.817C203.949 161.022 204.338 161.125 204.819 161.125C205.365 161.125 205.8 161.009 206.121 160.777C206.446 160.542 206.608 160.26 206.608 159.932C206.608 159.667 206.516 159.445 206.33 159.266C206.144 159.083 205.859 158.947 205.475 158.858L204.202 158.56C203.503 158.394 202.989 158.137 202.661 157.789C202.336 157.438 202.174 156.999 202.174 156.472C202.174 156.041 202.295 155.66 202.537 155.328C202.782 154.997 203.115 154.737 203.536 154.548C203.96 154.359 204.441 154.264 204.978 154.264C205.733 154.264 206.327 154.43 206.757 154.761C207.192 155.093 207.5 155.53 207.682 156.074ZM214.997 156.074L213.943 156.372C213.876 156.196 213.779 156.026 213.649 155.86C213.523 155.691 213.351 155.552 213.132 155.442C212.914 155.333 212.633 155.278 212.292 155.278C211.825 155.278 211.435 155.386 211.124 155.602C210.816 155.814 210.661 156.084 210.661 156.412C210.661 156.704 210.767 156.934 210.98 157.103C211.192 157.272 211.523 157.413 211.974 157.526L213.107 157.804C213.79 157.97 214.299 158.223 214.634 158.565C214.968 158.903 215.136 159.339 215.136 159.872C215.136 160.31 215.01 160.701 214.758 161.045C214.509 161.39 214.161 161.662 213.714 161.861C213.267 162.06 212.746 162.159 212.153 162.159C211.374 162.159 210.729 161.99 210.219 161.652C209.709 161.314 209.385 160.82 209.249 160.17L210.363 159.892C210.469 160.303 210.67 160.611 210.965 160.817C211.263 161.022 211.652 161.125 212.133 161.125C212.68 161.125 213.114 161.009 213.436 160.777C213.76 160.542 213.923 160.26 213.923 159.932C213.923 159.667 213.83 159.445 213.644 159.266C213.459 159.083 213.174 158.947 212.789 158.858L211.517 158.56C210.817 158.394 210.303 158.137 209.975 157.789C209.651 157.438 209.488 156.999 209.488 156.472C209.488 156.041 209.609 155.66 209.851 155.328C210.096 154.997 210.429 154.737 210.85 154.548C211.275 154.359 211.755 154.264 212.292 154.264C213.048 154.264 213.641 154.43 214.072 154.761C214.506 155.093 214.814 155.53 214.997 156.074Z" fill="#312A53"/>
<path d="M264.634 151.818V162H263.401V153.111H263.341L260.855 154.761V153.509L263.401 151.818H264.634ZM270.883 162.139C270.134 162.139 269.496 161.935 268.969 161.528C268.442 161.117 268.039 160.522 267.761 159.743C267.482 158.961 267.343 158.016 267.343 156.909C267.343 155.809 267.482 154.869 267.761 154.09C268.042 153.308 268.447 152.711 268.974 152.3C269.504 151.886 270.14 151.679 270.883 151.679C271.625 151.679 272.26 151.886 272.787 152.3C273.317 152.711 273.722 153.308 274 154.09C274.282 154.869 274.423 155.809 274.423 156.909C274.423 158.016 274.283 158.961 274.005 159.743C273.727 160.522 273.324 161.117 272.797 161.528C272.27 161.935 271.632 162.139 270.883 162.139ZM270.883 161.045C271.625 161.045 272.202 160.687 272.613 159.972C273.024 159.256 273.229 158.235 273.229 156.909C273.229 156.027 273.135 155.277 272.946 154.657C272.76 154.037 272.492 153.565 272.141 153.24C271.793 152.915 271.373 152.753 270.883 152.753C270.147 152.753 269.572 153.116 269.158 153.842C268.743 154.564 268.536 155.587 268.536 156.909C268.536 157.791 268.629 158.54 268.815 159.156C269 159.773 269.267 160.242 269.615 160.563C269.966 160.885 270.389 161.045 270.883 161.045ZM276.312 162V161.105L279.673 157.426C280.067 156.995 280.392 156.621 280.647 156.303C280.902 155.981 281.091 155.679 281.214 155.398C281.34 155.113 281.403 154.814 281.403 154.503C281.403 154.145 281.317 153.835 281.144 153.573C280.975 153.311 280.743 153.109 280.448 152.967C280.153 152.824 279.822 152.753 279.454 152.753C279.063 152.753 278.721 152.834 278.43 152.996C278.141 153.156 277.918 153.379 277.759 153.668C277.603 153.956 277.525 154.294 277.525 154.682H276.352C276.352 154.085 276.489 153.562 276.764 153.111C277.039 152.66 277.414 152.309 277.888 152.057C278.365 151.805 278.9 151.679 279.494 151.679C280.09 151.679 280.619 151.805 281.08 152.057C281.54 152.309 281.902 152.648 282.163 153.076C282.425 153.504 282.556 153.979 282.556 154.503C282.556 154.877 282.488 155.244 282.352 155.602C282.22 155.956 281.988 156.352 281.656 156.79C281.328 157.224 280.872 157.754 280.289 158.381L278.002 160.827V160.906H282.735V162H276.312ZM294.155 156.074L293.101 156.372C293.035 156.196 292.937 156.026 292.808 155.86C292.682 155.691 292.509 155.552 292.29 155.442C292.072 155.333 291.792 155.278 291.45 155.278C290.983 155.278 290.594 155.386 290.282 155.602C289.974 155.814 289.82 156.084 289.82 156.412C289.82 156.704 289.926 156.934 290.138 157.103C290.35 157.272 290.681 157.413 291.132 157.526L292.266 157.804C292.948 157.97 293.457 158.223 293.792 158.565C294.127 158.903 294.294 159.339 294.294 159.872C294.294 160.31 294.168 160.701 293.916 161.045C293.668 161.39 293.32 161.662 292.872 161.861C292.425 162.06 291.904 162.159 291.311 162.159C290.532 162.159 289.888 161.99 289.377 161.652C288.867 161.314 288.544 160.82 288.408 160.17L289.521 159.892C289.627 160.303 289.828 160.611 290.123 160.817C290.421 161.022 290.811 161.125 291.291 161.125C291.838 161.125 292.272 161.009 292.594 160.777C292.919 160.542 293.081 160.26 293.081 159.932C293.081 159.667 292.988 159.445 292.803 159.266C292.617 159.083 292.332 158.947 291.947 158.858L290.675 158.56C289.975 158.394 289.462 158.137 289.134 157.789C288.809 157.438 288.646 156.999 288.646 156.472C288.646 156.041 288.767 155.66 289.009 155.328C289.254 154.997 289.588 154.737 290.009 154.548C290.433 154.359 290.913 154.264 291.45 154.264C292.206 154.264 292.799 154.43 293.23 154.761C293.664 155.093 293.973 155.53 294.155 156.074ZM298.307 162.179C297.823 162.179 297.384 162.088 296.99 161.906C296.595 161.72 296.282 161.453 296.05 161.105C295.818 160.754 295.702 160.33 295.702 159.832C295.702 159.395 295.788 159.04 295.961 158.768C296.133 158.493 296.363 158.278 296.652 158.122C296.94 157.966 297.258 157.85 297.606 157.774C297.958 157.695 298.311 157.632 298.665 157.585C299.129 157.526 299.506 157.481 299.794 157.451C300.086 157.418 300.298 157.363 300.43 157.287C300.566 157.211 300.634 157.078 300.634 156.889V156.849C300.634 156.359 300.5 155.978 300.231 155.706C299.966 155.434 299.564 155.298 299.023 155.298C298.463 155.298 298.024 155.421 297.706 155.666C297.388 155.911 297.164 156.173 297.035 156.452L295.921 156.054C296.12 155.59 296.385 155.229 296.716 154.97C297.051 154.708 297.416 154.526 297.81 154.423C298.208 154.317 298.599 154.264 298.983 154.264C299.229 154.264 299.51 154.294 299.829 154.354C300.15 154.41 300.46 154.528 300.758 154.707C301.06 154.886 301.31 155.156 301.509 155.517C301.708 155.878 301.807 156.362 301.807 156.969V162H300.634V160.966H300.574C300.495 161.132 300.362 161.309 300.177 161.498C299.991 161.687 299.744 161.848 299.436 161.98C299.128 162.113 298.751 162.179 298.307 162.179ZM298.486 161.125C298.95 161.125 299.341 161.034 299.66 160.852C299.981 160.669 300.223 160.434 300.385 160.146C300.551 159.857 300.634 159.554 300.634 159.236V158.162C300.584 158.222 300.475 158.276 300.306 158.326C300.14 158.372 299.948 158.414 299.729 158.45C299.514 158.483 299.303 158.513 299.098 158.54C298.896 158.563 298.732 158.583 298.606 158.599C298.301 158.639 298.016 158.704 297.751 158.793C297.489 158.879 297.277 159.01 297.114 159.186C296.955 159.358 296.876 159.594 296.876 159.892C296.876 160.3 297.026 160.608 297.328 160.817C297.633 161.022 298.019 161.125 298.486 161.125ZM305.122 151.818V162H303.949V151.818H305.122ZM310.473 162.159C309.737 162.159 309.102 161.997 308.569 161.672C308.038 161.344 307.629 160.886 307.341 160.3C307.056 159.71 306.913 159.024 306.913 158.241C306.913 157.459 307.056 156.77 307.341 156.173C307.629 155.573 308.03 155.106 308.544 154.771C309.061 154.433 309.664 154.264 310.354 154.264C310.751 154.264 311.144 154.33 311.532 154.463C311.92 154.596 312.273 154.811 312.591 155.109C312.909 155.404 313.162 155.795 313.351 156.283C313.54 156.77 313.635 157.37 313.635 158.082V158.58H307.748V157.565H312.442C312.442 157.134 312.355 156.75 312.183 156.412C312.014 156.074 311.772 155.807 311.457 155.612C311.146 155.416 310.778 155.318 310.354 155.318C309.886 155.318 309.482 155.434 309.14 155.666C308.802 155.895 308.542 156.193 308.36 156.561C308.178 156.929 308.086 157.323 308.086 157.744V158.42C308.086 158.997 308.186 159.486 308.385 159.887C308.587 160.285 308.867 160.588 309.225 160.797C309.583 161.002 309.999 161.105 310.473 161.105C310.781 161.105 311.059 161.062 311.308 160.976C311.56 160.886 311.777 160.754 311.959 160.578C312.142 160.399 312.282 160.177 312.382 159.912L313.515 160.23C313.396 160.615 313.196 160.953 312.914 161.244C312.632 161.533 312.284 161.758 311.87 161.92C311.456 162.08 310.99 162.159 310.473 162.159ZM320.829 156.074L319.775 156.372C319.708 156.196 319.611 156.026 319.481 155.86C319.355 155.691 319.183 155.552 318.964 155.442C318.746 155.333 318.465 155.278 318.124 155.278C317.657 155.278 317.267 155.386 316.956 155.602C316.648 155.814 316.493 156.084 316.493 156.412C316.493 156.704 316.599 156.934 316.812 157.103C317.024 157.272 317.355 157.413 317.806 157.526L318.939 157.804C319.622 157.97 320.131 158.223 320.466 158.565C320.8 158.903 320.968 159.339 320.968 159.872C320.968 160.31 320.842 160.701 320.59 161.045C320.341 161.39 319.993 161.662 319.546 161.861C319.099 162.06 318.578 162.159 317.985 162.159C317.206 162.159 316.561 161.99 316.051 161.652C315.541 161.314 315.217 160.82 315.081 160.17L316.195 159.892C316.301 160.303 316.502 160.611 316.797 160.817C317.095 161.022 317.484 161.125 317.965 161.125C318.512 161.125 318.946 161.009 319.268 160.777C319.592 160.542 319.755 160.26 319.755 159.932C319.755 159.667 319.662 159.445 319.476 159.266C319.291 159.083 319.006 158.947 318.621 158.858L317.349 158.56C316.649 158.394 316.135 158.137 315.807 157.789C315.483 157.438 315.32 156.999 315.32 156.472C315.32 156.041 315.441 155.66 315.683 155.328C315.928 154.997 316.261 154.737 316.682 154.548C317.107 154.359 317.587 154.264 318.124 154.264C318.88 154.264 319.473 154.43 319.904 154.761C320.338 155.093 320.646 155.53 320.829 156.074Z" fill="#312A53"/>
<g clip-path="url(#clip1_1_160)">
<path d="M136 155L140.553 152.724C140.705 152.648 140.875 152.612 141.045 152.62C141.215 152.627 141.381 152.678 141.526 152.768C141.671 152.857 141.79 152.982 141.873 153.131C141.956 153.28 142 153.448 142 153.618V160.382C142 160.552 141.956 160.72 141.873 160.869C141.79 161.018 141.671 161.143 141.526 161.232C141.381 161.322 141.215 161.373 141.045 161.38C140.875 161.388 140.705 161.352 140.553 161.276L136 159V155Z" stroke="#85D1A0" stroke-width="1.5" stroke-linecap="round" stroke-linejoin="round"/>
<path d="M134 151H126C124.895 151 124 151.895 124 153V161C124 162.105 124.895 163 126 163H134C135.105 163 136 162.105 136 161V153C136 151.895 135.105 151 134 151Z" stroke="#85D1A0" stroke-width="1.5" stroke-linecap="round" stroke-linejoin="round"/>
</g>
<g clip-path="url(#clip2_1_160)">
<path d="M251 163C251.928 163 252.818 162.631 253.475 161.975C254.131 161.318 254.5 160.428 254.5 159.5C254.5 158.572 254.131 157.682 253.475 157.025C252.818 156.369 251.928 156 251 156H250C250.146 155.35 250.148 154.68 250.007 154.03C249.865 153.379 249.582 152.759 249.175 152.207C248.767 151.654 248.243 151.18 247.631 150.809C247.02 150.439 246.333 150.181 245.611 150.05C244.889 149.919 244.145 149.917 243.422 150.044C242.699 150.172 242.01 150.426 241.397 150.793C240.157 151.533 239.295 152.687 239 154C237.934 153.957 236.886 154.27 236.034 154.886C235.183 155.501 234.582 156.38 234.334 157.373C234.086 158.365 234.206 159.41 234.674 160.327C235.142 161.244 235.929 161.977 236.9 162.4" stroke="#85D1A0" stroke-width="1.5" stroke-linecap="round" stroke-linejoin="round"/>
<path d="M244 158V167" stroke="#85D1A0" stroke-width="1.5" stroke-linecap="round" stroke-linejoin="round"/>
<path d="M241 164L244 167L247 164" stroke="#85D1A0" stroke-width="1.5" stroke-linecap="round" stroke-linejoin="round"/>
</g>
<rect x="0.5" y="192.5" width="96" height="40" rx="5.5" stroke="#312A53"/>
<path d="M20.4386 207.091H22.0792V214.825C22.0792 215.525 21.9407 216.123 21.6637 216.62C21.3903 217.118 21.005 217.498 20.5078 217.76C20.0107 218.02 19.4283 218.149 18.7607 218.149C18.1463 218.149 17.5941 218.037 17.104 217.814C16.6175 217.59 16.2322 217.265 15.9482 216.839C15.6676 216.409 15.5273 215.887 15.5273 215.273H17.1626C17.1626 215.575 17.2319 215.836 17.3704 216.056C17.5124 216.276 17.706 216.448 17.951 216.572C18.1996 216.693 18.4837 216.754 18.8033 216.754C19.1513 216.754 19.446 216.681 19.6875 216.535C19.9325 216.386 20.119 216.168 20.2468 215.88C20.3746 215.592 20.4386 215.241 20.4386 214.825V207.091ZM27.7934 218.165C27.0264 218.165 26.357 217.989 25.7852 217.638C25.2135 217.286 24.7696 216.794 24.4536 216.162C24.1375 215.53 23.9795 214.792 23.9795 213.946C23.9795 213.098 24.1375 212.355 24.4536 211.72C24.7696 211.084 25.2135 210.591 25.7852 210.239C26.357 209.887 27.0264 209.712 27.7934 209.712C28.5605 209.712 29.2298 209.887 29.8016 210.239C30.3733 210.591 30.8172 211.084 31.1333 211.72C31.4493 212.355 31.6073 213.098 31.6073 213.946C31.6073 214.792 31.4493 215.53 31.1333 216.162C30.8172 216.794 30.3733 217.286 29.8016 217.638C29.2298 217.989 28.5605 218.165 27.7934 218.165ZM27.7987 216.828C28.2959 216.828 28.7078 216.697 29.0345 216.434C29.3612 216.171 29.6027 215.821 29.759 215.385C29.9188 214.948 29.9987 214.467 29.9987 213.941C29.9987 213.419 29.9188 212.94 29.759 212.503C29.6027 212.062 29.3612 211.709 29.0345 211.443C28.7078 211.176 28.2959 211.043 27.7987 211.043C27.298 211.043 26.8825 211.176 26.5523 211.443C26.2256 211.709 25.9823 212.062 25.8225 212.503C25.6663 212.94 25.5882 213.419 25.5882 213.941C25.5882 214.467 25.6663 214.948 25.8225 215.385C25.9823 215.821 26.2256 216.171 26.5523 216.434C26.8825 216.697 27.298 216.828 27.7987 216.828ZM33.3851 218V209.818H34.9778V218H33.3851ZM34.1895 208.556C33.9125 208.556 33.6745 208.463 33.4757 208.279C33.2804 208.091 33.1827 207.867 33.1827 207.608C33.1827 207.345 33.2804 207.121 33.4757 206.936C33.6745 206.748 33.9125 206.654 34.1895 206.654C34.4664 206.654 34.7026 206.748 34.8979 206.936C35.0968 207.121 35.1962 207.345 35.1962 207.608C35.1962 207.867 35.0968 208.091 34.8979 208.279C34.7026 208.463 34.4664 208.556 34.1895 208.556ZM38.7132 213.142V218H37.1205V209.818H38.6492V211.15H38.7504C38.9387 210.717 39.2334 210.369 39.6347 210.106C40.0395 209.843 40.5491 209.712 41.1634 209.712C41.721 209.712 42.2093 209.829 42.6283 210.063C43.0473 210.294 43.3722 210.638 43.6031 211.097C43.8339 211.555 43.9493 212.121 43.9493 212.796V218H42.3566V212.988C42.3566 212.395 42.2021 211.931 41.8932 211.597C41.5843 211.26 41.1599 211.091 40.6201 211.091C40.2508 211.091 39.9223 211.171 39.6347 211.331C39.3506 211.491 39.1251 211.725 38.9582 212.034C38.7948 212.339 38.7132 212.709 38.7132 213.142ZM58.9879 207.091V218H57.4751L51.93 209.999H51.8288V218H50.1829V207.091H51.7063L57.2567 215.102H57.358V207.091H58.9879ZM64.7075 218.165C63.9404 218.165 63.271 217.989 62.6993 217.638C62.1276 217.286 61.6837 216.794 61.3676 216.162C61.0516 215.53 60.8936 214.792 60.8936 213.946C60.8936 213.098 61.0516 212.355 61.3676 211.72C61.6837 211.084 62.1276 210.591 62.6993 210.239C63.271 209.887 63.9404 209.712 64.7075 209.712C65.4745 209.712 66.1439 209.887 66.7156 210.239C67.2874 210.591 67.7313 211.084 68.0473 211.72C68.3634 212.355 68.5214 213.098 68.5214 213.946C68.5214 214.792 68.3634 215.53 68.0473 216.162C67.7313 216.794 67.2874 217.286 66.7156 217.638C66.1439 217.989 65.4745 218.165 64.7075 218.165ZM64.7128 216.828C65.21 216.828 65.6219 216.697 65.9486 216.434C66.2753 216.171 66.5168 215.821 66.673 215.385C66.8328 214.948 66.9127 214.467 66.9127 213.941C66.9127 213.419 66.8328 212.94 66.673 212.503C66.5168 212.062 66.2753 211.709 65.9486 211.443C65.6219 211.176 65.21 211.043 64.7128 211.043C64.2121 211.043 63.7966 211.176 63.4664 211.443C63.1396 211.709 62.8964 212.062 62.7366 212.503C62.5803 212.94 62.5022 213.419 62.5022 213.941C62.5022 214.467 62.5803 214.948 62.7366 215.385C62.8964 215.821 63.1396 216.171 63.4664 216.434C63.7966 216.697 64.2121 216.828 64.7128 216.828ZM71.824 218L69.4163 209.818H71.0622L72.6656 215.827H72.7455L74.3541 209.818H76.0001L77.5981 215.8H77.678L79.2707 209.818H80.9166L78.5143 218H76.8896L75.2277 212.093H75.1052L73.4433 218H71.824Z" fill="#312A53"/>
<defs>
<clipPath id="clip0_1_160">
<rect width="24" height="24" fill="white" transform="translate(0 145)"/>
</clipPath>
<clipPath id="clip1_1_160">
<rect width="24" height="24" fill="white" transform="translate(121 145)"/>
</clipPath>
<clipPath id="clip2_1_160">
<rect width="24" height="24" fill="white" transform="translate(232 145)"/>
</clipPath>
</defs>
</svg>
