<svg width="322" height="306" viewBox="0 0 322 306" fill="none" xmlns="http://www.w3.org/2000/svg">
<g clip-path="url(#clip0_1_134)">
<path d="M7.5 47.5H52.5" stroke="#6255A5" stroke-width="1.5" stroke-linecap="round" stroke-linejoin="round"/>
<path d="M45 15H15C13.6193 15 12.5 16.1193 12.5 17.5V37.5C12.5 38.8807 13.6193 40 15 40H45C46.3807 40 47.5 38.8807 47.5 37.5V17.5C47.5 16.1193 46.3807 15 45 15Z" stroke="#6255A5" stroke-width="1.5" stroke-linecap="round" stroke-linejoin="round"/>
</g>
<path d="M1.59801 94V79.4545H3.79261V85.7756H11.044V79.4545H13.2457V94H11.044V87.6577H3.79261V94H1.59801ZM20.8665 94.2202C19.8438 94.2202 18.9512 93.9858 18.1889 93.517C17.4266 93.0483 16.8348 92.3925 16.4134 91.5497C15.992 90.7069 15.7812 89.7221 15.7812 88.5952C15.7812 87.4635 15.992 86.474 16.4134 85.6264C16.8348 84.7789 17.4266 84.1207 18.1889 83.652C18.9512 83.1832 19.8438 82.9489 20.8665 82.9489C21.8892 82.9489 22.7817 83.1832 23.544 83.652C24.3063 84.1207 24.8982 84.7789 25.3196 85.6264C25.741 86.474 25.9517 87.4635 25.9517 88.5952C25.9517 89.7221 25.741 90.7069 25.3196 91.5497C24.8982 92.3925 24.3063 93.0483 23.544 93.517C22.7817 93.9858 21.8892 94.2202 20.8665 94.2202ZM20.8736 92.4375C21.5365 92.4375 22.0857 92.2623 22.5213 91.9119C22.9569 91.5616 23.2789 91.0952 23.4872 90.5128C23.7003 89.9304 23.8068 89.2888 23.8068 88.5881C23.8068 87.892 23.7003 87.2528 23.4872 86.6705C23.2789 86.0833 22.9569 85.6122 22.5213 85.2571C22.0857 84.902 21.5365 84.7244 20.8736 84.7244C20.206 84.7244 19.652 84.902 19.2116 85.2571C18.776 85.6122 18.4517 86.0833 18.2386 86.6705C18.0303 87.2528 17.9261 87.892 17.9261 88.5881C17.9261 89.2888 18.0303 89.9304 18.2386 90.5128C18.4517 91.0952 18.776 91.5616 19.2116 91.9119C19.652 92.2623 20.206 92.4375 20.8736 92.4375ZM30.3551 94L27.1449 83.0909H29.3395L31.4773 91.1023H31.5838L33.7287 83.0909H35.9233L38.054 91.0668H38.1605L40.2841 83.0909H42.4787L39.2756 94H37.1094L34.8935 86.1236H34.7301L32.5142 94H30.3551ZM54.8793 83.0909V84.7955H48.9205V83.0909H54.8793ZM50.5185 80.4773H52.642V90.7969C52.642 91.2088 52.7036 91.5189 52.8267 91.7273C52.9498 91.9309 53.1084 92.0705 53.3026 92.1463C53.5014 92.2173 53.7169 92.2528 53.9489 92.2528C54.1193 92.2528 54.2685 92.241 54.3963 92.2173C54.5241 92.1937 54.6236 92.1747 54.6946 92.1605L55.0781 93.9148C54.955 93.9621 54.7798 94.0095 54.5526 94.0568C54.3253 94.1089 54.0412 94.1373 53.7003 94.142C53.1416 94.1515 52.6207 94.0521 52.1378 93.8438C51.6548 93.6354 51.2642 93.3134 50.9659 92.8778C50.6676 92.4422 50.5185 91.8954 50.5185 91.2372V80.4773ZM61.7063 94.2202C60.6836 94.2202 59.7911 93.9858 59.0288 93.517C58.2665 93.0483 57.6746 92.3925 57.2532 91.5497C56.8318 90.7069 56.6211 89.7221 56.6211 88.5952C56.6211 87.4635 56.8318 86.474 57.2532 85.6264C57.6746 84.7789 58.2665 84.1207 59.0288 83.652C59.7911 83.1832 60.6836 82.9489 61.7063 82.9489C62.729 82.9489 63.6216 83.1832 64.3839 83.652C65.1462 84.1207 65.738 84.7789 66.1594 85.6264C66.5808 86.474 66.7915 87.4635 66.7915 88.5952C66.7915 89.7221 66.5808 90.7069 66.1594 91.5497C65.738 92.3925 65.1462 93.0483 64.3839 93.517C63.6216 93.9858 62.729 94.2202 61.7063 94.2202ZM61.7134 92.4375C62.3763 92.4375 62.9255 92.2623 63.3612 91.9119C63.7968 91.5616 64.1187 91.0952 64.3271 90.5128C64.5401 89.9304 64.6467 89.2888 64.6467 88.5881C64.6467 87.892 64.5401 87.2528 64.3271 86.6705C64.1187 86.0833 63.7968 85.6122 63.3612 85.2571C62.9255 84.902 62.3763 84.7244 61.7134 84.7244C61.0458 84.7244 60.4918 84.902 60.0515 85.2571C59.6159 85.6122 59.2915 86.0833 59.0785 86.6705C58.8701 87.2528 58.766 87.892 58.766 88.5881C58.766 89.2888 58.8701 89.9304 59.0785 90.5128C59.2915 91.0952 59.6159 91.5616 60.0515 91.9119C60.4918 92.2623 61.0458 92.4375 61.7134 92.4375ZM82.6296 85.7543L80.7049 86.0952C80.6244 85.849 80.4966 85.6146 80.3214 85.392C80.1509 85.1695 79.9189 84.9872 79.6254 84.8452C79.3318 84.7031 78.9648 84.6321 78.5245 84.6321C77.9232 84.6321 77.4213 84.767 77.0188 85.0369C76.6164 85.3021 76.4151 85.6454 76.4151 86.0668C76.4151 86.4313 76.5501 86.7249 76.82 86.9474C77.0898 87.17 77.5254 87.3523 78.1268 87.4943L79.8597 87.892C80.8635 88.1241 81.6116 88.4815 82.104 88.9645C82.5965 89.4474 82.8427 90.0748 82.8427 90.8466C82.8427 91.5 82.6533 92.0824 82.2745 92.5938C81.9005 93.1004 81.3772 93.4981 80.7049 93.7869C80.0373 94.0758 79.2631 94.2202 78.3825 94.2202C77.1609 94.2202 76.1642 93.9598 75.3924 93.4389C74.6206 92.9134 74.1471 92.1676 73.9719 91.2017L76.0245 90.8892C76.1523 91.4242 76.4151 91.8291 76.8129 92.1037C77.2106 92.3736 77.729 92.5085 78.3683 92.5085C79.0643 92.5085 79.6206 92.3641 80.0373 92.0753C80.454 91.7817 80.6623 91.4242 80.6623 91.0028C80.6623 90.6619 80.5344 90.3755 80.2788 90.1435C80.0278 89.9115 79.6419 89.7363 79.1211 89.6179L77.2745 89.2131C76.2565 88.9811 75.5037 88.6117 75.016 88.1051C74.533 87.5985 74.2915 86.9569 74.2915 86.1804C74.2915 85.5365 74.4715 84.973 74.8313 84.4901C75.1912 84.0071 75.6883 83.6307 76.3228 83.3608C76.9573 83.0862 77.6841 82.9489 78.5032 82.9489C79.6822 82.9489 80.6102 83.2045 81.2873 83.7159C81.9644 84.2225 82.4118 84.902 82.6296 85.7543ZM90.2699 83.0909V84.7955H84.3111V83.0909H90.2699ZM85.9091 80.4773H88.0327V90.7969C88.0327 91.2088 88.0942 91.5189 88.2173 91.7273C88.3404 91.9309 88.4991 92.0705 88.6932 92.1463C88.892 92.2173 89.1075 92.2528 89.3395 92.2528C89.5099 92.2528 89.6591 92.241 89.7869 92.2173C89.9148 92.1937 90.0142 92.1747 90.0852 92.1605L90.4688 93.9148C90.3456 93.9621 90.1705 94.0095 89.9432 94.0568C89.7159 94.1089 89.4318 94.1373 89.0909 94.142C88.5322 94.1515 88.0114 94.0521 87.5284 93.8438C87.0455 93.6354 86.6548 93.3134 86.3565 92.8778C86.0582 92.4422 85.9091 91.8954 85.9091 91.2372V80.4773ZM95.7937 94.2415C95.1024 94.2415 94.4774 94.1136 93.9187 93.858C93.36 93.5975 92.9173 93.2211 92.5906 92.7287C92.2686 92.2363 92.1076 91.6326 92.1076 90.9176C92.1076 90.3021 92.226 89.7955 92.4627 89.3977C92.6995 89 93.0191 88.6851 93.4215 88.4531C93.824 88.2211 94.2738 88.0459 94.771 87.9276C95.2681 87.8092 95.7747 87.7192 96.2908 87.6577C96.9442 87.5819 97.4746 87.5204 97.8817 87.473C98.2889 87.4209 98.5849 87.3381 98.7695 87.2244C98.9542 87.1108 99.0465 86.9261 99.0465 86.6705V86.6207C99.0465 86.0005 98.8713 85.5199 98.521 85.179C98.1753 84.8381 97.6592 84.6676 96.9727 84.6676C96.2577 84.6676 95.6942 84.8262 95.2823 85.1435C94.8751 85.456 94.5934 85.804 94.4371 86.1875L92.4414 85.733C92.6781 85.0701 93.0238 84.535 93.4783 84.1278C93.9376 83.7159 94.4656 83.4176 95.0621 83.233C95.6587 83.0436 96.2861 82.9489 96.9442 82.9489C97.3799 82.9489 97.8415 83.0009 98.3292 83.1051C98.8216 83.2045 99.2809 83.3892 99.707 83.6591C100.138 83.929 100.491 84.3149 100.765 84.8168C101.04 85.3139 101.177 85.9602 101.177 86.7557V94H99.1033V92.5085H99.0181C98.8808 92.7831 98.6748 93.053 98.4002 93.3182C98.1256 93.5833 97.7728 93.8035 97.342 93.9787C96.9111 94.1539 96.395 94.2415 95.7937 94.2415ZM96.2553 92.5369C96.8424 92.5369 97.3443 92.4209 97.761 92.1889C98.1824 91.9569 98.502 91.6539 98.7198 91.2798C98.9424 90.901 99.0536 90.4962 99.0536 90.0653V88.6591C98.9779 88.7348 98.8311 88.8059 98.6133 88.8722C98.4002 88.9337 98.1564 88.9882 97.8817 89.0355C97.6071 89.0781 97.3396 89.1184 97.0792 89.1562C96.8188 89.1894 96.601 89.2178 96.4258 89.2415C96.0138 89.2936 95.6374 89.3812 95.2965 89.5043C94.9603 89.6274 94.6905 89.8049 94.4869 90.0369C94.288 90.2642 94.1886 90.5672 94.1886 90.946C94.1886 91.4716 94.3827 91.8693 94.771 92.1392C95.1592 92.4044 95.654 92.5369 96.2553 92.5369ZM104.006 94V83.0909H106.058V84.8239H106.172C106.371 84.2367 106.721 83.7751 107.223 83.4389C107.73 83.098 108.303 82.9276 108.942 82.9276C109.074 82.9276 109.231 82.9323 109.411 82.9418C109.595 82.9512 109.74 82.9631 109.844 82.9773V85.0085C109.759 84.9848 109.607 84.9588 109.389 84.9304C109.171 84.8973 108.954 84.8807 108.736 84.8807C108.234 84.8807 107.786 84.9872 107.393 85.2003C107.005 85.4086 106.697 85.6998 106.47 86.0739C106.243 86.4432 106.129 86.8646 106.129 87.3381V94H104.006ZM117.418 83.0909V84.7955H111.46V83.0909H117.418ZM113.058 80.4773H115.181V90.7969C115.181 91.2088 115.243 91.5189 115.366 91.7273C115.489 91.9309 115.647 92.0705 115.842 92.1463C116.04 92.2173 116.256 92.2528 116.488 92.2528C116.658 92.2528 116.808 92.241 116.935 92.2173C117.063 92.1937 117.163 92.1747 117.234 92.1605L117.617 93.9148C117.494 93.9621 117.319 94.0095 117.092 94.0568C116.864 94.1089 116.58 94.1373 116.239 94.142C115.681 94.1515 115.16 94.0521 114.677 93.8438C114.194 93.6354 113.803 93.3134 113.505 92.8778C113.207 92.4422 113.058 91.8954 113.058 91.2372V80.4773ZM125.06 98.0909V83.0909H127.134V84.8594H127.312C127.435 84.6321 127.612 84.3693 127.844 84.071C128.076 83.7727 128.398 83.5123 128.81 83.2898C129.222 83.0625 129.767 82.9489 130.444 82.9489C131.325 82.9489 132.111 83.1714 132.802 83.6165C133.493 84.0616 134.035 84.7031 134.428 85.5412C134.826 86.3793 135.025 87.3878 135.025 88.5668C135.025 89.7457 134.828 90.7566 134.435 91.5994C134.042 92.4375 133.503 93.0838 132.816 93.5384C132.129 93.9882 131.346 94.2131 130.465 94.2131C129.802 94.2131 129.26 94.1018 128.839 93.8793C128.422 93.6567 128.095 93.3963 127.859 93.098C127.622 92.7997 127.44 92.5346 127.312 92.3026H127.184V98.0909H125.06ZM127.141 88.5455C127.141 89.3125 127.253 89.9848 127.475 90.5625C127.698 91.1402 128.02 91.5923 128.441 91.919C128.862 92.241 129.379 92.402 129.989 92.402C130.624 92.402 131.154 92.2339 131.58 91.8977C132.006 91.5568 132.328 91.0952 132.546 90.5128C132.769 89.9304 132.88 89.2746 132.88 88.5455C132.88 87.8258 132.771 87.1795 132.553 86.6065C132.34 86.0336 132.018 85.5814 131.587 85.25C131.161 84.9186 130.629 84.7528 129.989 84.7528C129.374 84.7528 128.853 84.9115 128.427 85.2287C128.005 85.5459 127.686 85.9886 127.468 86.5568C127.25 87.125 127.141 87.7879 127.141 88.5455ZM137.404 94V83.0909H139.457V84.8239H139.57C139.769 84.2367 140.12 83.7751 140.621 83.4389C141.128 83.098 141.701 82.9276 142.34 82.9276C142.473 82.9276 142.629 82.9323 142.809 82.9418C142.994 82.9512 143.138 82.9631 143.242 82.9773V85.0085C143.157 84.9848 143.005 84.9588 142.788 84.9304C142.57 84.8973 142.352 84.8807 142.134 84.8807C141.632 84.8807 141.185 84.9872 140.792 85.2003C140.404 85.4086 140.096 85.6998 139.869 86.0739C139.641 86.4432 139.528 86.8646 139.528 87.3381V94H137.404ZM149.284 94.2202C148.262 94.2202 147.369 93.9858 146.607 93.517C145.845 93.0483 145.253 92.3925 144.831 91.5497C144.41 90.7069 144.199 89.7221 144.199 88.5952C144.199 87.4635 144.41 86.474 144.831 85.6264C145.253 84.7789 145.845 84.1207 146.607 83.652C147.369 83.1832 148.262 82.9489 149.284 82.9489C150.307 82.9489 151.2 83.1832 151.962 83.652C152.724 84.1207 153.316 84.7789 153.738 85.6264C154.159 86.474 154.37 87.4635 154.37 88.5952C154.37 89.7221 154.159 90.7069 153.738 91.5497C153.316 92.3925 152.724 93.0483 151.962 93.517C151.2 93.9858 150.307 94.2202 149.284 94.2202ZM149.292 92.4375C149.954 92.4375 150.504 92.2623 150.939 91.9119C151.375 91.5616 151.697 91.0952 151.905 90.5128C152.118 89.9304 152.225 89.2888 152.225 88.5881C152.225 87.892 152.118 87.2528 151.905 86.6705C151.697 86.0833 151.375 85.6122 150.939 85.2571C150.504 84.902 149.954 84.7244 149.292 84.7244C148.624 84.7244 148.07 84.902 147.63 85.2571C147.194 85.6122 146.87 86.0833 146.657 86.6705C146.448 87.2528 146.344 87.892 146.344 88.5881C146.344 89.2888 146.448 89.9304 146.657 90.5128C146.87 91.0952 147.194 91.5616 147.63 91.9119C148.07 92.2623 148.624 92.4375 149.292 92.4375ZM161.335 94.2202C160.279 94.2202 159.37 93.9811 158.608 93.5028C157.85 93.0199 157.268 92.3546 156.861 91.5071C156.454 90.6596 156.25 89.6889 156.25 88.5952C156.25 87.4872 156.458 86.5095 156.875 85.6619C157.292 84.8097 157.879 84.1444 158.636 83.6662C159.394 83.188 160.286 82.9489 161.314 82.9489C162.143 82.9489 162.881 83.1027 163.53 83.4105C164.179 83.7135 164.702 84.1397 165.099 84.6889C165.502 85.2382 165.741 85.8797 165.817 86.6136H163.75C163.636 86.1023 163.376 85.6619 162.969 85.2926C162.566 84.9233 162.027 84.7386 161.349 84.7386C160.758 84.7386 160.239 84.8949 159.794 85.2074C159.354 85.5152 159.01 85.9555 158.764 86.5284C158.518 87.0966 158.395 87.7689 158.395 88.5455C158.395 89.3409 158.516 90.0275 158.757 90.6051C158.999 91.1828 159.339 91.6302 159.78 91.9474C160.225 92.2647 160.748 92.4233 161.349 92.4233C161.752 92.4233 162.116 92.3499 162.443 92.2031C162.775 92.0516 163.052 91.8362 163.274 91.5568C163.501 91.2775 163.66 90.9413 163.75 90.5483H165.817C165.741 91.2538 165.511 91.8835 165.128 92.4375C164.744 92.9915 164.231 93.4271 163.587 93.7443C162.947 94.0616 162.197 94.2202 161.335 94.2202ZM172.789 94.2202C171.715 94.2202 170.789 93.9905 170.012 93.5312C169.241 93.0672 168.644 92.4162 168.223 91.5781C167.806 90.7353 167.598 89.7481 167.598 88.6165C167.598 87.4991 167.806 86.5142 168.223 85.6619C168.644 84.8097 169.231 84.1444 169.984 83.6662C170.742 83.188 171.627 82.9489 172.64 82.9489C173.256 82.9489 173.852 83.0507 174.43 83.2543C175.008 83.4579 175.526 83.7775 175.985 84.2131C176.445 84.6487 176.807 85.2145 177.072 85.9105C177.337 86.6018 177.47 87.4422 177.47 88.4318V89.1847H168.798V87.5938H175.389C175.389 87.035 175.275 86.5402 175.048 86.1094C174.821 85.6738 174.501 85.3305 174.089 85.0795C173.682 84.8286 173.204 84.7031 172.654 84.7031C172.058 84.7031 171.537 84.8499 171.092 85.1435C170.652 85.4323 170.311 85.8111 170.069 86.2798C169.833 86.7438 169.714 87.2481 169.714 87.7926V89.0355C169.714 89.7647 169.842 90.3849 170.098 90.8963C170.358 91.4077 170.72 91.7983 171.184 92.0682C171.648 92.3333 172.19 92.4659 172.811 92.4659C173.213 92.4659 173.58 92.4091 173.912 92.2955C174.243 92.1771 174.529 92.0019 174.771 91.7699C175.012 91.5379 175.197 91.2514 175.325 90.9105L177.335 91.2727C177.174 91.8646 176.885 92.383 176.468 92.8281C176.056 93.2685 175.538 93.6117 174.913 93.858C174.293 94.0994 173.585 94.2202 172.789 94.2202ZM188.001 85.7543L186.076 86.0952C185.996 85.849 185.868 85.6146 185.692 85.392C185.522 85.1695 185.29 84.9872 184.996 84.8452C184.703 84.7031 184.336 84.6321 183.896 84.6321C183.294 84.6321 182.792 84.767 182.39 85.0369C181.987 85.3021 181.786 85.6454 181.786 86.0668C181.786 86.4313 181.921 86.7249 182.191 86.9474C182.461 87.17 182.897 87.3523 183.498 87.4943L185.231 87.892C186.235 88.1241 186.983 88.4815 187.475 88.9645C187.968 89.4474 188.214 90.0748 188.214 90.8466C188.214 91.5 188.024 92.0824 187.646 92.5938C187.272 93.1004 186.748 93.4981 186.076 93.7869C185.408 94.0758 184.634 94.2202 183.754 94.2202C182.532 94.2202 181.535 93.9598 180.763 93.4389C179.992 92.9134 179.518 92.1676 179.343 91.2017L181.396 90.8892C181.523 91.4242 181.786 91.8291 182.184 92.1037C182.582 92.3736 183.1 92.5085 183.739 92.5085C184.435 92.5085 184.992 92.3641 185.408 92.0753C185.825 91.7817 186.033 91.4242 186.033 91.0028C186.033 90.6619 185.906 90.3755 185.65 90.1435C185.399 89.9115 185.013 89.7363 184.492 89.6179L182.646 89.2131C181.628 88.9811 180.875 88.6117 180.387 88.1051C179.904 87.5985 179.663 86.9569 179.663 86.1804C179.663 85.5365 179.843 84.973 180.202 84.4901C180.562 84.0071 181.059 83.6307 181.694 83.3608C182.328 83.0862 183.055 82.9489 183.874 82.9489C185.053 82.9489 185.981 83.2045 186.658 83.7159C187.335 84.2225 187.783 84.902 188.001 85.7543ZM198.723 85.7543L196.799 86.0952C196.718 85.849 196.59 85.6146 196.415 85.392C196.245 85.1695 196.013 84.9872 195.719 84.8452C195.426 84.7031 195.059 84.6321 194.618 84.6321C194.017 84.6321 193.515 84.767 193.113 85.0369C192.71 85.3021 192.509 85.6454 192.509 86.0668C192.509 86.4313 192.644 86.7249 192.914 86.9474C193.184 87.17 193.619 87.3523 194.221 87.4943L195.953 87.892C196.957 88.1241 197.705 88.4815 198.198 88.9645C198.69 89.4474 198.936 90.0748 198.936 90.8466C198.936 91.5 198.747 92.0824 198.368 92.5938C197.994 93.1004 197.471 93.4981 196.799 93.7869C196.131 94.0758 195.357 94.2202 194.476 94.2202C193.255 94.2202 192.258 93.9598 191.486 93.4389C190.714 92.9134 190.241 92.1676 190.066 91.2017L192.118 90.8892C192.246 91.4242 192.509 91.8291 192.907 92.1037C193.304 92.3736 193.823 92.5085 194.462 92.5085C195.158 92.5085 195.714 92.3641 196.131 92.0753C196.548 91.7817 196.756 91.4242 196.756 91.0028C196.756 90.6619 196.628 90.3755 196.373 90.1435C196.122 89.9115 195.736 89.7363 195.215 89.6179L193.368 89.2131C192.35 88.9811 191.597 88.6117 191.11 88.1051C190.627 87.5985 190.385 86.9569 190.385 86.1804C190.385 85.5365 190.565 84.973 190.925 84.4901C191.285 84.0071 191.782 83.6307 192.417 83.3608C193.051 83.0862 193.778 82.9489 194.597 82.9489C195.776 82.9489 196.704 83.2045 197.381 83.7159C198.058 84.2225 198.506 84.902 198.723 85.7543ZM201.271 94V83.0909H203.395V94H201.271ZM202.344 81.4077C201.974 81.4077 201.657 81.2846 201.392 81.0384C201.132 80.7874 201.001 80.4891 201.001 80.1435C201.001 79.7931 201.132 79.4948 201.392 79.2486C201.657 78.9976 201.974 78.8722 202.344 78.8722C202.713 78.8722 203.028 78.9976 203.288 79.2486C203.554 79.4948 203.686 79.7931 203.686 80.1435C203.686 80.4891 203.554 80.7874 203.288 81.0384C203.028 81.2846 202.713 81.4077 202.344 81.4077ZM208.375 87.5227V94H206.252V83.0909H208.29V84.8665H208.425C208.676 84.2888 209.069 83.8248 209.604 83.4744C210.144 83.1241 210.823 82.9489 211.642 82.9489C212.386 82.9489 213.037 83.1051 213.596 83.4176C214.154 83.7254 214.587 84.1847 214.895 84.7955C215.203 85.4062 215.357 86.1615 215.357 87.0611V94H213.233V87.3168C213.233 86.526 213.027 85.9081 212.615 85.4631C212.203 85.0133 211.638 84.7884 210.918 84.7884C210.426 84.7884 209.988 84.8949 209.604 85.108C209.225 85.321 208.925 85.6335 208.702 86.0455C208.484 86.4527 208.375 86.9451 208.375 87.5227ZM222.779 98.3182C221.912 98.3182 221.167 98.2045 220.542 97.9773C219.921 97.75 219.415 97.4493 219.022 97.0753C218.629 96.7012 218.335 96.2917 218.141 95.8466L219.966 95.0938C220.094 95.3021 220.265 95.5223 220.478 95.7543C220.695 95.991 220.989 96.1922 221.358 96.358C221.732 96.5237 222.213 96.6065 222.8 96.6065C223.605 96.6065 224.27 96.41 224.796 96.017C225.321 95.6288 225.584 95.0085 225.584 94.1562V92.0114H225.449C225.321 92.2434 225.137 92.5014 224.895 92.7855C224.658 93.0696 224.332 93.3158 223.915 93.5241C223.498 93.7325 222.956 93.8366 222.289 93.8366C221.427 93.8366 220.65 93.6354 219.959 93.233C219.273 92.8258 218.728 92.2268 218.326 91.4361C217.928 90.6406 217.729 89.6629 217.729 88.5028C217.729 87.3428 217.926 86.3485 218.319 85.5199C218.716 84.6913 219.261 84.0568 219.952 83.6165C220.643 83.1714 221.427 82.9489 222.303 82.9489C222.98 82.9489 223.527 83.0625 223.944 83.2898C224.36 83.5123 224.685 83.7727 224.917 84.071C225.153 84.3693 225.336 84.6321 225.463 84.8594H225.62V83.0909H227.701V94.2415C227.701 95.179 227.483 95.9484 227.047 96.5497C226.612 97.151 226.022 97.5961 225.279 97.8849C224.54 98.1738 223.707 98.3182 222.779 98.3182ZM222.757 92.0753C223.368 92.0753 223.884 91.9332 224.306 91.6491C224.732 91.3603 225.054 90.9484 225.272 90.4134C225.494 89.8736 225.605 89.2273 225.605 88.4744C225.605 87.7405 225.497 87.0942 225.279 86.5355C225.061 85.9768 224.741 85.5412 224.32 85.2287C223.899 84.9115 223.378 84.7528 222.757 84.7528C222.118 84.7528 221.586 84.9186 221.159 85.25C220.733 85.5767 220.411 86.0218 220.194 86.5852C219.98 87.1487 219.874 87.7784 219.874 88.4744C219.874 89.1894 219.983 89.8168 220.201 90.3565C220.418 90.8963 220.74 91.3177 221.167 91.6207C221.597 91.9238 222.128 92.0753 222.757 92.0753ZM240.437 94.2202C239.414 94.2202 238.522 93.9858 237.759 93.517C236.997 93.0483 236.405 92.3925 235.984 91.5497C235.562 90.7069 235.352 89.7221 235.352 88.5952C235.352 87.4635 235.562 86.474 235.984 85.6264C236.405 84.7789 236.997 84.1207 237.759 83.652C238.522 83.1832 239.414 82.9489 240.437 82.9489C241.46 82.9489 242.352 83.1832 243.114 83.652C243.877 84.1207 244.469 84.7789 244.89 85.6264C245.311 86.474 245.522 87.4635 245.522 88.5952C245.522 89.7221 245.311 90.7069 244.89 91.5497C244.469 92.3925 243.877 93.0483 243.114 93.517C242.352 93.9858 241.46 94.2202 240.437 94.2202ZM240.444 92.4375C241.107 92.4375 241.656 92.2623 242.092 91.9119C242.527 91.5616 242.849 91.0952 243.058 90.5128C243.271 89.9304 243.377 89.2888 243.377 88.5881C243.377 87.892 243.271 87.2528 243.058 86.6705C242.849 86.0833 242.527 85.6122 242.092 85.2571C241.656 84.902 241.107 84.7244 240.444 84.7244C239.776 84.7244 239.222 84.902 238.782 85.2571C238.346 85.6122 238.022 86.0833 237.809 86.6705C237.601 87.2528 237.496 87.892 237.496 88.5881C237.496 89.2888 237.601 89.9304 237.809 90.5128C238.022 91.0952 238.346 91.5616 238.782 91.9119C239.222 92.2623 239.776 92.4375 240.444 92.4375ZM253.084 83.0909V84.7955H246.919V83.0909H253.084ZM248.61 94V81.8267C248.61 81.1449 248.759 80.5791 249.057 80.1293C249.355 79.6747 249.751 79.3362 250.243 79.1136C250.736 78.8864 251.271 78.7727 251.848 78.7727C252.275 78.7727 252.639 78.8082 252.942 78.8793C253.245 78.9455 253.47 79.0071 253.617 79.0639L253.12 80.7827C253.02 80.7543 252.892 80.7211 252.736 80.6832C252.58 80.6406 252.391 80.6193 252.168 80.6193C251.652 80.6193 251.283 80.7472 251.06 81.0028C250.842 81.2585 250.733 81.6278 250.733 82.1108V94H248.61ZM10.9517 107.455H13.1534V117.021C13.1534 118.039 12.9143 118.941 12.4361 119.727C11.9579 120.509 11.2855 121.124 10.419 121.574C9.55256 122.019 8.53693 122.241 7.37216 122.241C6.21212 122.241 5.19886 122.019 4.33239 121.574C3.46591 121.124 2.79356 120.509 2.31534 119.727C1.83712 118.941 1.59801 118.039 1.59801 117.021V107.455H3.79261V116.844C3.79261 117.502 3.93703 118.087 4.22585 118.598C4.51941 119.109 4.93371 119.512 5.46875 119.805C6.00379 120.094 6.63826 120.239 7.37216 120.239C8.1108 120.239 8.74763 120.094 9.28267 119.805C9.82244 119.512 10.2344 119.109 10.5185 118.598C10.8073 118.087 10.9517 117.502 10.9517 116.844V107.455ZM17.8711 107.455L21.3512 113.143H21.4648L24.945 107.455H27.4876L22.9563 114.727L27.516 122H24.9592L21.4648 116.389H21.3512L17.8569 122H15.3001L19.9379 114.727L15.3285 107.455H17.8711ZM38.8707 122.213C37.9901 122.213 37.2041 121.988 36.5128 121.538C35.8262 121.084 35.2865 120.437 34.8935 119.599C34.5052 118.757 34.3111 117.746 34.3111 116.567C34.3111 115.388 34.5076 114.379 34.9006 113.541C35.2983 112.703 35.8428 112.062 36.5341 111.616C37.2254 111.171 38.009 110.949 38.8849 110.949C39.562 110.949 40.1065 111.062 40.5185 111.29C40.9351 111.512 41.2571 111.773 41.4844 112.071C41.7164 112.369 41.8963 112.632 42.0241 112.859H42.152V107.455H44.2756V122H42.2017V120.303H42.0241C41.8963 120.535 41.7116 120.8 41.4702 121.098C41.2334 121.396 40.9067 121.657 40.4901 121.879C40.0734 122.102 39.5336 122.213 38.8707 122.213ZM39.3395 120.402C39.9503 120.402 40.4664 120.241 40.8878 119.919C41.3139 119.592 41.6359 119.14 41.8537 118.562C42.0762 117.985 42.1875 117.312 42.1875 116.545C42.1875 115.788 42.0786 115.125 41.8608 114.557C41.643 113.989 41.3234 113.546 40.902 113.229C40.4806 112.911 39.9598 112.753 39.3395 112.753C38.7003 112.753 38.1676 112.919 37.7415 113.25C37.3153 113.581 36.9934 114.034 36.7756 114.607C36.5625 115.179 36.456 115.826 36.456 116.545C36.456 117.275 36.5649 117.93 36.7827 118.513C37.0005 119.095 37.3224 119.557 37.7486 119.898C38.1795 120.234 38.7098 120.402 39.3395 120.402ZM52.0082 122.22C50.9334 122.22 50.0077 121.991 49.2312 121.531C48.4594 121.067 47.8628 120.416 47.4414 119.578C47.0247 118.735 46.8164 117.748 46.8164 116.616C46.8164 115.499 47.0247 114.514 47.4414 113.662C47.8628 112.81 48.4499 112.144 49.2028 111.666C49.9603 111.188 50.8458 110.949 51.859 110.949C52.4746 110.949 53.0711 111.051 53.6488 111.254C54.2264 111.458 54.7449 111.777 55.2042 112.213C55.6635 112.649 56.0257 113.214 56.2908 113.911C56.556 114.602 56.6886 115.442 56.6886 116.432V117.185H48.0167V115.594H54.6076C54.6076 115.035 54.494 114.54 54.2667 114.109C54.0394 113.674 53.7198 113.33 53.3079 113.08C52.9007 112.829 52.4225 112.703 51.8732 112.703C51.2766 112.703 50.7558 112.85 50.3107 113.143C49.8704 113.432 49.5295 113.811 49.288 114.28C49.0513 114.744 48.9329 115.248 48.9329 115.793V117.036C48.9329 117.765 49.0607 118.385 49.3164 118.896C49.5768 119.408 49.939 119.798 50.4031 120.068C50.8671 120.333 51.4092 120.466 52.0295 120.466C52.4319 120.466 52.7989 120.409 53.1303 120.295C53.4618 120.177 53.7482 120.002 53.9897 119.77C54.2312 119.538 54.4158 119.251 54.5437 118.911L56.5536 119.273C56.3926 119.865 56.1038 120.383 55.6871 120.828C55.2752 121.268 54.7567 121.612 54.1317 121.858C53.5115 122.099 52.8036 122.22 52.0082 122.22ZM67.2195 113.754L65.2947 114.095C65.2143 113.849 65.0864 113.615 64.9112 113.392C64.7408 113.17 64.5088 112.987 64.2152 112.845C63.9216 112.703 63.5547 112.632 63.1143 112.632C62.513 112.632 62.0111 112.767 61.6087 113.037C61.2062 113.302 61.005 113.645 61.005 114.067C61.005 114.431 61.1399 114.725 61.4098 114.947C61.6797 115.17 62.1153 115.352 62.7166 115.494L64.4496 115.892C65.4534 116.124 66.2015 116.482 66.6939 116.964C67.1863 117.447 67.4325 118.075 67.4325 118.847C67.4325 119.5 67.2431 120.082 66.8643 120.594C66.4903 121.1 65.9671 121.498 65.2947 121.787C64.6271 122.076 63.853 122.22 62.9723 122.22C61.7507 122.22 60.754 121.96 59.9822 121.439C59.2105 120.913 58.737 120.168 58.5618 119.202L60.6143 118.889C60.7422 119.424 61.005 119.829 61.4027 120.104C61.8004 120.374 62.3189 120.509 62.9581 120.509C63.6541 120.509 64.2105 120.364 64.6271 120.075C65.0438 119.782 65.2521 119.424 65.2521 119.003C65.2521 118.662 65.1243 118.375 64.8686 118.143C64.6177 117.911 64.2318 117.736 63.7109 117.618L61.8643 117.213C60.8464 116.981 60.0935 116.612 59.6058 116.105C59.1229 115.598 58.8814 114.957 58.8814 114.18C58.8814 113.536 59.0613 112.973 59.4212 112.49C59.781 112.007 60.2782 111.631 60.9126 111.361C61.5471 111.086 62.2739 110.949 63.093 110.949C64.272 110.949 65.2 111.205 65.8771 111.716C66.5542 112.223 67.0017 112.902 67.2195 113.754ZM69.7674 122V111.091H71.891V122H69.7674ZM70.8398 109.408C70.4705 109.408 70.1533 109.285 69.8881 109.038C69.6277 108.787 69.4975 108.489 69.4975 108.143C69.4975 107.793 69.6277 107.495 69.8881 107.249C70.1533 106.998 70.4705 106.872 70.8398 106.872C71.2092 106.872 71.524 106.998 71.7844 107.249C72.0496 107.495 72.1822 107.793 72.1822 108.143C72.1822 108.489 72.0496 108.787 71.7844 109.038C71.524 109.285 71.2092 109.408 70.8398 109.408ZM79.3217 126.318C78.4553 126.318 77.7095 126.205 77.0845 125.977C76.4643 125.75 75.9576 125.449 75.5646 125.075C75.1716 124.701 74.8781 124.292 74.6839 123.847L76.5092 123.094C76.6371 123.302 76.8075 123.522 77.0206 123.754C77.2384 123.991 77.532 124.192 77.9013 124.358C78.2753 124.524 78.7559 124.607 79.343 124.607C80.148 124.607 80.8132 124.41 81.3388 124.017C81.8643 123.629 82.1271 123.009 82.1271 122.156V120.011H81.9922C81.8643 120.243 81.6797 120.501 81.4382 120.786C81.2015 121.07 80.8748 121.316 80.4581 121.524C80.0414 121.732 79.4993 121.837 78.8317 121.837C77.9699 121.837 77.1934 121.635 76.5021 121.233C75.8156 120.826 75.2711 120.227 74.8686 119.436C74.4709 118.641 74.272 117.663 74.272 116.503C74.272 115.343 74.4685 114.348 74.8615 113.52C75.2592 112.691 75.8037 112.057 76.495 111.616C77.1863 111.171 77.9699 110.949 78.8459 110.949C79.523 110.949 80.0698 111.062 80.4865 111.29C80.9032 111.512 81.2275 111.773 81.4595 112.071C81.6963 112.369 81.8786 112.632 82.0064 112.859H82.1626V111.091H84.2436V122.241C84.2436 123.179 84.0258 123.948 83.5902 124.55C83.1546 125.151 82.5651 125.596 81.8217 125.885C81.0831 126.174 80.2498 126.318 79.3217 126.318ZM79.3004 120.075C79.9112 120.075 80.4273 119.933 80.8487 119.649C81.2749 119.36 81.5968 118.948 81.8146 118.413C82.0372 117.874 82.1484 117.227 82.1484 116.474C82.1484 115.741 82.0395 115.094 81.8217 114.536C81.6039 113.977 81.2843 113.541 80.8629 113.229C80.4415 112.911 79.9207 112.753 79.3004 112.753C78.6612 112.753 78.1286 112.919 77.7024 113.25C77.2763 113.577 76.9543 114.022 76.7365 114.585C76.5234 115.149 76.4169 115.778 76.4169 116.474C76.4169 117.189 76.5258 117.817 76.7436 118.357C76.9614 118.896 77.2834 119.318 77.7095 119.621C78.1404 119.924 78.6707 120.075 79.3004 120.075ZM89.2152 115.523V122H87.0916V111.091H89.13V112.866H89.2649C89.5159 112.289 89.9089 111.825 90.4439 111.474C90.9837 111.124 91.6631 110.949 92.4822 110.949C93.2256 110.949 93.8767 111.105 94.4354 111.418C94.9941 111.725 95.4273 112.185 95.7351 112.795C96.0429 113.406 96.1967 114.161 96.1967 115.061V122H94.0732V115.317C94.0732 114.526 93.8672 113.908 93.4553 113.463C93.0433 113.013 92.4775 112.788 91.7578 112.788C91.2654 112.788 90.8274 112.895 90.4439 113.108C90.0651 113.321 89.7644 113.634 89.5419 114.045C89.3241 114.453 89.2152 114.945 89.2152 115.523Z" fill="#312A53"/>
<path d="M9.42045 179.909V150.818H11.2841V179.909H9.42045ZM15.25 159.841C15.1288 158.765 14.6288 157.932 13.75 157.341C12.8712 156.742 11.7652 156.443 10.4318 156.443C9.47727 156.443 8.65152 156.595 7.95455 156.898C7.25758 157.193 6.71591 157.602 6.32955 158.125C5.95076 158.64 5.76136 159.227 5.76136 159.886C5.76136 160.439 5.89015 160.917 6.14773 161.318C6.41288 161.72 6.75758 162.057 7.18182 162.33C7.61364 162.595 8.07576 162.818 8.56818 163C9.06061 163.174 9.53409 163.318 9.98864 163.432L12.2614 164.023C13.0038 164.205 13.7652 164.451 14.5455 164.761C15.3258 165.072 16.0492 165.481 16.7159 165.989C17.3826 166.496 17.9205 167.125 18.3295 167.875C18.7462 168.625 18.9545 169.523 18.9545 170.568C18.9545 171.886 18.6136 173.057 17.9318 174.08C17.2576 175.102 16.2765 175.909 14.9886 176.5C13.7083 177.091 12.1591 177.386 10.3409 177.386C8.59848 177.386 7.09091 177.11 5.81818 176.557C4.54545 176.004 3.54924 175.22 2.82955 174.205C2.10985 173.182 1.71212 171.97 1.63636 170.568H5.15909C5.22727 171.409 5.5 172.11 5.97727 172.67C6.46212 173.223 7.07955 173.636 7.82955 173.909C8.58712 174.174 9.41667 174.307 10.3182 174.307C11.3106 174.307 12.1932 174.152 12.9659 173.841C13.7462 173.523 14.3598 173.083 14.8068 172.523C15.2538 171.955 15.4773 171.292 15.4773 170.534C15.4773 169.845 15.2803 169.28 14.8864 168.841C14.5 168.402 13.9735 168.038 13.3068 167.75C12.6477 167.462 11.9015 167.208 11.0682 166.989L8.31818 166.239C6.45455 165.731 4.97727 164.985 3.88636 164C2.80303 163.015 2.26136 161.712 2.26136 160.091C2.26136 158.75 2.625 157.58 3.35227 156.58C4.07955 155.58 5.06439 154.803 6.30682 154.25C7.54924 153.689 8.95076 153.409 10.5114 153.409C12.0871 153.409 13.4773 153.686 14.6818 154.239C15.8939 154.792 16.8485 155.553 17.5455 156.523C18.2424 157.485 18.6061 158.591 18.6364 159.841H15.25ZM30.9347 177.318C29.3741 177.318 27.9801 177.049 26.7528 176.511C25.5331 175.973 24.5672 175.227 23.8551 174.273C23.1506 173.311 22.7718 172.197 22.7188 170.932H26.2869C26.3324 171.621 26.5634 172.22 26.9801 172.727C27.4044 173.227 27.9574 173.614 28.6392 173.886C29.321 174.159 30.0786 174.295 30.9119 174.295C31.8286 174.295 32.6392 174.136 33.3438 173.818C34.0559 173.5 34.6127 173.057 35.0142 172.489C35.4157 171.913 35.6165 171.25 35.6165 170.5C35.6165 169.72 35.4157 169.034 35.0142 168.443C34.6203 167.845 34.0407 167.375 33.2756 167.034C32.518 166.693 31.6013 166.523 30.5256 166.523H28.5597V163.659H30.5256C31.3892 163.659 32.1468 163.504 32.7983 163.193C33.4574 162.883 33.9725 162.451 34.3438 161.898C34.715 161.337 34.9006 160.682 34.9006 159.932C34.9006 159.212 34.7377 158.587 34.4119 158.057C34.0938 157.519 33.6392 157.098 33.0483 156.795C32.465 156.492 31.7756 156.341 30.9801 156.341C30.2225 156.341 29.5142 156.481 28.8551 156.761C28.2036 157.034 27.6733 157.428 27.2642 157.943C26.8551 158.451 26.6354 159.061 26.6051 159.773H23.2074C23.2453 158.515 23.6165 157.409 24.321 156.455C25.0331 155.5 25.9725 154.754 27.1392 154.216C28.3059 153.678 29.6013 153.409 31.0256 153.409C32.518 153.409 33.8059 153.701 34.8892 154.284C35.9801 154.86 36.821 155.629 37.4119 156.591C38.0104 157.553 38.3059 158.606 38.2983 159.75C38.3059 161.053 37.9422 162.159 37.2074 163.068C36.4801 163.977 35.5104 164.587 34.2983 164.898V165.08C35.8438 165.314 37.0407 165.928 37.8892 166.92C38.7453 167.913 39.1695 169.144 39.1619 170.614C39.1695 171.894 38.8134 173.042 38.0938 174.057C37.3816 175.072 36.4081 175.871 35.1733 176.455C33.9384 177.03 32.5256 177.318 30.9347 177.318ZM51.5597 177.386C49.7642 177.379 48.2301 176.905 46.9574 175.966C45.6847 175.027 44.7112 173.659 44.0369 171.864C43.3627 170.068 43.0256 167.905 43.0256 165.375C43.0256 162.852 43.3627 160.697 44.0369 158.909C44.7188 157.121 45.696 155.758 46.9688 154.818C48.2491 153.879 49.7794 153.409 51.5597 153.409C53.34 153.409 54.8665 153.883 56.1392 154.83C57.4119 155.769 58.3854 157.133 59.0597 158.92C59.7415 160.701 60.0824 162.852 60.0824 165.375C60.0824 167.913 59.7453 170.08 59.071 171.875C58.3968 173.663 57.4233 175.03 56.1506 175.977C54.8778 176.917 53.3475 177.386 51.5597 177.386ZM51.5597 174.352C53.1354 174.352 54.3665 173.583 55.2528 172.045C56.1468 170.508 56.5938 168.284 56.5938 165.375C56.5938 163.443 56.3892 161.811 55.9801 160.477C55.5786 159.136 54.9991 158.121 54.2415 157.432C53.4915 156.735 52.5975 156.386 51.5597 156.386C49.9915 156.386 48.7604 157.159 47.8665 158.705C46.9725 160.25 46.5218 162.473 46.5142 165.375C46.5142 167.314 46.715 168.955 47.1165 170.295C47.5256 171.629 48.1051 172.64 48.8551 173.33C49.6051 174.011 50.5066 174.352 51.5597 174.352ZM72.2159 177.386C70.4205 177.379 68.8864 176.905 67.6136 175.966C66.3409 175.027 65.3674 173.659 64.6932 171.864C64.0189 170.068 63.6818 167.905 63.6818 165.375C63.6818 162.852 64.0189 160.697 64.6932 158.909C65.375 157.121 66.3523 155.758 67.625 154.818C68.9053 153.879 70.4356 153.409 72.2159 153.409C73.9962 153.409 75.5227 153.883 76.7955 154.83C78.0682 155.769 79.0417 157.133 79.7159 158.92C80.3977 160.701 80.7386 162.852 80.7386 165.375C80.7386 167.913 80.4015 170.08 79.7273 171.875C79.053 173.663 78.0795 175.03 76.8068 175.977C75.5341 176.917 74.0038 177.386 72.2159 177.386ZM72.2159 174.352C73.7917 174.352 75.0227 173.583 75.9091 172.045C76.803 170.508 77.25 168.284 77.25 165.375C77.25 163.443 77.0455 161.811 76.6364 160.477C76.2348 159.136 75.6553 158.121 74.8977 157.432C74.1477 156.735 73.2538 156.386 72.2159 156.386C70.6477 156.386 69.4167 157.159 68.5227 158.705C67.6288 160.25 67.178 162.473 67.1705 165.375C67.1705 167.314 67.3712 168.955 67.7727 170.295C68.1818 171.629 68.7614 172.64 69.5114 173.33C70.2614 174.011 71.1629 174.352 72.2159 174.352Z" fill="#85D1A0"/>
<line y1="199.5" x2="317.014" y2="199.5" stroke="#F1F0F0"/>
<g clip-path="url(#clip1_1_134)">
<path d="M12 239C16.9706 239 21 234.971 21 230C21 225.029 16.9706 221 12 221C7.02944 221 3 225.029 3 230C3 234.971 7.02944 239 12 239Z" stroke="#85D1A0" stroke-width="1.5" stroke-linecap="round" stroke-linejoin="round"/>
<path d="M12 225V230L15 233" stroke="#85D1A0" stroke-width="1.5" stroke-linecap="round" stroke-linejoin="round"/>
</g>
<path d="M34.4943 235.139C33.8381 235.139 33.2531 235.027 32.7393 234.801C32.2289 234.576 31.8229 234.263 31.5213 233.862C31.223 233.457 31.0606 232.988 31.0341 232.455H32.2869C32.3134 232.783 32.4261 233.066 32.625 233.305C32.8239 233.54 33.084 233.722 33.4055 233.852C33.727 233.981 34.0833 234.045 34.4744 234.045C34.9119 234.045 35.2997 233.969 35.6378 233.817C35.9759 233.664 36.241 233.452 36.4332 233.18C36.6255 232.909 36.7216 232.594 36.7216 232.236C36.7216 231.861 36.6288 231.531 36.4432 231.246C36.2576 230.958 35.9858 230.733 35.6278 230.57C35.2699 230.408 34.8324 230.327 34.3153 230.327H33.5V229.233H34.3153C34.7197 229.233 35.0743 229.16 35.3793 229.014C35.6875 228.868 35.9278 228.663 36.1001 228.398C36.2758 228.133 36.3636 227.821 36.3636 227.463C36.3636 227.118 36.2874 226.818 36.1349 226.563C35.9825 226.308 35.767 226.109 35.4886 225.967C35.2135 225.824 34.8887 225.753 34.5142 225.753C34.1629 225.753 33.8314 225.817 33.5199 225.947C33.2116 226.073 32.9598 226.257 32.7642 226.499C32.5687 226.737 32.4626 227.026 32.446 227.364H31.2528C31.2727 226.83 31.4335 226.363 31.7351 225.962C32.0367 225.557 32.4311 225.242 32.9183 225.017C33.4089 224.792 33.9474 224.679 34.5341 224.679C35.1638 224.679 35.7041 224.807 36.1548 225.062C36.6056 225.314 36.9519 225.647 37.1939 226.061C37.4358 226.475 37.5568 226.923 37.5568 227.403C37.5568 227.977 37.406 228.466 37.1044 228.87C36.8061 229.274 36.4001 229.554 35.8864 229.71V229.79C36.5294 229.896 37.0315 230.169 37.3928 230.61C37.754 231.048 37.9347 231.589 37.9347 232.236C37.9347 232.789 37.7839 233.286 37.4822 233.727C37.1839 234.165 36.7763 234.509 36.2592 234.761C35.7422 235.013 35.1539 235.139 34.4943 235.139ZM43.2891 235.139C42.54 235.139 41.902 234.935 41.375 234.528C40.848 234.117 40.4453 233.522 40.1669 232.743C39.8885 231.961 39.7493 231.016 39.7493 229.909C39.7493 228.809 39.8885 227.869 40.1669 227.09C40.4486 226.308 40.853 225.711 41.38 225.3C41.9103 224.886 42.5466 224.679 43.2891 224.679C44.0315 224.679 44.6662 224.886 45.1932 225.3C45.7235 225.711 46.1278 226.308 46.4062 227.09C46.688 227.869 46.8288 228.809 46.8288 229.909C46.8288 231.016 46.6896 231.961 46.4112 232.743C46.1328 233.522 45.7301 234.117 45.2031 234.528C44.6761 234.935 44.0381 235.139 43.2891 235.139ZM43.2891 234.045C44.0315 234.045 44.6082 233.687 45.0192 232.972C45.4302 232.256 45.6357 231.235 45.6357 229.909C45.6357 229.027 45.5412 228.277 45.3523 227.657C45.1667 227.037 44.8982 226.565 44.5469 226.24C44.1989 225.915 43.7796 225.753 43.2891 225.753C42.5533 225.753 41.9782 226.116 41.5639 226.842C41.1496 227.564 40.9425 228.587 40.9425 229.909C40.9425 230.791 41.0353 231.54 41.2209 232.156C41.4065 232.773 41.6733 233.242 42.0213 233.563C42.3726 233.885 42.7952 234.045 43.2891 234.045ZM49.9112 230.406V235H48.7379V224.818H49.9112V228.557H50.0107C50.1896 228.162 50.4581 227.849 50.8161 227.617C51.1773 227.382 51.6579 227.264 52.2578 227.264C52.7782 227.264 53.2339 227.369 53.625 227.577C54.0161 227.783 54.3194 228.099 54.5348 228.527C54.7536 228.951 54.8629 229.491 54.8629 230.148V235H53.6896V230.227C53.6896 229.621 53.5322 229.152 53.2173 228.82C52.9058 228.486 52.4732 228.318 51.9197 228.318C51.5353 228.318 51.1906 228.399 50.8857 228.562C50.584 228.724 50.3454 228.961 50.1697 229.273C49.9974 229.584 49.9112 229.962 49.9112 230.406ZM57.0094 235V227.364H58.1429V228.517H58.2225C58.3617 228.139 58.6136 227.833 58.9782 227.597C59.3427 227.362 59.7537 227.244 60.2111 227.244C60.2973 227.244 60.405 227.246 60.5343 227.249C60.6635 227.253 60.7613 227.258 60.8276 227.264V228.457C60.7878 228.447 60.6967 228.433 60.5542 228.413C60.415 228.389 60.2675 228.378 60.1117 228.378C59.7405 228.378 59.409 228.456 59.1174 228.612C58.829 228.764 58.6003 228.976 58.4313 229.248C58.2656 229.516 58.1827 229.823 58.1827 230.168V235H57.0094ZM65.8974 232.912V231.898L70.3718 224.818H71.1076V226.389H70.6104L67.2298 231.739V231.818H73.2553V232.912H65.8974ZM70.69 235V232.604V232.131V224.818H71.8633V235H70.69ZM78.4395 235.139C77.6904 235.139 77.0524 234.935 76.5254 234.528C75.9984 234.117 75.5957 233.522 75.3173 232.743C75.0389 231.961 74.8997 231.016 74.8997 229.909C74.8997 228.809 75.0389 227.869 75.3173 227.09C75.599 226.308 76.0034 225.711 76.5304 225.3C77.0607 224.886 77.697 224.679 78.4395 224.679C79.1819 224.679 79.8166 224.886 80.3436 225.3C80.8739 225.711 81.2782 226.308 81.5566 227.09C81.8384 227.869 81.9792 228.809 81.9792 229.909C81.9792 231.016 81.84 231.961 81.5616 232.743C81.2832 233.522 80.8805 234.117 80.3535 234.528C79.8265 234.935 79.1885 235.139 78.4395 235.139ZM78.4395 234.045C79.1819 234.045 79.7586 233.687 80.1696 232.972C80.5806 232.256 80.786 231.235 80.786 229.909C80.786 229.027 80.6916 228.277 80.5027 227.657C80.3171 227.037 80.0486 226.565 79.6973 226.24C79.3493 225.915 78.93 225.753 78.4395 225.753C77.7037 225.753 77.1286 226.116 76.7143 226.842C76.3 227.564 76.0929 228.587 76.0929 229.909C76.0929 230.791 76.1857 231.54 76.3713 232.156C76.5569 232.773 76.8237 233.242 77.1717 233.563C77.523 233.885 77.9456 234.045 78.4395 234.045ZM83.8883 235V227.364H85.0218V228.557H85.1213C85.2804 228.149 85.5372 227.833 85.8919 227.607C86.2465 227.379 86.6724 227.264 87.1696 227.264C87.6734 227.264 88.0926 227.379 88.4274 227.607C88.7654 227.833 89.0289 228.149 89.2179 228.557H89.2974C89.493 228.162 89.7863 227.849 90.1774 227.617C90.5685 227.382 91.0375 227.264 91.5843 227.264C92.2671 227.264 92.8256 227.478 93.2598 227.906C93.694 228.33 93.911 228.991 93.911 229.889V235H92.7377V229.889C92.7377 229.326 92.5836 228.923 92.2754 228.681C91.9672 228.439 91.6042 228.318 91.1866 228.318C90.6497 228.318 90.2337 228.481 89.9387 228.805C89.6438 229.127 89.4963 229.535 89.4963 230.028V235H88.3031V229.77C88.3031 229.336 88.1622 228.986 87.8805 228.721C87.5988 228.452 87.2359 228.318 86.7917 228.318C86.4868 228.318 86.2018 228.399 85.9366 228.562C85.6748 228.724 85.4627 228.95 85.3002 229.238C85.1412 229.523 85.0616 229.853 85.0616 230.227V235H83.8883ZM96.0563 235V227.364H97.2296V235H96.0563ZM96.6529 226.091C96.4242 226.091 96.227 226.013 96.0613 225.857C95.8989 225.701 95.8176 225.514 95.8176 225.295C95.8176 225.077 95.8989 224.889 96.0613 224.734C96.227 224.578 96.4242 224.5 96.6529 224.5C96.8816 224.5 97.0771 224.578 97.2395 224.734C97.4052 224.889 97.4881 225.077 97.4881 225.295C97.4881 225.514 97.4052 225.701 97.2395 225.857C97.0771 226.013 96.8816 226.091 96.6529 226.091ZM100.552 230.406V235H99.3786V227.364H100.512V228.557H100.612C100.79 228.169 101.062 227.857 101.427 227.622C101.791 227.384 102.262 227.264 102.839 227.264C103.356 227.264 103.808 227.37 104.196 227.582C104.584 227.791 104.885 228.109 105.101 228.537C105.316 228.961 105.424 229.498 105.424 230.148V235H104.251V230.227C104.251 229.627 104.095 229.16 103.783 228.825C103.472 228.487 103.044 228.318 102.501 228.318C102.126 228.318 101.791 228.399 101.496 228.562C101.205 228.724 100.974 228.961 100.805 229.273C100.636 229.584 100.552 229.962 100.552 230.406Z" fill="#312A53"/>
<path d="M150.233 235V224.818H151.466V233.906H156.199V235H150.233ZM157.949 235V227.364H159.122V235H157.949ZM158.545 226.091C158.317 226.091 158.12 226.013 157.954 225.857C157.791 225.701 157.71 225.514 157.71 225.295C157.71 225.077 157.791 224.889 157.954 224.734C158.12 224.578 158.317 224.5 158.545 224.5C158.774 224.5 158.97 224.578 159.132 224.734C159.298 224.889 159.381 225.077 159.381 225.295C159.381 225.514 159.298 225.701 159.132 225.857C158.97 226.013 158.774 226.091 158.545 226.091ZM167.515 227.364L164.692 235H163.498L160.675 227.364H161.947L164.055 233.449H164.135L166.243 227.364H167.515ZM171.992 235.159C171.257 235.159 170.622 234.997 170.088 234.672C169.558 234.344 169.149 233.886 168.86 233.3C168.575 232.71 168.433 232.024 168.433 231.241C168.433 230.459 168.575 229.77 168.86 229.173C169.149 228.573 169.55 228.106 170.063 227.771C170.58 227.433 171.184 227.264 171.873 227.264C172.271 227.264 172.664 227.33 173.051 227.463C173.439 227.596 173.792 227.811 174.11 228.109C174.428 228.404 174.682 228.795 174.871 229.283C175.06 229.77 175.154 230.37 175.154 231.082V231.58H169.268V230.565H173.961C173.961 230.134 173.875 229.75 173.703 229.412C173.534 229.074 173.292 228.807 172.977 228.612C172.665 228.416 172.297 228.318 171.873 228.318C171.406 228.318 171.001 228.434 170.66 228.666C170.322 228.895 170.062 229.193 169.879 229.561C169.697 229.929 169.606 230.323 169.606 230.744V231.42C169.606 231.997 169.705 232.486 169.904 232.887C170.106 233.285 170.387 233.588 170.744 233.797C171.102 234.002 171.518 234.105 171.992 234.105C172.301 234.105 172.579 234.062 172.828 233.976C173.079 233.886 173.297 233.754 173.479 233.578C173.661 233.399 173.802 233.177 173.901 232.912L175.035 233.23C174.916 233.615 174.715 233.953 174.433 234.244C174.152 234.533 173.804 234.758 173.389 234.92C172.975 235.08 172.509 235.159 171.992 235.159ZM189.229 228H187.996C187.923 227.645 187.795 227.334 187.613 227.065C187.434 226.797 187.215 226.571 186.957 226.389C186.702 226.204 186.418 226.064 186.107 225.972C185.795 225.879 185.47 225.832 185.132 225.832C184.516 225.832 183.957 225.988 183.457 226.3C182.96 226.611 182.564 227.07 182.269 227.677C181.977 228.283 181.831 229.027 181.831 229.909C181.831 230.791 181.977 231.535 182.269 232.141C182.564 232.748 182.96 233.207 183.457 233.518C183.957 233.83 184.516 233.986 185.132 233.986C185.47 233.986 185.795 233.939 186.107 233.847C186.418 233.754 186.702 233.616 186.957 233.434C187.215 233.248 187.434 233.021 187.613 232.753C187.795 232.481 187.923 232.17 187.996 231.818H189.229C189.136 232.339 188.967 232.804 188.722 233.215C188.477 233.626 188.172 233.976 187.807 234.264C187.442 234.549 187.033 234.766 186.579 234.915C186.128 235.065 185.646 235.139 185.132 235.139C184.264 235.139 183.492 234.927 182.816 234.503C182.139 234.079 181.607 233.475 181.22 232.693C180.832 231.911 180.638 230.983 180.638 229.909C180.638 228.835 180.832 227.907 181.22 227.125C181.607 226.343 182.139 225.74 182.816 225.315C183.492 224.891 184.264 224.679 185.132 224.679C185.646 224.679 186.128 224.754 186.579 224.903C187.033 225.052 187.442 225.271 187.807 225.559C188.172 225.844 188.477 226.192 188.722 226.603C188.967 227.011 189.136 227.476 189.229 228ZM192.235 224.818V235H191.062V224.818H192.235ZM196.632 235.179C196.148 235.179 195.709 235.088 195.314 234.906C194.92 234.72 194.606 234.453 194.374 234.105C194.142 233.754 194.026 233.33 194.026 232.832C194.026 232.395 194.113 232.04 194.285 231.768C194.457 231.493 194.688 231.278 194.976 231.122C195.264 230.966 195.583 230.85 195.931 230.774C196.282 230.695 196.635 230.632 196.99 230.585C197.454 230.526 197.83 230.481 198.118 230.451C198.41 230.418 198.622 230.363 198.754 230.287C198.89 230.211 198.958 230.078 198.958 229.889V229.849C198.958 229.359 198.824 228.978 198.556 228.706C198.29 228.434 197.888 228.298 197.347 228.298C196.787 228.298 196.348 228.421 196.03 228.666C195.712 228.911 195.488 229.173 195.359 229.452L194.245 229.054C194.444 228.59 194.709 228.229 195.041 227.97C195.375 227.708 195.74 227.526 196.134 227.423C196.532 227.317 196.923 227.264 197.308 227.264C197.553 227.264 197.835 227.294 198.153 227.354C198.474 227.41 198.784 227.528 199.083 227.707C199.384 227.886 199.634 228.156 199.833 228.517C200.032 228.878 200.132 229.362 200.132 229.969V235H198.958V233.966H198.899C198.819 234.132 198.686 234.309 198.501 234.498C198.315 234.687 198.068 234.848 197.76 234.98C197.452 235.113 197.076 235.179 196.632 235.179ZM196.811 234.125C197.275 234.125 197.666 234.034 197.984 233.852C198.305 233.669 198.547 233.434 198.71 233.146C198.875 232.857 198.958 232.554 198.958 232.236V231.162C198.909 231.222 198.799 231.276 198.63 231.326C198.464 231.372 198.272 231.414 198.053 231.45C197.838 231.483 197.628 231.513 197.422 231.54C197.22 231.563 197.056 231.583 196.93 231.599C196.625 231.639 196.34 231.704 196.075 231.793C195.813 231.879 195.601 232.01 195.438 232.186C195.279 232.358 195.2 232.594 195.2 232.892C195.2 233.3 195.351 233.608 195.652 233.817C195.957 234.022 196.343 234.125 196.811 234.125ZM207.682 229.074L206.628 229.372C206.562 229.196 206.464 229.026 206.335 228.86C206.209 228.691 206.037 228.552 205.818 228.442C205.599 228.333 205.319 228.278 204.978 228.278C204.51 228.278 204.121 228.386 203.809 228.602C203.501 228.814 203.347 229.084 203.347 229.412C203.347 229.704 203.453 229.934 203.665 230.103C203.877 230.272 204.209 230.413 204.659 230.526L205.793 230.804C206.476 230.97 206.984 231.223 207.319 231.565C207.654 231.903 207.821 232.339 207.821 232.872C207.821 233.31 207.695 233.701 207.444 234.045C207.195 234.39 206.847 234.662 206.4 234.861C205.952 235.06 205.432 235.159 204.838 235.159C204.06 235.159 203.415 234.99 202.904 234.652C202.394 234.314 202.071 233.82 201.935 233.17L203.049 232.892C203.155 233.303 203.355 233.611 203.65 233.817C203.949 234.022 204.338 234.125 204.819 234.125C205.365 234.125 205.8 234.009 206.121 233.777C206.446 233.542 206.608 233.26 206.608 232.932C206.608 232.667 206.516 232.445 206.33 232.266C206.144 232.083 205.859 231.947 205.475 231.858L204.202 231.56C203.503 231.394 202.989 231.137 202.661 230.789C202.336 230.438 202.174 229.999 202.174 229.472C202.174 229.041 202.295 228.66 202.537 228.328C202.782 227.997 203.115 227.737 203.536 227.548C203.96 227.359 204.441 227.264 204.978 227.264C205.733 227.264 206.327 227.43 206.757 227.761C207.192 228.093 207.5 228.53 207.682 229.074ZM214.997 229.074L213.943 229.372C213.876 229.196 213.779 229.026 213.649 228.86C213.523 228.691 213.351 228.552 213.132 228.442C212.914 228.333 212.633 228.278 212.292 228.278C211.825 228.278 211.435 228.386 211.124 228.602C210.816 228.814 210.661 229.084 210.661 229.412C210.661 229.704 210.767 229.934 210.98 230.103C211.192 230.272 211.523 230.413 211.974 230.526L213.107 230.804C213.79 230.97 214.299 231.223 214.634 231.565C214.968 231.903 215.136 232.339 215.136 232.872C215.136 233.31 215.01 233.701 214.758 234.045C214.509 234.39 214.161 234.662 213.714 234.861C213.267 235.06 212.746 235.159 212.153 235.159C211.374 235.159 210.729 234.99 210.219 234.652C209.709 234.314 209.385 233.82 209.249 233.17L210.363 232.892C210.469 233.303 210.67 233.611 210.965 233.817C211.263 234.022 211.652 234.125 212.133 234.125C212.68 234.125 213.114 234.009 213.436 233.777C213.76 233.542 213.923 233.26 213.923 232.932C213.923 232.667 213.83 232.445 213.644 232.266C213.459 232.083 213.174 231.947 212.789 231.858L211.517 231.56C210.817 231.394 210.303 231.137 209.975 230.789C209.651 230.438 209.488 229.999 209.488 229.472C209.488 229.041 209.609 228.66 209.851 228.328C210.096 227.997 210.429 227.737 210.85 227.548C211.275 227.359 211.755 227.264 212.292 227.264C213.048 227.264 213.641 227.43 214.072 227.761C214.506 228.093 214.814 228.53 214.997 229.074Z" fill="#312A53"/>
<path d="M264.634 224.818V235H263.401V226.111H263.341L260.855 227.761V226.509L263.401 224.818H264.634ZM267.562 235V234.105L270.923 230.426C271.317 229.995 271.642 229.621 271.897 229.303C272.152 228.981 272.341 228.679 272.464 228.398C272.59 228.113 272.653 227.814 272.653 227.503C272.653 227.145 272.567 226.835 272.394 226.573C272.225 226.311 271.993 226.109 271.698 225.967C271.403 225.824 271.072 225.753 270.704 225.753C270.313 225.753 269.971 225.834 269.68 225.996C269.391 226.156 269.168 226.379 269.009 226.668C268.853 226.956 268.775 227.294 268.775 227.682H267.602C267.602 227.085 267.739 226.562 268.014 226.111C268.289 225.66 268.664 225.309 269.138 225.057C269.615 224.805 270.15 224.679 270.744 224.679C271.34 224.679 271.869 224.805 272.33 225.057C272.79 225.309 273.152 225.648 273.413 226.076C273.675 226.504 273.806 226.979 273.806 227.503C273.806 227.877 273.738 228.244 273.602 228.602C273.47 228.956 273.238 229.352 272.906 229.79C272.578 230.224 272.122 230.754 271.539 231.381L269.252 233.827V233.906H273.985V235H267.562ZM276.038 235V234.105L279.399 230.426C279.794 229.995 280.118 229.621 280.374 229.303C280.629 228.981 280.818 228.679 280.94 228.398C281.066 228.113 281.129 227.814 281.129 227.503C281.129 227.145 281.043 226.835 280.871 226.573C280.702 226.311 280.47 226.109 280.175 225.967C279.88 225.824 279.548 225.753 279.18 225.753C278.789 225.753 278.448 225.834 278.156 225.996C277.868 226.156 277.644 226.379 277.485 226.668C277.329 226.956 277.251 227.294 277.251 227.682H276.078C276.078 227.085 276.216 226.562 276.491 226.111C276.766 225.66 277.14 225.309 277.614 225.057C278.092 224.805 278.627 224.679 279.22 224.679C279.817 224.679 280.345 224.805 280.806 225.057C281.267 225.309 281.628 225.648 281.89 226.076C282.152 226.504 282.283 226.979 282.283 227.503C282.283 227.877 282.215 228.244 282.079 228.602C281.946 228.956 281.714 229.352 281.383 229.79C281.055 230.224 280.599 230.754 280.016 231.381L277.729 233.827V233.906H282.462V235H276.038ZM293.881 229.074L292.827 229.372C292.761 229.196 292.663 229.026 292.534 228.86C292.408 228.691 292.236 228.552 292.017 228.442C291.798 228.333 291.518 228.278 291.177 228.278C290.71 228.278 290.32 228.386 290.009 228.602C289.7 228.814 289.546 229.084 289.546 229.412C289.546 229.704 289.652 229.934 289.864 230.103C290.076 230.272 290.408 230.413 290.859 230.526L291.992 230.804C292.675 230.97 293.184 231.223 293.518 231.565C293.853 231.903 294.021 232.339 294.021 232.872C294.021 233.31 293.895 233.701 293.643 234.045C293.394 234.39 293.046 234.662 292.599 234.861C292.151 235.06 291.631 235.159 291.038 235.159C290.259 235.159 289.614 234.99 289.104 234.652C288.593 234.314 288.27 233.82 288.134 233.17L289.248 232.892C289.354 233.303 289.554 233.611 289.849 233.817C290.148 234.022 290.537 234.125 291.018 234.125C291.565 234.125 291.999 234.009 292.32 233.777C292.645 233.542 292.808 233.26 292.808 232.932C292.808 232.667 292.715 232.445 292.529 232.266C292.344 232.083 292.058 231.947 291.674 231.858L290.401 231.56C289.702 231.394 289.188 231.137 288.86 230.789C288.535 230.438 288.373 229.999 288.373 229.472C288.373 229.041 288.494 228.66 288.736 228.328C288.981 227.997 289.314 227.737 289.735 227.548C290.159 227.359 290.64 227.264 291.177 227.264C291.933 227.264 292.526 227.43 292.957 227.761C293.391 228.093 293.699 228.53 293.881 229.074ZM298.034 235.179C297.55 235.179 297.111 235.088 296.716 234.906C296.322 234.72 296.009 234.453 295.777 234.105C295.545 233.754 295.429 233.33 295.429 232.832C295.429 232.395 295.515 232.04 295.687 231.768C295.86 231.493 296.09 231.278 296.378 231.122C296.667 230.966 296.985 230.85 297.333 230.774C297.684 230.695 298.037 230.632 298.392 230.585C298.856 230.526 299.232 230.481 299.52 230.451C299.812 230.418 300.024 230.363 300.157 230.287C300.293 230.211 300.361 230.078 300.361 229.889V229.849C300.361 229.359 300.226 228.978 299.958 228.706C299.693 228.434 299.29 228.298 298.75 228.298C298.19 228.298 297.751 228.421 297.432 228.666C297.114 228.911 296.89 229.173 296.761 229.452L295.648 229.054C295.846 228.59 296.112 228.229 296.443 227.97C296.778 227.708 297.142 227.526 297.537 227.423C297.934 227.317 298.326 227.264 298.71 227.264C298.955 227.264 299.237 227.294 299.555 227.354C299.877 227.41 300.187 227.528 300.485 227.707C300.787 227.886 301.037 228.156 301.236 228.517C301.434 228.878 301.534 229.362 301.534 229.969V235H300.361V233.966H300.301C300.221 234.132 300.089 234.309 299.903 234.498C299.718 234.687 299.471 234.848 299.162 234.98C298.854 235.113 298.478 235.179 298.034 235.179ZM298.213 234.125C298.677 234.125 299.068 234.034 299.386 233.852C299.708 233.669 299.95 233.434 300.112 233.146C300.278 232.857 300.361 232.554 300.361 232.236V231.162C300.311 231.222 300.202 231.276 300.032 231.326C299.867 231.372 299.675 231.414 299.456 231.45C299.24 231.483 299.03 231.513 298.824 231.54C298.622 231.563 298.458 231.583 298.332 231.599C298.027 231.639 297.742 231.704 297.477 231.793C297.215 231.879 297.003 232.01 296.841 232.186C296.682 232.358 296.602 232.594 296.602 232.892C296.602 233.3 296.753 233.608 297.055 233.817C297.359 234.022 297.746 234.125 298.213 234.125ZM304.849 224.818V235H303.675V224.818H304.849ZM310.199 235.159C309.464 235.159 308.829 234.997 308.295 234.672C307.765 234.344 307.356 233.886 307.067 233.3C306.782 232.71 306.64 232.024 306.64 231.241C306.64 230.459 306.782 229.77 307.067 229.173C307.356 228.573 307.757 228.106 308.27 227.771C308.787 227.433 309.391 227.264 310.08 227.264C310.478 227.264 310.871 227.33 311.258 227.463C311.646 227.596 311.999 227.811 312.317 228.109C312.635 228.404 312.889 228.795 313.078 229.283C313.267 229.77 313.361 230.37 313.361 231.082V231.58H307.475V230.565H312.168C312.168 230.134 312.082 229.75 311.91 229.412C311.741 229.074 311.499 228.807 311.184 228.612C310.872 228.416 310.504 228.318 310.08 228.318C309.613 228.318 309.208 228.434 308.867 228.666C308.529 228.895 308.269 229.193 308.086 229.561C307.904 229.929 307.813 230.323 307.813 230.744V231.42C307.813 231.997 307.912 232.486 308.111 232.887C308.314 233.285 308.594 233.588 308.952 233.797C309.309 234.002 309.725 234.105 310.199 234.105C310.508 234.105 310.786 234.062 311.035 233.976C311.287 233.886 311.504 233.754 311.686 233.578C311.868 233.399 312.009 233.177 312.108 232.912L313.242 233.23C313.123 233.615 312.922 233.953 312.64 234.244C312.359 234.533 312.011 234.758 311.596 234.92C311.182 235.08 310.716 235.159 310.199 235.159ZM320.555 229.074L319.501 229.372C319.435 229.196 319.337 229.026 319.208 228.86C319.082 228.691 318.91 228.552 318.691 228.442C318.472 228.333 318.192 228.278 317.851 228.278C317.383 228.278 316.994 228.386 316.682 228.602C316.374 228.814 316.22 229.084 316.22 229.412C316.22 229.704 316.326 229.934 316.538 230.103C316.75 230.272 317.082 230.413 317.532 230.526L318.666 230.804C319.349 230.97 319.858 231.223 320.192 231.565C320.527 231.903 320.694 232.339 320.694 232.872C320.694 233.31 320.568 233.701 320.317 234.045C320.068 234.39 319.72 234.662 319.273 234.861C318.825 235.06 318.305 235.159 317.711 235.159C316.933 235.159 316.288 234.99 315.778 234.652C315.267 234.314 314.944 233.82 314.808 233.17L315.922 232.892C316.028 233.303 316.228 233.611 316.523 233.817C316.822 234.022 317.211 234.125 317.692 234.125C318.238 234.125 318.673 234.009 318.994 233.777C319.319 233.542 319.481 233.26 319.481 232.932C319.481 232.667 319.389 232.445 319.203 232.266C319.017 232.083 318.732 231.947 318.348 231.858L317.075 231.56C316.376 231.394 315.862 231.137 315.534 230.789C315.209 230.438 315.047 229.999 315.047 229.472C315.047 229.041 315.168 228.66 315.41 228.328C315.655 227.997 315.988 227.737 316.409 227.548C316.833 227.359 317.314 227.264 317.851 227.264C318.606 227.264 319.2 227.43 319.631 227.761C320.065 228.093 320.373 228.53 320.555 229.074Z" fill="#312A53"/>
<g clip-path="url(#clip2_1_134)">
<path d="M136 228L140.553 225.724C140.705 225.648 140.875 225.612 141.045 225.62C141.215 225.627 141.381 225.678 141.526 225.768C141.671 225.857 141.79 225.982 141.873 226.131C141.956 226.28 142 226.448 142 226.618V233.382C142 233.552 141.956 233.72 141.873 233.869C141.79 234.018 141.671 234.143 141.526 234.232C141.381 234.322 141.215 234.373 141.045 234.38C140.875 234.388 140.705 234.352 140.553 234.276L136 232V228Z" stroke="#85D1A0" stroke-width="1.5" stroke-linecap="round" stroke-linejoin="round"/>
<path d="M134 224H126C124.895 224 124 224.895 124 226V234C124 235.105 124.895 236 126 236H134C135.105 236 136 235.105 136 234V226C136 224.895 135.105 224 134 224Z" stroke="#85D1A0" stroke-width="1.5" stroke-linecap="round" stroke-linejoin="round"/>
</g>
<g clip-path="url(#clip3_1_134)">
<path d="M251 236C251.928 236 252.819 235.631 253.475 234.975C254.131 234.318 254.5 233.428 254.5 232.5C254.5 231.572 254.131 230.682 253.475 230.025C252.819 229.369 251.928 229 251 229H250C250.146 228.35 250.148 227.68 250.007 227.03C249.865 226.379 249.582 225.759 249.175 225.207C248.767 224.654 248.243 224.18 247.631 223.809C247.02 223.439 246.333 223.181 245.611 223.05C244.889 222.919 244.145 222.917 243.422 223.044C242.699 223.172 242.01 223.426 241.397 223.793C240.157 224.533 239.295 225.687 239 227C237.934 226.957 236.886 227.27 236.034 227.886C235.183 228.501 234.582 229.38 234.334 230.373C234.086 231.365 234.206 232.41 234.674 233.327C235.142 234.244 235.929 234.977 236.9 235.4" stroke="#85D1A0" stroke-width="1.5" stroke-linecap="round" stroke-linejoin="round"/>
<path d="M244 231V240" stroke="#85D1A0" stroke-width="1.5" stroke-linecap="round" stroke-linejoin="round"/>
<path d="M241 237L244 240L247 237" stroke="#85D1A0" stroke-width="1.5" stroke-linecap="round" stroke-linejoin="round"/>
</g>
<rect x="0.5" y="265.5" width="96" height="40" rx="5.5" stroke="#312A53"/>
<path d="M20.4386 280.091H22.0792V287.825C22.0792 288.525 21.9407 289.123 21.6637 289.62C21.3903 290.118 21.005 290.498 20.5078 290.76C20.0107 291.02 19.4283 291.149 18.7607 291.149C18.1463 291.149 17.5941 291.037 17.104 290.814C16.6175 290.59 16.2322 290.265 15.9482 289.839C15.6676 289.409 15.5273 288.887 15.5273 288.273H17.1626C17.1626 288.575 17.2319 288.836 17.3704 289.056C17.5124 289.276 17.706 289.448 17.951 289.572C18.1996 289.693 18.4837 289.754 18.8033 289.754C19.1513 289.754 19.446 289.681 19.6875 289.535C19.9325 289.386 20.119 289.168 20.2468 288.88C20.3746 288.592 20.4386 288.241 20.4386 287.825V280.091ZM27.7934 291.165C27.0264 291.165 26.357 290.989 25.7852 290.638C25.2135 290.286 24.7696 289.794 24.4536 289.162C24.1375 288.53 23.9795 287.792 23.9795 286.946C23.9795 286.098 24.1375 285.355 24.4536 284.72C24.7696 284.084 25.2135 283.591 25.7852 283.239C26.357 282.887 27.0264 282.712 27.7934 282.712C28.5605 282.712 29.2298 282.887 29.8016 283.239C30.3733 283.591 30.8172 284.084 31.1333 284.72C31.4493 285.355 31.6073 286.098 31.6073 286.946C31.6073 287.792 31.4493 288.53 31.1333 289.162C30.8172 289.794 30.3733 290.286 29.8016 290.638C29.2298 290.989 28.5605 291.165 27.7934 291.165ZM27.7987 289.828C28.2959 289.828 28.7078 289.697 29.0345 289.434C29.3612 289.171 29.6027 288.821 29.759 288.385C29.9188 287.948 29.9987 287.467 29.9987 286.941C29.9987 286.419 29.9188 285.94 29.759 285.503C29.6027 285.062 29.3612 284.709 29.0345 284.443C28.7078 284.176 28.2959 284.043 27.7987 284.043C27.298 284.043 26.8825 284.176 26.5523 284.443C26.2256 284.709 25.9823 285.062 25.8225 285.503C25.6663 285.94 25.5882 286.419 25.5882 286.941C25.5882 287.467 25.6663 287.948 25.8225 288.385C25.9823 288.821 26.2256 289.171 26.5523 289.434C26.8825 289.697 27.298 289.828 27.7987 289.828ZM33.3851 291V282.818H34.9778V291H33.3851ZM34.1895 281.556C33.9125 281.556 33.6745 281.463 33.4757 281.279C33.2804 281.091 33.1827 280.867 33.1827 280.608C33.1827 280.345 33.2804 280.121 33.4757 279.936C33.6745 279.748 33.9125 279.654 34.1895 279.654C34.4664 279.654 34.7026 279.748 34.8979 279.936C35.0968 280.121 35.1962 280.345 35.1962 280.608C35.1962 280.867 35.0968 281.091 34.8979 281.279C34.7026 281.463 34.4664 281.556 34.1895 281.556ZM38.7132 286.142V291H37.1205V282.818H38.6492V284.15H38.7504C38.9387 283.717 39.2334 283.369 39.6347 283.106C40.0395 282.843 40.5491 282.712 41.1634 282.712C41.721 282.712 42.2093 282.829 42.6283 283.063C43.0473 283.294 43.3722 283.638 43.6031 284.097C43.8339 284.555 43.9493 285.121 43.9493 285.796V291H42.3566V285.988C42.3566 285.395 42.2021 284.931 41.8932 284.597C41.5843 284.26 41.1599 284.091 40.6201 284.091C40.2508 284.091 39.9223 284.171 39.6347 284.331C39.3506 284.491 39.1251 284.725 38.9582 285.034C38.7948 285.339 38.7132 285.709 38.7132 286.142ZM58.9879 280.091V291H57.4751L51.93 282.999H51.8288V291H50.1829V280.091H51.7063L57.2567 288.102H57.358V280.091H58.9879ZM64.7075 291.165C63.9404 291.165 63.271 290.989 62.6993 290.638C62.1276 290.286 61.6837 289.794 61.3676 289.162C61.0516 288.53 60.8936 287.792 60.8936 286.946C60.8936 286.098 61.0516 285.355 61.3676 284.72C61.6837 284.084 62.1276 283.591 62.6993 283.239C63.271 282.887 63.9404 282.712 64.7075 282.712C65.4745 282.712 66.1439 282.887 66.7156 283.239C67.2874 283.591 67.7313 284.084 68.0473 284.72C68.3634 285.355 68.5214 286.098 68.5214 286.946C68.5214 287.792 68.3634 288.53 68.0473 289.162C67.7313 289.794 67.2874 290.286 66.7156 290.638C66.1439 290.989 65.4745 291.165 64.7075 291.165ZM64.7128 289.828C65.21 289.828 65.6219 289.697 65.9486 289.434C66.2753 289.171 66.5168 288.821 66.673 288.385C66.8328 287.948 66.9127 287.467 66.9127 286.941C66.9127 286.419 66.8328 285.94 66.673 285.503C66.5168 285.062 66.2753 284.709 65.9486 284.443C65.6219 284.176 65.21 284.043 64.7128 284.043C64.2121 284.043 63.7966 284.176 63.4664 284.443C63.1396 284.709 62.8964 285.062 62.7366 285.503C62.5803 285.94 62.5022 286.419 62.5022 286.941C62.5022 287.467 62.5803 287.948 62.7366 288.385C62.8964 288.821 63.1396 289.171 63.4664 289.434C63.7966 289.697 64.2121 289.828 64.7128 289.828ZM71.824 291L69.4163 282.818H71.0622L72.6656 288.827H72.7455L74.3541 282.818H76.0001L77.5981 288.8H77.678L79.2707 282.818H80.9166L78.5143 291H76.8896L75.2277 285.093H75.1052L73.4433 291H71.824Z" fill="#312A53"/>
<defs>
<clipPath id="clip0_1_134">
<rect width="60" height="60" fill="white"/>
</clipPath>
<clipPath id="clip1_1_134">
<rect width="24" height="24" fill="white" transform="translate(0 218)"/>
</clipPath>
<clipPath id="clip2_1_134">
<rect width="24" height="24" fill="white" transform="translate(121 218)"/>
</clipPath>
<clipPath id="clip3_1_134">
<rect width="24" height="24" fill="white" transform="translate(232 218)"/>
</clipPath>
</defs>
</svg>
