<svg width="61" height="18" viewBox="0 0 61 18" fill="none" xmlns="http://www.w3.org/2000/svg">
<path d="M0.578125 17V1H3.47656V14.5703H10.5234V17H0.578125ZM26.7129 9C26.7129 10.724 26.39 12.2005 25.7441 13.4297C25.1035 14.6536 24.2285 15.5911 23.1191 16.2422C22.015 16.8932 20.7624 17.2187 19.3613 17.2187C17.9603 17.2187 16.7051 16.8932 15.5957 16.2422C14.4915 15.5859 13.6165 14.6458 12.9707 13.4219C12.3301 12.1927 12.0098 10.7187 12.0098 9C12.0098 7.27604 12.3301 5.80208 12.9707 4.57812C13.6165 3.34896 14.4915 2.40885 15.5957 1.75781C16.7051 1.10677 17.9603 0.781249 19.3613 0.781249C20.7624 0.781249 22.015 1.10677 23.1191 1.75781C24.2285 2.40885 25.1035 3.34896 25.7441 4.57812C26.39 5.80208 26.7129 7.27604 26.7129 9ZM23.7988 9C23.7988 7.78646 23.6087 6.76302 23.2285 5.92969C22.8535 5.09115 22.3327 4.45833 21.666 4.03125C20.9993 3.59896 20.2311 3.38281 19.3613 3.38281C18.4915 3.38281 17.7233 3.59896 17.0566 4.03125C16.39 4.45833 15.8665 5.09115 15.4863 5.92969C15.1113 6.76302 14.9238 7.78646 14.9238 9C14.9238 10.2135 15.1113 11.2396 15.4863 12.0781C15.8665 12.9115 16.39 13.5443 17.0566 13.9766C17.7233 14.4036 18.4915 14.6172 19.3613 14.6172C20.2311 14.6172 20.9993 14.4036 21.666 13.9766C22.3327 13.5443 22.8535 12.9115 23.2285 12.0781C23.6087 11.2396 23.7988 10.2135 23.7988 9ZM40.1719 6.10937C40.0417 5.6875 39.862 5.3099 39.6328 4.97656C39.4089 4.63802 39.138 4.34896 38.8203 4.10938C38.5078 3.86979 38.1484 3.6901 37.7422 3.57031C37.3359 3.44531 36.8932 3.38281 36.4141 3.38281C35.5547 3.38281 34.7891 3.59896 34.1172 4.03125C33.4453 4.46354 32.9167 5.09896 32.5313 5.9375C32.151 6.77083 31.9609 7.78646 31.9609 8.98437C31.9609 10.1927 32.151 11.2161 32.5313 12.0547C32.9115 12.8932 33.4401 13.5312 34.1172 13.9687C34.7943 14.401 35.5807 14.6172 36.4766 14.6172C37.2891 14.6172 37.9922 14.4609 38.5859 14.1484C39.1849 13.8359 39.6458 13.3932 39.9688 12.8203C40.2917 12.2422 40.4531 11.5651 40.4531 10.7891L41.1094 10.8906H36.7656V8.625H43.2578V10.5469C43.2578 11.9167 42.9661 13.1016 42.3828 14.1016C41.7995 15.1016 40.9974 15.8724 39.9766 16.4141C38.9557 16.9505 37.7839 17.2187 36.4609 17.2187C34.987 17.2187 33.6927 16.888 32.5781 16.2266C31.4688 15.5599 30.6016 14.6146 29.9766 13.3906C29.3568 12.1615 29.0469 10.7031 29.0469 9.01562C29.0469 7.72396 29.2292 6.57031 29.5938 5.55469C29.9635 4.53906 30.4792 3.67708 31.1406 2.96875C31.8021 2.25521 32.5781 1.71354 33.4688 1.34375C34.3594 0.968749 35.3281 0.781249 36.375 0.781249C37.2604 0.781249 38.0859 0.911458 38.8516 1.17187C39.6172 1.42708 40.2969 1.79167 40.8906 2.26563C41.4896 2.73958 41.9818 3.30208 42.3672 3.95312C42.7526 4.60417 43.0052 5.32292 43.125 6.10937H40.1719ZM60.3574 9C60.3574 10.724 60.0345 12.2005 59.3887 13.4297C58.748 14.6536 57.873 15.5911 56.7637 16.2422C55.6595 16.8932 54.4069 17.2187 53.0059 17.2187C51.6048 17.2187 50.3496 16.8932 49.2402 16.2422C48.1361 15.5859 47.2611 14.6458 46.6152 13.4219C45.9746 12.1927 45.6543 10.7187 45.6543 9C45.6543 7.27604 45.9746 5.80208 46.6152 4.57812C47.2611 3.34896 48.1361 2.40885 49.2402 1.75781C50.3496 1.10677 51.6048 0.781249 53.0059 0.781249C54.4069 0.781249 55.6595 1.10677 56.7637 1.75781C57.873 2.40885 58.748 3.34896 59.3887 4.57812C60.0345 5.80208 60.3574 7.27604 60.3574 9ZM57.4434 9C57.4434 7.78646 57.2533 6.76302 56.873 5.92969C56.498 5.09115 55.9772 4.45833 55.3105 4.03125C54.6439 3.59896 53.8757 3.38281 53.0059 3.38281C52.1361 3.38281 51.3678 3.59896 50.7012 4.03125C50.0345 4.45833 49.5111 5.09115 49.1309 5.92969C48.7559 6.76302 48.5684 7.78646 48.5684 9C48.5684 10.2135 48.7559 11.2396 49.1309 12.0781C49.5111 12.9115 50.0345 13.5443 50.7012 13.9766C51.3678 14.4036 52.1361 14.6172 53.0059 14.6172C53.8757 14.6172 54.6439 14.4036 55.3105 13.9766C55.9772 13.5443 56.498 12.9115 56.873 12.0781C57.2533 11.2396 57.4434 10.2135 57.4434 9Z" fill="#6255A5"/>
</svg>
